<?xml version='1.0' encoding='utf-8'?>
<xmeml version="4">
	<sequence>
		<name>Auto-Editor Media Group</name>
		<duration>4425</duration>
		<rate>
			<timebase>60</timebase>
			<ntsc>FALSE</ntsc>
		</rate>
		<media>
			<video>
				<format>
					<samplecharacteristics>
						<rate>
							<timebase>60</timebase>
							<ntsc>FALSE</ntsc>
						</rate>
						<colordepth>24</colordepth>
						<width>1920</width>
						<height>1080</height>
						<pixelaspectratio>square</pixelaspectratio>
					</samplecharacteristics>
				</format>
				<track>
					<clipitem id="clipitem-1">
						<masterclipid>masterclip-2</masterclipid>
						<name>out</name>
						<start>0</start>
						<end>70</end>
						<in>13</in>
						<out>83</out>
						<file id="file-1">
							<name>out</name>
							<pathurl>/Users/wyattblue/out.mp4</pathurl>
							<rate>
								<timebase>60</timebase>
								<ntsc>FALSE</ntsc>
							</rate>
							<duration />
							<media>
								<video>
									<samplecharacteristics>
										<rate>
											<timebase>60</timebase>
											<ntsc>FALSE</ntsc>
										</rate>
										<width>1920</width>
										<height>1080</height>
										<anamorphic>FALSE</anamorphic>
										<pixelaspectratio>square</pixelaspectratio>
									</samplecharacteristics>
								</video>
								<audio>
									<samplecharacteristics>
										<depth>16</depth>
										<samplerate>48000</samplerate>
									</samplecharacteristics>
									<channelcount>2</channelcount>
								</audio>
							</media>
						</file>
						<link>
							<linkclipref>clipitem-1</linkclipref>
							<mediatype>video</mediatype>
							<trackindex>1</trackindex>
							<clipindex>1</clipindex>
						</link>
						<link>
							<linkclipref>clipitem-136</linkclipref>
							<mediatype>audio</mediatype>
							<trackindex>1</trackindex>
							<clipindex>1</clipindex>
							<groupindex>1</groupindex>
						</link>
						<link>
							<linkclipref>clipitem-271</linkclipref>
							<mediatype>audio</mediatype>
							<trackindex>2</trackindex>
							<clipindex>1</clipindex>
							<groupindex>1</groupindex>
						</link>
					</clipitem>
					<clipitem id="clipitem-2">
						<masterclipid>masterclip-2</masterclipid>
						<name>out</name>
						<start>70</start>
						<end>100</end>
						<in>88</in>
						<out>118</out>
						<file id="file-1" />
						<link>
							<linkclipref>clipitem-2</linkclipref>
							<mediatype>video</mediatype>
							<trackindex>1</trackindex>
							<clipindex>2</clipindex>
						</link>
						<link>
							<linkclipref>clipitem-137</linkclipref>
							<mediatype>audio</mediatype>
							<trackindex>1</trackindex>
							<clipindex>2</clipindex>
							<groupindex>1</groupindex>
						</link>
						<link>
							<linkclipref>clipitem-272</linkclipref>
							<mediatype>audio</mediatype>
							<trackindex>2</trackindex>
							<clipindex>2</clipindex>
							<groupindex>1</groupindex>
						</link>
					</clipitem>
					<clipitem id="clipitem-3">
						<masterclipid>masterclip-2</masterclipid>
						<name>out</name>
						<start>100</start>
						<end>212</end>
						<in>275</in>
						<out>387</out>
						<file id="file-1" />
						<link>
							<linkclipref>clipitem-3</linkclipref>
							<mediatype>video</mediatype>
							<trackindex>1</trackindex>
							<clipindex>3</clipindex>
						</link>
						<link>
							<linkclipref>clipitem-138</linkclipref>
							<mediatype>audio</mediatype>
							<trackindex>1</trackindex>
							<clipindex>3</clipindex>
							<groupindex>1</groupindex>
						</link>
						<link>
							<linkclipref>clipitem-273</linkclipref>
							<mediatype>audio</mediatype>
							<trackindex>2</trackindex>
							<clipindex>3</clipindex>
							<groupindex>1</groupindex>
						</link>
					</clipitem>
					<clipitem id="clipitem-4">
						<masterclipid>masterclip-2</masterclipid>
						<name>out</name>
						<start>212</start>
						<end>259</end>
						<in>900</in>
						<out>947</out>
						<file id="file-1" />
						<link>
							<linkclipref>clipitem-4</linkclipref>
							<mediatype>video</mediatype>
							<trackindex>1</trackindex>
							<clipindex>4</clipindex>
						</link>
						<link>
							<linkclipref>clipitem-139</linkclipref>
							<mediatype>audio</mediatype>
							<trackindex>1</trackindex>
							<clipindex>4</clipindex>
							<groupindex>1</groupindex>
						</link>
						<link>
							<linkclipref>clipitem-274</linkclipref>
							<mediatype>audio</mediatype>
							<trackindex>2</trackindex>
							<clipindex>4</clipindex>
							<groupindex>1</groupindex>
						</link>
					</clipitem>
					<clipitem id="clipitem-5">
						<masterclipid>masterclip-2</masterclipid>
						<name>out</name>
						<start>259</start>
						<end>292</end>
						<in>973</in>
						<out>1006</out>
						<file id="file-1" />
						<link>
							<linkclipref>clipitem-5</linkclipref>
							<mediatype>video</mediatype>
							<trackindex>1</trackindex>
							<clipindex>5</clipindex>
						</link>
						<link>
							<linkclipref>clipitem-140</linkclipref>
							<mediatype>audio</mediatype>
							<trackindex>1</trackindex>
							<clipindex>5</clipindex>
							<groupindex>1</groupindex>
						</link>
						<link>
							<linkclipref>clipitem-275</linkclipref>
							<mediatype>audio</mediatype>
							<trackindex>2</trackindex>
							<clipindex>5</clipindex>
							<groupindex>1</groupindex>
						</link>
					</clipitem>
					<clipitem id="clipitem-6">
						<masterclipid>masterclip-2</masterclipid>
						<name>out</name>
						<start>292</start>
						<end>330</end>
						<in>1038</in>
						<out>1076</out>
						<file id="file-1" />
						<link>
							<linkclipref>clipitem-6</linkclipref>
							<mediatype>video</mediatype>
							<trackindex>1</trackindex>
							<clipindex>6</clipindex>
						</link>
						<link>
							<linkclipref>clipitem-141</linkclipref>
							<mediatype>audio</mediatype>
							<trackindex>1</trackindex>
							<clipindex>6</clipindex>
							<groupindex>1</groupindex>
						</link>
						<link>
							<linkclipref>clipitem-276</linkclipref>
							<mediatype>audio</mediatype>
							<trackindex>2</trackindex>
							<clipindex>6</clipindex>
							<groupindex>1</groupindex>
						</link>
					</clipitem>
					<clipitem id="clipitem-7">
						<masterclipid>masterclip-2</masterclipid>
						<name>out</name>
						<start>330</start>
						<end>382</end>
						<in>1137</in>
						<out>1189</out>
						<file id="file-1" />
						<link>
							<linkclipref>clipitem-7</linkclipref>
							<mediatype>video</mediatype>
							<trackindex>1</trackindex>
							<clipindex>7</clipindex>
						</link>
						<link>
							<linkclipref>clipitem-142</linkclipref>
							<mediatype>audio</mediatype>
							<trackindex>1</trackindex>
							<clipindex>7</clipindex>
							<groupindex>1</groupindex>
						</link>
						<link>
							<linkclipref>clipitem-277</linkclipref>
							<mediatype>audio</mediatype>
							<trackindex>2</trackindex>
							<clipindex>7</clipindex>
							<groupindex>1</groupindex>
						</link>
					</clipitem>
					<clipitem id="clipitem-8">
						<masterclipid>masterclip-2</masterclipid>
						<name>out</name>
						<start>382</start>
						<end>416</end>
						<in>1313</in>
						<out>1347</out>
						<file id="file-1" />
						<link>
							<linkclipref>clipitem-8</linkclipref>
							<mediatype>video</mediatype>
							<trackindex>1</trackindex>
							<clipindex>8</clipindex>
						</link>
						<link>
							<linkclipref>clipitem-143</linkclipref>
							<mediatype>audio</mediatype>
							<trackindex>1</trackindex>
							<clipindex>8</clipindex>
							<groupindex>1</groupindex>
						</link>
						<link>
							<linkclipref>clipitem-278</linkclipref>
							<mediatype>audio</mediatype>
							<trackindex>2</trackindex>
							<clipindex>8</clipindex>
							<groupindex>1</groupindex>
						</link>
					</clipitem>
					<clipitem id="clipitem-9">
						<masterclipid>masterclip-2</masterclipid>
						<name>out</name>
						<start>416</start>
						<end>443</end>
						<in>1350</in>
						<out>1377</out>
						<file id="file-1" />
						<link>
							<linkclipref>clipitem-9</linkclipref>
							<mediatype>video</mediatype>
							<trackindex>1</trackindex>
							<clipindex>9</clipindex>
						</link>
						<link>
							<linkclipref>clipitem-144</linkclipref>
							<mediatype>audio</mediatype>
							<trackindex>1</trackindex>
							<clipindex>9</clipindex>
							<groupindex>1</groupindex>
						</link>
						<link>
							<linkclipref>clipitem-279</linkclipref>
							<mediatype>audio</mediatype>
							<trackindex>2</trackindex>
							<clipindex>9</clipindex>
							<groupindex>1</groupindex>
						</link>
					</clipitem>
					<clipitem id="clipitem-10">
						<masterclipid>masterclip-2</masterclipid>
						<name>out</name>
						<start>443</start>
						<end>479</end>
						<in>1386</in>
						<out>1422</out>
						<file id="file-1" />
						<link>
							<linkclipref>clipitem-10</linkclipref>
							<mediatype>video</mediatype>
							<trackindex>1</trackindex>
							<clipindex>10</clipindex>
						</link>
						<link>
							<linkclipref>clipitem-145</linkclipref>
							<mediatype>audio</mediatype>
							<trackindex>1</trackindex>
							<clipindex>10</clipindex>
							<groupindex>1</groupindex>
						</link>
						<link>
							<linkclipref>clipitem-280</linkclipref>
							<mediatype>audio</mediatype>
							<trackindex>2</trackindex>
							<clipindex>10</clipindex>
							<groupindex>1</groupindex>
						</link>
					</clipitem>
					<clipitem id="clipitem-11">
						<masterclipid>masterclip-2</masterclipid>
						<name>out</name>
						<start>479</start>
						<end>519</end>
						<in>1519</in>
						<out>1559</out>
						<file id="file-1" />
						<link>
							<linkclipref>clipitem-11</linkclipref>
							<mediatype>video</mediatype>
							<trackindex>1</trackindex>
							<clipindex>11</clipindex>
						</link>
						<link>
							<linkclipref>clipitem-146</linkclipref>
							<mediatype>audio</mediatype>
							<trackindex>1</trackindex>
							<clipindex>11</clipindex>
							<groupindex>1</groupindex>
						</link>
						<link>
							<linkclipref>clipitem-281</linkclipref>
							<mediatype>audio</mediatype>
							<trackindex>2</trackindex>
							<clipindex>11</clipindex>
							<groupindex>1</groupindex>
						</link>
					</clipitem>
					<clipitem id="clipitem-12">
						<masterclipid>masterclip-2</masterclipid>
						<name>out</name>
						<start>519</start>
						<end>546</end>
						<in>1587</in>
						<out>1614</out>
						<file id="file-1" />
						<link>
							<linkclipref>clipitem-12</linkclipref>
							<mediatype>video</mediatype>
							<trackindex>1</trackindex>
							<clipindex>12</clipindex>
						</link>
						<link>
							<linkclipref>clipitem-147</linkclipref>
							<mediatype>audio</mediatype>
							<trackindex>1</trackindex>
							<clipindex>12</clipindex>
							<groupindex>1</groupindex>
						</link>
						<link>
							<linkclipref>clipitem-282</linkclipref>
							<mediatype>audio</mediatype>
							<trackindex>2</trackindex>
							<clipindex>12</clipindex>
							<groupindex>1</groupindex>
						</link>
					</clipitem>
					<clipitem id="clipitem-13">
						<masterclipid>masterclip-2</masterclipid>
						<name>out</name>
						<start>546</start>
						<end>585</end>
						<in>1651</in>
						<out>1690</out>
						<file id="file-1" />
						<link>
							<linkclipref>clipitem-13</linkclipref>
							<mediatype>video</mediatype>
							<trackindex>1</trackindex>
							<clipindex>13</clipindex>
						</link>
						<link>
							<linkclipref>clipitem-148</linkclipref>
							<mediatype>audio</mediatype>
							<trackindex>1</trackindex>
							<clipindex>13</clipindex>
							<groupindex>1</groupindex>
						</link>
						<link>
							<linkclipref>clipitem-283</linkclipref>
							<mediatype>audio</mediatype>
							<trackindex>2</trackindex>
							<clipindex>13</clipindex>
							<groupindex>1</groupindex>
						</link>
					</clipitem>
					<clipitem id="clipitem-14">
						<masterclipid>masterclip-2</masterclipid>
						<name>out</name>
						<start>585</start>
						<end>613</end>
						<in>2048</in>
						<out>2076</out>
						<file id="file-1" />
						<link>
							<linkclipref>clipitem-14</linkclipref>
							<mediatype>video</mediatype>
							<trackindex>1</trackindex>
							<clipindex>14</clipindex>
						</link>
						<link>
							<linkclipref>clipitem-149</linkclipref>
							<mediatype>audio</mediatype>
							<trackindex>1</trackindex>
							<clipindex>14</clipindex>
							<groupindex>1</groupindex>
						</link>
						<link>
							<linkclipref>clipitem-284</linkclipref>
							<mediatype>audio</mediatype>
							<trackindex>2</trackindex>
							<clipindex>14</clipindex>
							<groupindex>1</groupindex>
						</link>
					</clipitem>
					<clipitem id="clipitem-15">
						<masterclipid>masterclip-2</masterclipid>
						<name>out</name>
						<start>613</start>
						<end>642</end>
						<in>4451</in>
						<out>4480</out>
						<file id="file-1" />
						<link>
							<linkclipref>clipitem-15</linkclipref>
							<mediatype>video</mediatype>
							<trackindex>1</trackindex>
							<clipindex>15</clipindex>
						</link>
						<link>
							<linkclipref>clipitem-150</linkclipref>
							<mediatype>audio</mediatype>
							<trackindex>1</trackindex>
							<clipindex>15</clipindex>
							<groupindex>1</groupindex>
						</link>
						<link>
							<linkclipref>clipitem-285</linkclipref>
							<mediatype>audio</mediatype>
							<trackindex>2</trackindex>
							<clipindex>15</clipindex>
							<groupindex>1</groupindex>
						</link>
					</clipitem>
					<clipitem id="clipitem-16">
						<masterclipid>masterclip-2</masterclipid>
						<name>out</name>
						<start>642</start>
						<end>669</end>
						<in>5254</in>
						<out>5281</out>
						<file id="file-1" />
						<link>
							<linkclipref>clipitem-16</linkclipref>
							<mediatype>video</mediatype>
							<trackindex>1</trackindex>
							<clipindex>16</clipindex>
						</link>
						<link>
							<linkclipref>clipitem-151</linkclipref>
							<mediatype>audio</mediatype>
							<trackindex>1</trackindex>
							<clipindex>16</clipindex>
							<groupindex>1</groupindex>
						</link>
						<link>
							<linkclipref>clipitem-286</linkclipref>
							<mediatype>audio</mediatype>
							<trackindex>2</trackindex>
							<clipindex>16</clipindex>
							<groupindex>1</groupindex>
						</link>
					</clipitem>
					<clipitem id="clipitem-17">
						<masterclipid>masterclip-2</masterclipid>
						<name>out</name>
						<start>669</start>
						<end>696</end>
						<in>5919</in>
						<out>5946</out>
						<file id="file-1" />
						<link>
							<linkclipref>clipitem-17</linkclipref>
							<mediatype>video</mediatype>
							<trackindex>1</trackindex>
							<clipindex>17</clipindex>
						</link>
						<link>
							<linkclipref>clipitem-152</linkclipref>
							<mediatype>audio</mediatype>
							<trackindex>1</trackindex>
							<clipindex>17</clipindex>
							<groupindex>1</groupindex>
						</link>
						<link>
							<linkclipref>clipitem-287</linkclipref>
							<mediatype>audio</mediatype>
							<trackindex>2</trackindex>
							<clipindex>17</clipindex>
							<groupindex>1</groupindex>
						</link>
					</clipitem>
					<clipitem id="clipitem-18">
						<masterclipid>masterclip-2</masterclipid>
						<name>out</name>
						<start>696</start>
						<end>723</end>
						<in>6145</in>
						<out>6172</out>
						<file id="file-1" />
						<link>
							<linkclipref>clipitem-18</linkclipref>
							<mediatype>video</mediatype>
							<trackindex>1</trackindex>
							<clipindex>18</clipindex>
						</link>
						<link>
							<linkclipref>clipitem-153</linkclipref>
							<mediatype>audio</mediatype>
							<trackindex>1</trackindex>
							<clipindex>18</clipindex>
							<groupindex>1</groupindex>
						</link>
						<link>
							<linkclipref>clipitem-288</linkclipref>
							<mediatype>audio</mediatype>
							<trackindex>2</trackindex>
							<clipindex>18</clipindex>
							<groupindex>1</groupindex>
						</link>
					</clipitem>
					<clipitem id="clipitem-19">
						<masterclipid>masterclip-2</masterclipid>
						<name>out</name>
						<start>723</start>
						<end>750</end>
						<in>6822</in>
						<out>6849</out>
						<file id="file-1" />
						<link>
							<linkclipref>clipitem-19</linkclipref>
							<mediatype>video</mediatype>
							<trackindex>1</trackindex>
							<clipindex>19</clipindex>
						</link>
						<link>
							<linkclipref>clipitem-154</linkclipref>
							<mediatype>audio</mediatype>
							<trackindex>1</trackindex>
							<clipindex>19</clipindex>
							<groupindex>1</groupindex>
						</link>
						<link>
							<linkclipref>clipitem-289</linkclipref>
							<mediatype>audio</mediatype>
							<trackindex>2</trackindex>
							<clipindex>19</clipindex>
							<groupindex>1</groupindex>
						</link>
					</clipitem>
					<clipitem id="clipitem-20">
						<masterclipid>masterclip-2</masterclipid>
						<name>out</name>
						<start>750</start>
						<end>777</end>
						<in>6928</in>
						<out>6955</out>
						<file id="file-1" />
						<link>
							<linkclipref>clipitem-20</linkclipref>
							<mediatype>video</mediatype>
							<trackindex>1</trackindex>
							<clipindex>20</clipindex>
						</link>
						<link>
							<linkclipref>clipitem-155</linkclipref>
							<mediatype>audio</mediatype>
							<trackindex>1</trackindex>
							<clipindex>20</clipindex>
							<groupindex>1</groupindex>
						</link>
						<link>
							<linkclipref>clipitem-290</linkclipref>
							<mediatype>audio</mediatype>
							<trackindex>2</trackindex>
							<clipindex>20</clipindex>
							<groupindex>1</groupindex>
						</link>
					</clipitem>
					<clipitem id="clipitem-21">
						<masterclipid>masterclip-2</masterclipid>
						<name>out</name>
						<start>777</start>
						<end>807</end>
						<in>7122</in>
						<out>7152</out>
						<file id="file-1" />
						<link>
							<linkclipref>clipitem-21</linkclipref>
							<mediatype>video</mediatype>
							<trackindex>1</trackindex>
							<clipindex>21</clipindex>
						</link>
						<link>
							<linkclipref>clipitem-156</linkclipref>
							<mediatype>audio</mediatype>
							<trackindex>1</trackindex>
							<clipindex>21</clipindex>
							<groupindex>1</groupindex>
						</link>
						<link>
							<linkclipref>clipitem-291</linkclipref>
							<mediatype>audio</mediatype>
							<trackindex>2</trackindex>
							<clipindex>21</clipindex>
							<groupindex>1</groupindex>
						</link>
					</clipitem>
					<clipitem id="clipitem-22">
						<masterclipid>masterclip-2</masterclipid>
						<name>out</name>
						<start>807</start>
						<end>834</end>
						<in>7299</in>
						<out>7326</out>
						<file id="file-1" />
						<link>
							<linkclipref>clipitem-22</linkclipref>
							<mediatype>video</mediatype>
							<trackindex>1</trackindex>
							<clipindex>22</clipindex>
						</link>
						<link>
							<linkclipref>clipitem-157</linkclipref>
							<mediatype>audio</mediatype>
							<trackindex>1</trackindex>
							<clipindex>22</clipindex>
							<groupindex>1</groupindex>
						</link>
						<link>
							<linkclipref>clipitem-292</linkclipref>
							<mediatype>audio</mediatype>
							<trackindex>2</trackindex>
							<clipindex>22</clipindex>
							<groupindex>1</groupindex>
						</link>
					</clipitem>
					<clipitem id="clipitem-23">
						<masterclipid>masterclip-2</masterclipid>
						<name>out</name>
						<start>834</start>
						<end>861</end>
						<in>7666</in>
						<out>7693</out>
						<file id="file-1" />
						<link>
							<linkclipref>clipitem-23</linkclipref>
							<mediatype>video</mediatype>
							<trackindex>1</trackindex>
							<clipindex>23</clipindex>
						</link>
						<link>
							<linkclipref>clipitem-158</linkclipref>
							<mediatype>audio</mediatype>
							<trackindex>1</trackindex>
							<clipindex>23</clipindex>
							<groupindex>1</groupindex>
						</link>
						<link>
							<linkclipref>clipitem-293</linkclipref>
							<mediatype>audio</mediatype>
							<trackindex>2</trackindex>
							<clipindex>23</clipindex>
							<groupindex>1</groupindex>
						</link>
					</clipitem>
					<clipitem id="clipitem-24">
						<masterclipid>masterclip-2</masterclipid>
						<name>out</name>
						<start>861</start>
						<end>898</end>
						<in>9405</in>
						<out>9442</out>
						<file id="file-1" />
						<link>
							<linkclipref>clipitem-24</linkclipref>
							<mediatype>video</mediatype>
							<trackindex>1</trackindex>
							<clipindex>24</clipindex>
						</link>
						<link>
							<linkclipref>clipitem-159</linkclipref>
							<mediatype>audio</mediatype>
							<trackindex>1</trackindex>
							<clipindex>24</clipindex>
							<groupindex>1</groupindex>
						</link>
						<link>
							<linkclipref>clipitem-294</linkclipref>
							<mediatype>audio</mediatype>
							<trackindex>2</trackindex>
							<clipindex>24</clipindex>
							<groupindex>1</groupindex>
						</link>
					</clipitem>
					<clipitem id="clipitem-25">
						<masterclipid>masterclip-2</masterclipid>
						<name>out</name>
						<start>898</start>
						<end>925</end>
						<in>9589</in>
						<out>9616</out>
						<file id="file-1" />
						<link>
							<linkclipref>clipitem-25</linkclipref>
							<mediatype>video</mediatype>
							<trackindex>1</trackindex>
							<clipindex>25</clipindex>
						</link>
						<link>
							<linkclipref>clipitem-160</linkclipref>
							<mediatype>audio</mediatype>
							<trackindex>1</trackindex>
							<clipindex>25</clipindex>
							<groupindex>1</groupindex>
						</link>
						<link>
							<linkclipref>clipitem-295</linkclipref>
							<mediatype>audio</mediatype>
							<trackindex>2</trackindex>
							<clipindex>25</clipindex>
							<groupindex>1</groupindex>
						</link>
					</clipitem>
					<clipitem id="clipitem-26">
						<masterclipid>masterclip-2</masterclipid>
						<name>out</name>
						<start>925</start>
						<end>952</end>
						<in>9666</in>
						<out>9693</out>
						<file id="file-1" />
						<link>
							<linkclipref>clipitem-26</linkclipref>
							<mediatype>video</mediatype>
							<trackindex>1</trackindex>
							<clipindex>26</clipindex>
						</link>
						<link>
							<linkclipref>clipitem-161</linkclipref>
							<mediatype>audio</mediatype>
							<trackindex>1</trackindex>
							<clipindex>26</clipindex>
							<groupindex>1</groupindex>
						</link>
						<link>
							<linkclipref>clipitem-296</linkclipref>
							<mediatype>audio</mediatype>
							<trackindex>2</trackindex>
							<clipindex>26</clipindex>
							<groupindex>1</groupindex>
						</link>
					</clipitem>
					<clipitem id="clipitem-27">
						<masterclipid>masterclip-2</masterclipid>
						<name>out</name>
						<start>952</start>
						<end>980</end>
						<in>9781</in>
						<out>9809</out>
						<file id="file-1" />
						<link>
							<linkclipref>clipitem-27</linkclipref>
							<mediatype>video</mediatype>
							<trackindex>1</trackindex>
							<clipindex>27</clipindex>
						</link>
						<link>
							<linkclipref>clipitem-162</linkclipref>
							<mediatype>audio</mediatype>
							<trackindex>1</trackindex>
							<clipindex>27</clipindex>
							<groupindex>1</groupindex>
						</link>
						<link>
							<linkclipref>clipitem-297</linkclipref>
							<mediatype>audio</mediatype>
							<trackindex>2</trackindex>
							<clipindex>27</clipindex>
							<groupindex>1</groupindex>
						</link>
					</clipitem>
					<clipitem id="clipitem-28">
						<masterclipid>masterclip-2</masterclipid>
						<name>out</name>
						<start>980</start>
						<end>1007</end>
						<in>10130</in>
						<out>10157</out>
						<file id="file-1" />
						<link>
							<linkclipref>clipitem-28</linkclipref>
							<mediatype>video</mediatype>
							<trackindex>1</trackindex>
							<clipindex>28</clipindex>
						</link>
						<link>
							<linkclipref>clipitem-163</linkclipref>
							<mediatype>audio</mediatype>
							<trackindex>1</trackindex>
							<clipindex>28</clipindex>
							<groupindex>1</groupindex>
						</link>
						<link>
							<linkclipref>clipitem-298</linkclipref>
							<mediatype>audio</mediatype>
							<trackindex>2</trackindex>
							<clipindex>28</clipindex>
							<groupindex>1</groupindex>
						</link>
					</clipitem>
					<clipitem id="clipitem-29">
						<masterclipid>masterclip-2</masterclipid>
						<name>out</name>
						<start>1007</start>
						<end>1035</end>
						<in>10199</in>
						<out>10227</out>
						<file id="file-1" />
						<link>
							<linkclipref>clipitem-29</linkclipref>
							<mediatype>video</mediatype>
							<trackindex>1</trackindex>
							<clipindex>29</clipindex>
						</link>
						<link>
							<linkclipref>clipitem-164</linkclipref>
							<mediatype>audio</mediatype>
							<trackindex>1</trackindex>
							<clipindex>29</clipindex>
							<groupindex>1</groupindex>
						</link>
						<link>
							<linkclipref>clipitem-299</linkclipref>
							<mediatype>audio</mediatype>
							<trackindex>2</trackindex>
							<clipindex>29</clipindex>
							<groupindex>1</groupindex>
						</link>
					</clipitem>
					<clipitem id="clipitem-30">
						<masterclipid>masterclip-2</masterclipid>
						<name>out</name>
						<start>1035</start>
						<end>1062</end>
						<in>10311</in>
						<out>10338</out>
						<file id="file-1" />
						<link>
							<linkclipref>clipitem-30</linkclipref>
							<mediatype>video</mediatype>
							<trackindex>1</trackindex>
							<clipindex>30</clipindex>
						</link>
						<link>
							<linkclipref>clipitem-165</linkclipref>
							<mediatype>audio</mediatype>
							<trackindex>1</trackindex>
							<clipindex>30</clipindex>
							<groupindex>1</groupindex>
						</link>
						<link>
							<linkclipref>clipitem-300</linkclipref>
							<mediatype>audio</mediatype>
							<trackindex>2</trackindex>
							<clipindex>30</clipindex>
							<groupindex>1</groupindex>
						</link>
					</clipitem>
					<clipitem id="clipitem-31">
						<masterclipid>masterclip-2</masterclipid>
						<name>out</name>
						<start>1062</start>
						<end>1091</end>
						<in>10355</in>
						<out>10384</out>
						<file id="file-1" />
						<link>
							<linkclipref>clipitem-31</linkclipref>
							<mediatype>video</mediatype>
							<trackindex>1</trackindex>
							<clipindex>31</clipindex>
						</link>
						<link>
							<linkclipref>clipitem-166</linkclipref>
							<mediatype>audio</mediatype>
							<trackindex>1</trackindex>
							<clipindex>31</clipindex>
							<groupindex>1</groupindex>
						</link>
						<link>
							<linkclipref>clipitem-301</linkclipref>
							<mediatype>audio</mediatype>
							<trackindex>2</trackindex>
							<clipindex>31</clipindex>
							<groupindex>1</groupindex>
						</link>
					</clipitem>
					<clipitem id="clipitem-32">
						<masterclipid>masterclip-2</masterclipid>
						<name>out</name>
						<start>1091</start>
						<end>1118</end>
						<in>10765</in>
						<out>10792</out>
						<file id="file-1" />
						<link>
							<linkclipref>clipitem-32</linkclipref>
							<mediatype>video</mediatype>
							<trackindex>1</trackindex>
							<clipindex>32</clipindex>
						</link>
						<link>
							<linkclipref>clipitem-167</linkclipref>
							<mediatype>audio</mediatype>
							<trackindex>1</trackindex>
							<clipindex>32</clipindex>
							<groupindex>1</groupindex>
						</link>
						<link>
							<linkclipref>clipitem-302</linkclipref>
							<mediatype>audio</mediatype>
							<trackindex>2</trackindex>
							<clipindex>32</clipindex>
							<groupindex>1</groupindex>
						</link>
					</clipitem>
					<clipitem id="clipitem-33">
						<masterclipid>masterclip-2</masterclipid>
						<name>out</name>
						<start>1118</start>
						<end>1146</end>
						<in>10849</in>
						<out>10877</out>
						<file id="file-1" />
						<link>
							<linkclipref>clipitem-33</linkclipref>
							<mediatype>video</mediatype>
							<trackindex>1</trackindex>
							<clipindex>33</clipindex>
						</link>
						<link>
							<linkclipref>clipitem-168</linkclipref>
							<mediatype>audio</mediatype>
							<trackindex>1</trackindex>
							<clipindex>33</clipindex>
							<groupindex>1</groupindex>
						</link>
						<link>
							<linkclipref>clipitem-303</linkclipref>
							<mediatype>audio</mediatype>
							<trackindex>2</trackindex>
							<clipindex>33</clipindex>
							<groupindex>1</groupindex>
						</link>
					</clipitem>
					<clipitem id="clipitem-34">
						<masterclipid>masterclip-2</masterclipid>
						<name>out</name>
						<start>1146</start>
						<end>1176</end>
						<in>10911</in>
						<out>10941</out>
						<file id="file-1" />
						<link>
							<linkclipref>clipitem-34</linkclipref>
							<mediatype>video</mediatype>
							<trackindex>1</trackindex>
							<clipindex>34</clipindex>
						</link>
						<link>
							<linkclipref>clipitem-169</linkclipref>
							<mediatype>audio</mediatype>
							<trackindex>1</trackindex>
							<clipindex>34</clipindex>
							<groupindex>1</groupindex>
						</link>
						<link>
							<linkclipref>clipitem-304</linkclipref>
							<mediatype>audio</mediatype>
							<trackindex>2</trackindex>
							<clipindex>34</clipindex>
							<groupindex>1</groupindex>
						</link>
					</clipitem>
					<clipitem id="clipitem-35">
						<masterclipid>masterclip-2</masterclipid>
						<name>out</name>
						<start>1176</start>
						<end>1204</end>
						<in>11258</in>
						<out>11286</out>
						<file id="file-1" />
						<link>
							<linkclipref>clipitem-35</linkclipref>
							<mediatype>video</mediatype>
							<trackindex>1</trackindex>
							<clipindex>35</clipindex>
						</link>
						<link>
							<linkclipref>clipitem-170</linkclipref>
							<mediatype>audio</mediatype>
							<trackindex>1</trackindex>
							<clipindex>35</clipindex>
							<groupindex>1</groupindex>
						</link>
						<link>
							<linkclipref>clipitem-305</linkclipref>
							<mediatype>audio</mediatype>
							<trackindex>2</trackindex>
							<clipindex>35</clipindex>
							<groupindex>1</groupindex>
						</link>
					</clipitem>
					<clipitem id="clipitem-36">
						<masterclipid>masterclip-2</masterclipid>
						<name>out</name>
						<start>1204</start>
						<end>1231</end>
						<in>11344</in>
						<out>11371</out>
						<file id="file-1" />
						<link>
							<linkclipref>clipitem-36</linkclipref>
							<mediatype>video</mediatype>
							<trackindex>1</trackindex>
							<clipindex>36</clipindex>
						</link>
						<link>
							<linkclipref>clipitem-171</linkclipref>
							<mediatype>audio</mediatype>
							<trackindex>1</trackindex>
							<clipindex>36</clipindex>
							<groupindex>1</groupindex>
						</link>
						<link>
							<linkclipref>clipitem-306</linkclipref>
							<mediatype>audio</mediatype>
							<trackindex>2</trackindex>
							<clipindex>36</clipindex>
							<groupindex>1</groupindex>
						</link>
					</clipitem>
					<clipitem id="clipitem-37">
						<masterclipid>masterclip-2</masterclipid>
						<name>out</name>
						<start>1231</start>
						<end>1258</end>
						<in>11449</in>
						<out>11476</out>
						<file id="file-1" />
						<link>
							<linkclipref>clipitem-37</linkclipref>
							<mediatype>video</mediatype>
							<trackindex>1</trackindex>
							<clipindex>37</clipindex>
						</link>
						<link>
							<linkclipref>clipitem-172</linkclipref>
							<mediatype>audio</mediatype>
							<trackindex>1</trackindex>
							<clipindex>37</clipindex>
							<groupindex>1</groupindex>
						</link>
						<link>
							<linkclipref>clipitem-307</linkclipref>
							<mediatype>audio</mediatype>
							<trackindex>2</trackindex>
							<clipindex>37</clipindex>
							<groupindex>1</groupindex>
						</link>
					</clipitem>
					<clipitem id="clipitem-38">
						<masterclipid>masterclip-2</masterclipid>
						<name>out</name>
						<start>1258</start>
						<end>1286</end>
						<in>11564</in>
						<out>11592</out>
						<file id="file-1" />
						<link>
							<linkclipref>clipitem-38</linkclipref>
							<mediatype>video</mediatype>
							<trackindex>1</trackindex>
							<clipindex>38</clipindex>
						</link>
						<link>
							<linkclipref>clipitem-173</linkclipref>
							<mediatype>audio</mediatype>
							<trackindex>1</trackindex>
							<clipindex>38</clipindex>
							<groupindex>1</groupindex>
						</link>
						<link>
							<linkclipref>clipitem-308</linkclipref>
							<mediatype>audio</mediatype>
							<trackindex>2</trackindex>
							<clipindex>38</clipindex>
							<groupindex>1</groupindex>
						</link>
					</clipitem>
					<clipitem id="clipitem-39">
						<masterclipid>masterclip-2</masterclipid>
						<name>out</name>
						<start>1286</start>
						<end>1313</end>
						<in>11669</in>
						<out>11696</out>
						<file id="file-1" />
						<link>
							<linkclipref>clipitem-39</linkclipref>
							<mediatype>video</mediatype>
							<trackindex>1</trackindex>
							<clipindex>39</clipindex>
						</link>
						<link>
							<linkclipref>clipitem-174</linkclipref>
							<mediatype>audio</mediatype>
							<trackindex>1</trackindex>
							<clipindex>39</clipindex>
							<groupindex>1</groupindex>
						</link>
						<link>
							<linkclipref>clipitem-309</linkclipref>
							<mediatype>audio</mediatype>
							<trackindex>2</trackindex>
							<clipindex>39</clipindex>
							<groupindex>1</groupindex>
						</link>
					</clipitem>
					<clipitem id="clipitem-40">
						<masterclipid>masterclip-2</masterclipid>
						<name>out</name>
						<start>1313</start>
						<end>1346</end>
						<in>11998</in>
						<out>12031</out>
						<file id="file-1" />
						<link>
							<linkclipref>clipitem-40</linkclipref>
							<mediatype>video</mediatype>
							<trackindex>1</trackindex>
							<clipindex>40</clipindex>
						</link>
						<link>
							<linkclipref>clipitem-175</linkclipref>
							<mediatype>audio</mediatype>
							<trackindex>1</trackindex>
							<clipindex>40</clipindex>
							<groupindex>1</groupindex>
						</link>
						<link>
							<linkclipref>clipitem-310</linkclipref>
							<mediatype>audio</mediatype>
							<trackindex>2</trackindex>
							<clipindex>40</clipindex>
							<groupindex>1</groupindex>
						</link>
					</clipitem>
					<clipitem id="clipitem-41">
						<masterclipid>masterclip-2</masterclipid>
						<name>out</name>
						<start>1346</start>
						<end>1373</end>
						<in>12152</in>
						<out>12179</out>
						<file id="file-1" />
						<link>
							<linkclipref>clipitem-41</linkclipref>
							<mediatype>video</mediatype>
							<trackindex>1</trackindex>
							<clipindex>41</clipindex>
						</link>
						<link>
							<linkclipref>clipitem-176</linkclipref>
							<mediatype>audio</mediatype>
							<trackindex>1</trackindex>
							<clipindex>41</clipindex>
							<groupindex>1</groupindex>
						</link>
						<link>
							<linkclipref>clipitem-311</linkclipref>
							<mediatype>audio</mediatype>
							<trackindex>2</trackindex>
							<clipindex>41</clipindex>
							<groupindex>1</groupindex>
						</link>
					</clipitem>
					<clipitem id="clipitem-42">
						<masterclipid>masterclip-2</masterclipid>
						<name>out</name>
						<start>1373</start>
						<end>1400</end>
						<in>12512</in>
						<out>12539</out>
						<file id="file-1" />
						<link>
							<linkclipref>clipitem-42</linkclipref>
							<mediatype>video</mediatype>
							<trackindex>1</trackindex>
							<clipindex>42</clipindex>
						</link>
						<link>
							<linkclipref>clipitem-177</linkclipref>
							<mediatype>audio</mediatype>
							<trackindex>1</trackindex>
							<clipindex>42</clipindex>
							<groupindex>1</groupindex>
						</link>
						<link>
							<linkclipref>clipitem-312</linkclipref>
							<mediatype>audio</mediatype>
							<trackindex>2</trackindex>
							<clipindex>42</clipindex>
							<groupindex>1</groupindex>
						</link>
					</clipitem>
					<clipitem id="clipitem-43">
						<masterclipid>masterclip-2</masterclipid>
						<name>out</name>
						<start>1400</start>
						<end>1427</end>
						<in>12844</in>
						<out>12871</out>
						<file id="file-1" />
						<link>
							<linkclipref>clipitem-43</linkclipref>
							<mediatype>video</mediatype>
							<trackindex>1</trackindex>
							<clipindex>43</clipindex>
						</link>
						<link>
							<linkclipref>clipitem-178</linkclipref>
							<mediatype>audio</mediatype>
							<trackindex>1</trackindex>
							<clipindex>43</clipindex>
							<groupindex>1</groupindex>
						</link>
						<link>
							<linkclipref>clipitem-313</linkclipref>
							<mediatype>audio</mediatype>
							<trackindex>2</trackindex>
							<clipindex>43</clipindex>
							<groupindex>1</groupindex>
						</link>
					</clipitem>
					<clipitem id="clipitem-44">
						<masterclipid>masterclip-2</masterclipid>
						<name>out</name>
						<start>1427</start>
						<end>1456</end>
						<in>13206</in>
						<out>13235</out>
						<file id="file-1" />
						<link>
							<linkclipref>clipitem-44</linkclipref>
							<mediatype>video</mediatype>
							<trackindex>1</trackindex>
							<clipindex>44</clipindex>
						</link>
						<link>
							<linkclipref>clipitem-179</linkclipref>
							<mediatype>audio</mediatype>
							<trackindex>1</trackindex>
							<clipindex>44</clipindex>
							<groupindex>1</groupindex>
						</link>
						<link>
							<linkclipref>clipitem-314</linkclipref>
							<mediatype>audio</mediatype>
							<trackindex>2</trackindex>
							<clipindex>44</clipindex>
							<groupindex>1</groupindex>
						</link>
					</clipitem>
					<clipitem id="clipitem-45">
						<masterclipid>masterclip-2</masterclipid>
						<name>out</name>
						<start>1456</start>
						<end>1483</end>
						<in>13310</in>
						<out>13337</out>
						<file id="file-1" />
						<link>
							<linkclipref>clipitem-45</linkclipref>
							<mediatype>video</mediatype>
							<trackindex>1</trackindex>
							<clipindex>45</clipindex>
						</link>
						<link>
							<linkclipref>clipitem-180</linkclipref>
							<mediatype>audio</mediatype>
							<trackindex>1</trackindex>
							<clipindex>45</clipindex>
							<groupindex>1</groupindex>
						</link>
						<link>
							<linkclipref>clipitem-315</linkclipref>
							<mediatype>audio</mediatype>
							<trackindex>2</trackindex>
							<clipindex>45</clipindex>
							<groupindex>1</groupindex>
						</link>
					</clipitem>
					<clipitem id="clipitem-46">
						<masterclipid>masterclip-2</masterclipid>
						<name>out</name>
						<start>1483</start>
						<end>1510</end>
						<in>13428</in>
						<out>13455</out>
						<file id="file-1" />
						<link>
							<linkclipref>clipitem-46</linkclipref>
							<mediatype>video</mediatype>
							<trackindex>1</trackindex>
							<clipindex>46</clipindex>
						</link>
						<link>
							<linkclipref>clipitem-181</linkclipref>
							<mediatype>audio</mediatype>
							<trackindex>1</trackindex>
							<clipindex>46</clipindex>
							<groupindex>1</groupindex>
						</link>
						<link>
							<linkclipref>clipitem-316</linkclipref>
							<mediatype>audio</mediatype>
							<trackindex>2</trackindex>
							<clipindex>46</clipindex>
							<groupindex>1</groupindex>
						</link>
					</clipitem>
					<clipitem id="clipitem-47">
						<masterclipid>masterclip-2</masterclipid>
						<name>out</name>
						<start>1510</start>
						<end>1537</end>
						<in>13704</in>
						<out>13731</out>
						<file id="file-1" />
						<link>
							<linkclipref>clipitem-47</linkclipref>
							<mediatype>video</mediatype>
							<trackindex>1</trackindex>
							<clipindex>47</clipindex>
						</link>
						<link>
							<linkclipref>clipitem-182</linkclipref>
							<mediatype>audio</mediatype>
							<trackindex>1</trackindex>
							<clipindex>47</clipindex>
							<groupindex>1</groupindex>
						</link>
						<link>
							<linkclipref>clipitem-317</linkclipref>
							<mediatype>audio</mediatype>
							<trackindex>2</trackindex>
							<clipindex>47</clipindex>
							<groupindex>1</groupindex>
						</link>
					</clipitem>
					<clipitem id="clipitem-48">
						<masterclipid>masterclip-2</masterclipid>
						<name>out</name>
						<start>1537</start>
						<end>1566</end>
						<in>13944</in>
						<out>13973</out>
						<file id="file-1" />
						<link>
							<linkclipref>clipitem-48</linkclipref>
							<mediatype>video</mediatype>
							<trackindex>1</trackindex>
							<clipindex>48</clipindex>
						</link>
						<link>
							<linkclipref>clipitem-183</linkclipref>
							<mediatype>audio</mediatype>
							<trackindex>1</trackindex>
							<clipindex>48</clipindex>
							<groupindex>1</groupindex>
						</link>
						<link>
							<linkclipref>clipitem-318</linkclipref>
							<mediatype>audio</mediatype>
							<trackindex>2</trackindex>
							<clipindex>48</clipindex>
							<groupindex>1</groupindex>
						</link>
					</clipitem>
					<clipitem id="clipitem-49">
						<masterclipid>masterclip-2</masterclipid>
						<name>out</name>
						<start>1566</start>
						<end>1593</end>
						<in>14103</in>
						<out>14130</out>
						<file id="file-1" />
						<link>
							<linkclipref>clipitem-49</linkclipref>
							<mediatype>video</mediatype>
							<trackindex>1</trackindex>
							<clipindex>49</clipindex>
						</link>
						<link>
							<linkclipref>clipitem-184</linkclipref>
							<mediatype>audio</mediatype>
							<trackindex>1</trackindex>
							<clipindex>49</clipindex>
							<groupindex>1</groupindex>
						</link>
						<link>
							<linkclipref>clipitem-319</linkclipref>
							<mediatype>audio</mediatype>
							<trackindex>2</trackindex>
							<clipindex>49</clipindex>
							<groupindex>1</groupindex>
						</link>
					</clipitem>
					<clipitem id="clipitem-50">
						<masterclipid>masterclip-2</masterclipid>
						<name>out</name>
						<start>1593</start>
						<end>1621</end>
						<in>14141</in>
						<out>14169</out>
						<file id="file-1" />
						<link>
							<linkclipref>clipitem-50</linkclipref>
							<mediatype>video</mediatype>
							<trackindex>1</trackindex>
							<clipindex>50</clipindex>
						</link>
						<link>
							<linkclipref>clipitem-185</linkclipref>
							<mediatype>audio</mediatype>
							<trackindex>1</trackindex>
							<clipindex>50</clipindex>
							<groupindex>1</groupindex>
						</link>
						<link>
							<linkclipref>clipitem-320</linkclipref>
							<mediatype>audio</mediatype>
							<trackindex>2</trackindex>
							<clipindex>50</clipindex>
							<groupindex>1</groupindex>
						</link>
					</clipitem>
					<clipitem id="clipitem-51">
						<masterclipid>masterclip-2</masterclipid>
						<name>out</name>
						<start>1621</start>
						<end>1726</end>
						<in>14190</in>
						<out>14295</out>
						<file id="file-1" />
						<link>
							<linkclipref>clipitem-51</linkclipref>
							<mediatype>video</mediatype>
							<trackindex>1</trackindex>
							<clipindex>51</clipindex>
						</link>
						<link>
							<linkclipref>clipitem-186</linkclipref>
							<mediatype>audio</mediatype>
							<trackindex>1</trackindex>
							<clipindex>51</clipindex>
							<groupindex>1</groupindex>
						</link>
						<link>
							<linkclipref>clipitem-321</linkclipref>
							<mediatype>audio</mediatype>
							<trackindex>2</trackindex>
							<clipindex>51</clipindex>
							<groupindex>1</groupindex>
						</link>
					</clipitem>
					<clipitem id="clipitem-52">
						<masterclipid>masterclip-2</masterclipid>
						<name>out</name>
						<start>1726</start>
						<end>1784</end>
						<in>14321</in>
						<out>14379</out>
						<file id="file-1" />
						<link>
							<linkclipref>clipitem-52</linkclipref>
							<mediatype>video</mediatype>
							<trackindex>1</trackindex>
							<clipindex>52</clipindex>
						</link>
						<link>
							<linkclipref>clipitem-187</linkclipref>
							<mediatype>audio</mediatype>
							<trackindex>1</trackindex>
							<clipindex>52</clipindex>
							<groupindex>1</groupindex>
						</link>
						<link>
							<linkclipref>clipitem-322</linkclipref>
							<mediatype>audio</mediatype>
							<trackindex>2</trackindex>
							<clipindex>52</clipindex>
							<groupindex>1</groupindex>
						</link>
					</clipitem>
					<clipitem id="clipitem-53">
						<masterclipid>masterclip-2</masterclipid>
						<name>out</name>
						<start>1784</start>
						<end>1812</end>
						<in>14409</in>
						<out>14437</out>
						<file id="file-1" />
						<link>
							<linkclipref>clipitem-53</linkclipref>
							<mediatype>video</mediatype>
							<trackindex>1</trackindex>
							<clipindex>53</clipindex>
						</link>
						<link>
							<linkclipref>clipitem-188</linkclipref>
							<mediatype>audio</mediatype>
							<trackindex>1</trackindex>
							<clipindex>53</clipindex>
							<groupindex>1</groupindex>
						</link>
						<link>
							<linkclipref>clipitem-323</linkclipref>
							<mediatype>audio</mediatype>
							<trackindex>2</trackindex>
							<clipindex>53</clipindex>
							<groupindex>1</groupindex>
						</link>
					</clipitem>
					<clipitem id="clipitem-54">
						<masterclipid>masterclip-2</masterclipid>
						<name>out</name>
						<start>1812</start>
						<end>1891</end>
						<in>14459</in>
						<out>14538</out>
						<file id="file-1" />
						<link>
							<linkclipref>clipitem-54</linkclipref>
							<mediatype>video</mediatype>
							<trackindex>1</trackindex>
							<clipindex>54</clipindex>
						</link>
						<link>
							<linkclipref>clipitem-189</linkclipref>
							<mediatype>audio</mediatype>
							<trackindex>1</trackindex>
							<clipindex>54</clipindex>
							<groupindex>1</groupindex>
						</link>
						<link>
							<linkclipref>clipitem-324</linkclipref>
							<mediatype>audio</mediatype>
							<trackindex>2</trackindex>
							<clipindex>54</clipindex>
							<groupindex>1</groupindex>
						</link>
					</clipitem>
					<clipitem id="clipitem-55">
						<masterclipid>masterclip-2</masterclipid>
						<name>out</name>
						<start>1891</start>
						<end>1925</end>
						<in>14553</in>
						<out>14587</out>
						<file id="file-1" />
						<link>
							<linkclipref>clipitem-55</linkclipref>
							<mediatype>video</mediatype>
							<trackindex>1</trackindex>
							<clipindex>55</clipindex>
						</link>
						<link>
							<linkclipref>clipitem-190</linkclipref>
							<mediatype>audio</mediatype>
							<trackindex>1</trackindex>
							<clipindex>55</clipindex>
							<groupindex>1</groupindex>
						</link>
						<link>
							<linkclipref>clipitem-325</linkclipref>
							<mediatype>audio</mediatype>
							<trackindex>2</trackindex>
							<clipindex>55</clipindex>
							<groupindex>1</groupindex>
						</link>
					</clipitem>
					<clipitem id="clipitem-56">
						<masterclipid>masterclip-2</masterclipid>
						<name>out</name>
						<start>1925</start>
						<end>1966</end>
						<in>14706</in>
						<out>14747</out>
						<file id="file-1" />
						<link>
							<linkclipref>clipitem-56</linkclipref>
							<mediatype>video</mediatype>
							<trackindex>1</trackindex>
							<clipindex>56</clipindex>
						</link>
						<link>
							<linkclipref>clipitem-191</linkclipref>
							<mediatype>audio</mediatype>
							<trackindex>1</trackindex>
							<clipindex>56</clipindex>
							<groupindex>1</groupindex>
						</link>
						<link>
							<linkclipref>clipitem-326</linkclipref>
							<mediatype>audio</mediatype>
							<trackindex>2</trackindex>
							<clipindex>56</clipindex>
							<groupindex>1</groupindex>
						</link>
					</clipitem>
					<clipitem id="clipitem-57">
						<masterclipid>masterclip-2</masterclipid>
						<name>out</name>
						<start>1966</start>
						<end>2020</end>
						<in>14818</in>
						<out>14872</out>
						<file id="file-1" />
						<link>
							<linkclipref>clipitem-57</linkclipref>
							<mediatype>video</mediatype>
							<trackindex>1</trackindex>
							<clipindex>57</clipindex>
						</link>
						<link>
							<linkclipref>clipitem-192</linkclipref>
							<mediatype>audio</mediatype>
							<trackindex>1</trackindex>
							<clipindex>57</clipindex>
							<groupindex>1</groupindex>
						</link>
						<link>
							<linkclipref>clipitem-327</linkclipref>
							<mediatype>audio</mediatype>
							<trackindex>2</trackindex>
							<clipindex>57</clipindex>
							<groupindex>1</groupindex>
						</link>
					</clipitem>
					<clipitem id="clipitem-58">
						<masterclipid>masterclip-2</masterclipid>
						<name>out</name>
						<start>2020</start>
						<end>2050</end>
						<in>14899</in>
						<out>14929</out>
						<file id="file-1" />
						<link>
							<linkclipref>clipitem-58</linkclipref>
							<mediatype>video</mediatype>
							<trackindex>1</trackindex>
							<clipindex>58</clipindex>
						</link>
						<link>
							<linkclipref>clipitem-193</linkclipref>
							<mediatype>audio</mediatype>
							<trackindex>1</trackindex>
							<clipindex>58</clipindex>
							<groupindex>1</groupindex>
						</link>
						<link>
							<linkclipref>clipitem-328</linkclipref>
							<mediatype>audio</mediatype>
							<trackindex>2</trackindex>
							<clipindex>58</clipindex>
							<groupindex>1</groupindex>
						</link>
					</clipitem>
					<clipitem id="clipitem-59">
						<masterclipid>masterclip-2</masterclipid>
						<name>out</name>
						<start>2050</start>
						<end>2078</end>
						<in>15365</in>
						<out>15393</out>
						<file id="file-1" />
						<link>
							<linkclipref>clipitem-59</linkclipref>
							<mediatype>video</mediatype>
							<trackindex>1</trackindex>
							<clipindex>59</clipindex>
						</link>
						<link>
							<linkclipref>clipitem-194</linkclipref>
							<mediatype>audio</mediatype>
							<trackindex>1</trackindex>
							<clipindex>59</clipindex>
							<groupindex>1</groupindex>
						</link>
						<link>
							<linkclipref>clipitem-329</linkclipref>
							<mediatype>audio</mediatype>
							<trackindex>2</trackindex>
							<clipindex>59</clipindex>
							<groupindex>1</groupindex>
						</link>
					</clipitem>
					<clipitem id="clipitem-60">
						<masterclipid>masterclip-2</masterclipid>
						<name>out</name>
						<start>2078</start>
						<end>2105</end>
						<in>15557</in>
						<out>15584</out>
						<file id="file-1" />
						<link>
							<linkclipref>clipitem-60</linkclipref>
							<mediatype>video</mediatype>
							<trackindex>1</trackindex>
							<clipindex>60</clipindex>
						</link>
						<link>
							<linkclipref>clipitem-195</linkclipref>
							<mediatype>audio</mediatype>
							<trackindex>1</trackindex>
							<clipindex>60</clipindex>
							<groupindex>1</groupindex>
						</link>
						<link>
							<linkclipref>clipitem-330</linkclipref>
							<mediatype>audio</mediatype>
							<trackindex>2</trackindex>
							<clipindex>60</clipindex>
							<groupindex>1</groupindex>
						</link>
					</clipitem>
					<clipitem id="clipitem-61">
						<masterclipid>masterclip-2</masterclipid>
						<name>out</name>
						<start>2105</start>
						<end>2132</end>
						<in>15740</in>
						<out>15767</out>
						<file id="file-1" />
						<link>
							<linkclipref>clipitem-61</linkclipref>
							<mediatype>video</mediatype>
							<trackindex>1</trackindex>
							<clipindex>61</clipindex>
						</link>
						<link>
							<linkclipref>clipitem-196</linkclipref>
							<mediatype>audio</mediatype>
							<trackindex>1</trackindex>
							<clipindex>61</clipindex>
							<groupindex>1</groupindex>
						</link>
						<link>
							<linkclipref>clipitem-331</linkclipref>
							<mediatype>audio</mediatype>
							<trackindex>2</trackindex>
							<clipindex>61</clipindex>
							<groupindex>1</groupindex>
						</link>
					</clipitem>
					<clipitem id="clipitem-62">
						<masterclipid>masterclip-2</masterclipid>
						<name>out</name>
						<start>2132</start>
						<end>2162</end>
						<in>16219</in>
						<out>16249</out>
						<file id="file-1" />
						<link>
							<linkclipref>clipitem-62</linkclipref>
							<mediatype>video</mediatype>
							<trackindex>1</trackindex>
							<clipindex>62</clipindex>
						</link>
						<link>
							<linkclipref>clipitem-197</linkclipref>
							<mediatype>audio</mediatype>
							<trackindex>1</trackindex>
							<clipindex>62</clipindex>
							<groupindex>1</groupindex>
						</link>
						<link>
							<linkclipref>clipitem-332</linkclipref>
							<mediatype>audio</mediatype>
							<trackindex>2</trackindex>
							<clipindex>62</clipindex>
							<groupindex>1</groupindex>
						</link>
					</clipitem>
					<clipitem id="clipitem-63">
						<masterclipid>masterclip-2</masterclipid>
						<name>out</name>
						<start>2162</start>
						<end>2189</end>
						<in>16462</in>
						<out>16489</out>
						<file id="file-1" />
						<link>
							<linkclipref>clipitem-63</linkclipref>
							<mediatype>video</mediatype>
							<trackindex>1</trackindex>
							<clipindex>63</clipindex>
						</link>
						<link>
							<linkclipref>clipitem-198</linkclipref>
							<mediatype>audio</mediatype>
							<trackindex>1</trackindex>
							<clipindex>63</clipindex>
							<groupindex>1</groupindex>
						</link>
						<link>
							<linkclipref>clipitem-333</linkclipref>
							<mediatype>audio</mediatype>
							<trackindex>2</trackindex>
							<clipindex>63</clipindex>
							<groupindex>1</groupindex>
						</link>
					</clipitem>
					<clipitem id="clipitem-64">
						<masterclipid>masterclip-2</masterclipid>
						<name>out</name>
						<start>2189</start>
						<end>2216</end>
						<in>17462</in>
						<out>17489</out>
						<file id="file-1" />
						<link>
							<linkclipref>clipitem-64</linkclipref>
							<mediatype>video</mediatype>
							<trackindex>1</trackindex>
							<clipindex>64</clipindex>
						</link>
						<link>
							<linkclipref>clipitem-199</linkclipref>
							<mediatype>audio</mediatype>
							<trackindex>1</trackindex>
							<clipindex>64</clipindex>
							<groupindex>1</groupindex>
						</link>
						<link>
							<linkclipref>clipitem-334</linkclipref>
							<mediatype>audio</mediatype>
							<trackindex>2</trackindex>
							<clipindex>64</clipindex>
							<groupindex>1</groupindex>
						</link>
					</clipitem>
					<clipitem id="clipitem-65">
						<masterclipid>masterclip-2</masterclipid>
						<name>out</name>
						<start>2216</start>
						<end>2243</end>
						<in>17551</in>
						<out>17578</out>
						<file id="file-1" />
						<link>
							<linkclipref>clipitem-65</linkclipref>
							<mediatype>video</mediatype>
							<trackindex>1</trackindex>
							<clipindex>65</clipindex>
						</link>
						<link>
							<linkclipref>clipitem-200</linkclipref>
							<mediatype>audio</mediatype>
							<trackindex>1</trackindex>
							<clipindex>65</clipindex>
							<groupindex>1</groupindex>
						</link>
						<link>
							<linkclipref>clipitem-335</linkclipref>
							<mediatype>audio</mediatype>
							<trackindex>2</trackindex>
							<clipindex>65</clipindex>
							<groupindex>1</groupindex>
						</link>
					</clipitem>
					<clipitem id="clipitem-66">
						<masterclipid>masterclip-2</masterclipid>
						<name>out</name>
						<start>2243</start>
						<end>2271</end>
						<in>17949</in>
						<out>17977</out>
						<file id="file-1" />
						<link>
							<linkclipref>clipitem-66</linkclipref>
							<mediatype>video</mediatype>
							<trackindex>1</trackindex>
							<clipindex>66</clipindex>
						</link>
						<link>
							<linkclipref>clipitem-201</linkclipref>
							<mediatype>audio</mediatype>
							<trackindex>1</trackindex>
							<clipindex>66</clipindex>
							<groupindex>1</groupindex>
						</link>
						<link>
							<linkclipref>clipitem-336</linkclipref>
							<mediatype>audio</mediatype>
							<trackindex>2</trackindex>
							<clipindex>66</clipindex>
							<groupindex>1</groupindex>
						</link>
					</clipitem>
					<clipitem id="clipitem-67">
						<masterclipid>masterclip-2</masterclipid>
						<name>out</name>
						<start>2271</start>
						<end>2298</end>
						<in>18346</in>
						<out>18373</out>
						<file id="file-1" />
						<link>
							<linkclipref>clipitem-67</linkclipref>
							<mediatype>video</mediatype>
							<trackindex>1</trackindex>
							<clipindex>67</clipindex>
						</link>
						<link>
							<linkclipref>clipitem-202</linkclipref>
							<mediatype>audio</mediatype>
							<trackindex>1</trackindex>
							<clipindex>67</clipindex>
							<groupindex>1</groupindex>
						</link>
						<link>
							<linkclipref>clipitem-337</linkclipref>
							<mediatype>audio</mediatype>
							<trackindex>2</trackindex>
							<clipindex>67</clipindex>
							<groupindex>1</groupindex>
						</link>
					</clipitem>
					<clipitem id="clipitem-68">
						<masterclipid>masterclip-2</masterclipid>
						<name>out</name>
						<start>2298</start>
						<end>2351</end>
						<in>18549</in>
						<out>18602</out>
						<file id="file-1" />
						<link>
							<linkclipref>clipitem-68</linkclipref>
							<mediatype>video</mediatype>
							<trackindex>1</trackindex>
							<clipindex>68</clipindex>
						</link>
						<link>
							<linkclipref>clipitem-203</linkclipref>
							<mediatype>audio</mediatype>
							<trackindex>1</trackindex>
							<clipindex>68</clipindex>
							<groupindex>1</groupindex>
						</link>
						<link>
							<linkclipref>clipitem-338</linkclipref>
							<mediatype>audio</mediatype>
							<trackindex>2</trackindex>
							<clipindex>68</clipindex>
							<groupindex>1</groupindex>
						</link>
					</clipitem>
					<clipitem id="clipitem-69">
						<masterclipid>masterclip-2</masterclipid>
						<name>out</name>
						<start>2351</start>
						<end>2378</end>
						<in>18684</in>
						<out>18711</out>
						<file id="file-1" />
						<link>
							<linkclipref>clipitem-69</linkclipref>
							<mediatype>video</mediatype>
							<trackindex>1</trackindex>
							<clipindex>69</clipindex>
						</link>
						<link>
							<linkclipref>clipitem-204</linkclipref>
							<mediatype>audio</mediatype>
							<trackindex>1</trackindex>
							<clipindex>69</clipindex>
							<groupindex>1</groupindex>
						</link>
						<link>
							<linkclipref>clipitem-339</linkclipref>
							<mediatype>audio</mediatype>
							<trackindex>2</trackindex>
							<clipindex>69</clipindex>
							<groupindex>1</groupindex>
						</link>
					</clipitem>
					<clipitem id="clipitem-70">
						<masterclipid>masterclip-2</masterclipid>
						<name>out</name>
						<start>2378</start>
						<end>2405</end>
						<in>18977</in>
						<out>19004</out>
						<file id="file-1" />
						<link>
							<linkclipref>clipitem-70</linkclipref>
							<mediatype>video</mediatype>
							<trackindex>1</trackindex>
							<clipindex>70</clipindex>
						</link>
						<link>
							<linkclipref>clipitem-205</linkclipref>
							<mediatype>audio</mediatype>
							<trackindex>1</trackindex>
							<clipindex>70</clipindex>
							<groupindex>1</groupindex>
						</link>
						<link>
							<linkclipref>clipitem-340</linkclipref>
							<mediatype>audio</mediatype>
							<trackindex>2</trackindex>
							<clipindex>70</clipindex>
							<groupindex>1</groupindex>
						</link>
					</clipitem>
					<clipitem id="clipitem-71">
						<masterclipid>masterclip-2</masterclipid>
						<name>out</name>
						<start>2405</start>
						<end>2432</end>
						<in>19060</in>
						<out>19087</out>
						<file id="file-1" />
						<link>
							<linkclipref>clipitem-71</linkclipref>
							<mediatype>video</mediatype>
							<trackindex>1</trackindex>
							<clipindex>71</clipindex>
						</link>
						<link>
							<linkclipref>clipitem-206</linkclipref>
							<mediatype>audio</mediatype>
							<trackindex>1</trackindex>
							<clipindex>71</clipindex>
							<groupindex>1</groupindex>
						</link>
						<link>
							<linkclipref>clipitem-341</linkclipref>
							<mediatype>audio</mediatype>
							<trackindex>2</trackindex>
							<clipindex>71</clipindex>
							<groupindex>1</groupindex>
						</link>
					</clipitem>
					<clipitem id="clipitem-72">
						<masterclipid>masterclip-2</masterclipid>
						<name>out</name>
						<start>2432</start>
						<end>2459</end>
						<in>19145</in>
						<out>19172</out>
						<file id="file-1" />
						<link>
							<linkclipref>clipitem-72</linkclipref>
							<mediatype>video</mediatype>
							<trackindex>1</trackindex>
							<clipindex>72</clipindex>
						</link>
						<link>
							<linkclipref>clipitem-207</linkclipref>
							<mediatype>audio</mediatype>
							<trackindex>1</trackindex>
							<clipindex>72</clipindex>
							<groupindex>1</groupindex>
						</link>
						<link>
							<linkclipref>clipitem-342</linkclipref>
							<mediatype>audio</mediatype>
							<trackindex>2</trackindex>
							<clipindex>72</clipindex>
							<groupindex>1</groupindex>
						</link>
					</clipitem>
					<clipitem id="clipitem-73">
						<masterclipid>masterclip-2</masterclipid>
						<name>out</name>
						<start>2459</start>
						<end>2487</end>
						<in>19830</in>
						<out>19858</out>
						<file id="file-1" />
						<link>
							<linkclipref>clipitem-73</linkclipref>
							<mediatype>video</mediatype>
							<trackindex>1</trackindex>
							<clipindex>73</clipindex>
						</link>
						<link>
							<linkclipref>clipitem-208</linkclipref>
							<mediatype>audio</mediatype>
							<trackindex>1</trackindex>
							<clipindex>73</clipindex>
							<groupindex>1</groupindex>
						</link>
						<link>
							<linkclipref>clipitem-343</linkclipref>
							<mediatype>audio</mediatype>
							<trackindex>2</trackindex>
							<clipindex>73</clipindex>
							<groupindex>1</groupindex>
						</link>
					</clipitem>
					<clipitem id="clipitem-74">
						<masterclipid>masterclip-2</masterclipid>
						<name>out</name>
						<start>2487</start>
						<end>2514</end>
						<in>20200</in>
						<out>20227</out>
						<file id="file-1" />
						<link>
							<linkclipref>clipitem-74</linkclipref>
							<mediatype>video</mediatype>
							<trackindex>1</trackindex>
							<clipindex>74</clipindex>
						</link>
						<link>
							<linkclipref>clipitem-209</linkclipref>
							<mediatype>audio</mediatype>
							<trackindex>1</trackindex>
							<clipindex>74</clipindex>
							<groupindex>1</groupindex>
						</link>
						<link>
							<linkclipref>clipitem-344</linkclipref>
							<mediatype>audio</mediatype>
							<trackindex>2</trackindex>
							<clipindex>74</clipindex>
							<groupindex>1</groupindex>
						</link>
					</clipitem>
					<clipitem id="clipitem-75">
						<masterclipid>masterclip-2</masterclipid>
						<name>out</name>
						<start>2514</start>
						<end>2547</end>
						<in>20475</in>
						<out>20508</out>
						<file id="file-1" />
						<link>
							<linkclipref>clipitem-75</linkclipref>
							<mediatype>video</mediatype>
							<trackindex>1</trackindex>
							<clipindex>75</clipindex>
						</link>
						<link>
							<linkclipref>clipitem-210</linkclipref>
							<mediatype>audio</mediatype>
							<trackindex>1</trackindex>
							<clipindex>75</clipindex>
							<groupindex>1</groupindex>
						</link>
						<link>
							<linkclipref>clipitem-345</linkclipref>
							<mediatype>audio</mediatype>
							<trackindex>2</trackindex>
							<clipindex>75</clipindex>
							<groupindex>1</groupindex>
						</link>
					</clipitem>
					<clipitem id="clipitem-76">
						<masterclipid>masterclip-2</masterclipid>
						<name>out</name>
						<start>2547</start>
						<end>2574</end>
						<in>21219</in>
						<out>21246</out>
						<file id="file-1" />
						<link>
							<linkclipref>clipitem-76</linkclipref>
							<mediatype>video</mediatype>
							<trackindex>1</trackindex>
							<clipindex>76</clipindex>
						</link>
						<link>
							<linkclipref>clipitem-211</linkclipref>
							<mediatype>audio</mediatype>
							<trackindex>1</trackindex>
							<clipindex>76</clipindex>
							<groupindex>1</groupindex>
						</link>
						<link>
							<linkclipref>clipitem-346</linkclipref>
							<mediatype>audio</mediatype>
							<trackindex>2</trackindex>
							<clipindex>76</clipindex>
							<groupindex>1</groupindex>
						</link>
					</clipitem>
					<clipitem id="clipitem-77">
						<masterclipid>masterclip-2</masterclipid>
						<name>out</name>
						<start>2574</start>
						<end>2603</end>
						<in>21595</in>
						<out>21624</out>
						<file id="file-1" />
						<link>
							<linkclipref>clipitem-77</linkclipref>
							<mediatype>video</mediatype>
							<trackindex>1</trackindex>
							<clipindex>77</clipindex>
						</link>
						<link>
							<linkclipref>clipitem-212</linkclipref>
							<mediatype>audio</mediatype>
							<trackindex>1</trackindex>
							<clipindex>77</clipindex>
							<groupindex>1</groupindex>
						</link>
						<link>
							<linkclipref>clipitem-347</linkclipref>
							<mediatype>audio</mediatype>
							<trackindex>2</trackindex>
							<clipindex>77</clipindex>
							<groupindex>1</groupindex>
						</link>
					</clipitem>
					<clipitem id="clipitem-78">
						<masterclipid>masterclip-2</masterclipid>
						<name>out</name>
						<start>2603</start>
						<end>2632</end>
						<in>21977</in>
						<out>22006</out>
						<file id="file-1" />
						<link>
							<linkclipref>clipitem-78</linkclipref>
							<mediatype>video</mediatype>
							<trackindex>1</trackindex>
							<clipindex>78</clipindex>
						</link>
						<link>
							<linkclipref>clipitem-213</linkclipref>
							<mediatype>audio</mediatype>
							<trackindex>1</trackindex>
							<clipindex>78</clipindex>
							<groupindex>1</groupindex>
						</link>
						<link>
							<linkclipref>clipitem-348</linkclipref>
							<mediatype>audio</mediatype>
							<trackindex>2</trackindex>
							<clipindex>78</clipindex>
							<groupindex>1</groupindex>
						</link>
					</clipitem>
					<clipitem id="clipitem-79">
						<masterclipid>masterclip-2</masterclipid>
						<name>out</name>
						<start>2632</start>
						<end>2659</end>
						<in>22068</in>
						<out>22095</out>
						<file id="file-1" />
						<link>
							<linkclipref>clipitem-79</linkclipref>
							<mediatype>video</mediatype>
							<trackindex>1</trackindex>
							<clipindex>79</clipindex>
						</link>
						<link>
							<linkclipref>clipitem-214</linkclipref>
							<mediatype>audio</mediatype>
							<trackindex>1</trackindex>
							<clipindex>79</clipindex>
							<groupindex>1</groupindex>
						</link>
						<link>
							<linkclipref>clipitem-349</linkclipref>
							<mediatype>audio</mediatype>
							<trackindex>2</trackindex>
							<clipindex>79</clipindex>
							<groupindex>1</groupindex>
						</link>
					</clipitem>
					<clipitem id="clipitem-80">
						<masterclipid>masterclip-2</masterclipid>
						<name>out</name>
						<start>2659</start>
						<end>2687</end>
						<in>22422</in>
						<out>22450</out>
						<file id="file-1" />
						<link>
							<linkclipref>clipitem-80</linkclipref>
							<mediatype>video</mediatype>
							<trackindex>1</trackindex>
							<clipindex>80</clipindex>
						</link>
						<link>
							<linkclipref>clipitem-215</linkclipref>
							<mediatype>audio</mediatype>
							<trackindex>1</trackindex>
							<clipindex>80</clipindex>
							<groupindex>1</groupindex>
						</link>
						<link>
							<linkclipref>clipitem-350</linkclipref>
							<mediatype>audio</mediatype>
							<trackindex>2</trackindex>
							<clipindex>80</clipindex>
							<groupindex>1</groupindex>
						</link>
					</clipitem>
					<clipitem id="clipitem-81">
						<masterclipid>masterclip-2</masterclipid>
						<name>out</name>
						<start>2687</start>
						<end>2714</end>
						<in>22677</in>
						<out>22704</out>
						<file id="file-1" />
						<link>
							<linkclipref>clipitem-81</linkclipref>
							<mediatype>video</mediatype>
							<trackindex>1</trackindex>
							<clipindex>81</clipindex>
						</link>
						<link>
							<linkclipref>clipitem-216</linkclipref>
							<mediatype>audio</mediatype>
							<trackindex>1</trackindex>
							<clipindex>81</clipindex>
							<groupindex>1</groupindex>
						</link>
						<link>
							<linkclipref>clipitem-351</linkclipref>
							<mediatype>audio</mediatype>
							<trackindex>2</trackindex>
							<clipindex>81</clipindex>
							<groupindex>1</groupindex>
						</link>
					</clipitem>
					<clipitem id="clipitem-82">
						<masterclipid>masterclip-2</masterclipid>
						<name>out</name>
						<start>2714</start>
						<end>2744</end>
						<in>22788</in>
						<out>22818</out>
						<file id="file-1" />
						<link>
							<linkclipref>clipitem-82</linkclipref>
							<mediatype>video</mediatype>
							<trackindex>1</trackindex>
							<clipindex>82</clipindex>
						</link>
						<link>
							<linkclipref>clipitem-217</linkclipref>
							<mediatype>audio</mediatype>
							<trackindex>1</trackindex>
							<clipindex>82</clipindex>
							<groupindex>1</groupindex>
						</link>
						<link>
							<linkclipref>clipitem-352</linkclipref>
							<mediatype>audio</mediatype>
							<trackindex>2</trackindex>
							<clipindex>82</clipindex>
							<groupindex>1</groupindex>
						</link>
					</clipitem>
					<clipitem id="clipitem-83">
						<masterclipid>masterclip-2</masterclipid>
						<name>out</name>
						<start>2744</start>
						<end>2773</end>
						<in>22822</in>
						<out>22851</out>
						<file id="file-1" />
						<link>
							<linkclipref>clipitem-83</linkclipref>
							<mediatype>video</mediatype>
							<trackindex>1</trackindex>
							<clipindex>83</clipindex>
						</link>
						<link>
							<linkclipref>clipitem-218</linkclipref>
							<mediatype>audio</mediatype>
							<trackindex>1</trackindex>
							<clipindex>83</clipindex>
							<groupindex>1</groupindex>
						</link>
						<link>
							<linkclipref>clipitem-353</linkclipref>
							<mediatype>audio</mediatype>
							<trackindex>2</trackindex>
							<clipindex>83</clipindex>
							<groupindex>1</groupindex>
						</link>
					</clipitem>
					<clipitem id="clipitem-84">
						<masterclipid>masterclip-2</masterclipid>
						<name>out</name>
						<start>2773</start>
						<end>2801</end>
						<in>22891</in>
						<out>22919</out>
						<file id="file-1" />
						<link>
							<linkclipref>clipitem-84</linkclipref>
							<mediatype>video</mediatype>
							<trackindex>1</trackindex>
							<clipindex>84</clipindex>
						</link>
						<link>
							<linkclipref>clipitem-219</linkclipref>
							<mediatype>audio</mediatype>
							<trackindex>1</trackindex>
							<clipindex>84</clipindex>
							<groupindex>1</groupindex>
						</link>
						<link>
							<linkclipref>clipitem-354</linkclipref>
							<mediatype>audio</mediatype>
							<trackindex>2</trackindex>
							<clipindex>84</clipindex>
							<groupindex>1</groupindex>
						</link>
					</clipitem>
					<clipitem id="clipitem-85">
						<masterclipid>masterclip-2</masterclipid>
						<name>out</name>
						<start>2801</start>
						<end>2828</end>
						<in>22958</in>
						<out>22985</out>
						<file id="file-1" />
						<link>
							<linkclipref>clipitem-85</linkclipref>
							<mediatype>video</mediatype>
							<trackindex>1</trackindex>
							<clipindex>85</clipindex>
						</link>
						<link>
							<linkclipref>clipitem-220</linkclipref>
							<mediatype>audio</mediatype>
							<trackindex>1</trackindex>
							<clipindex>85</clipindex>
							<groupindex>1</groupindex>
						</link>
						<link>
							<linkclipref>clipitem-355</linkclipref>
							<mediatype>audio</mediatype>
							<trackindex>2</trackindex>
							<clipindex>85</clipindex>
							<groupindex>1</groupindex>
						</link>
					</clipitem>
					<clipitem id="clipitem-86">
						<masterclipid>masterclip-2</masterclipid>
						<name>out</name>
						<start>2828</start>
						<end>2856</end>
						<in>23014</in>
						<out>23042</out>
						<file id="file-1" />
						<link>
							<linkclipref>clipitem-86</linkclipref>
							<mediatype>video</mediatype>
							<trackindex>1</trackindex>
							<clipindex>86</clipindex>
						</link>
						<link>
							<linkclipref>clipitem-221</linkclipref>
							<mediatype>audio</mediatype>
							<trackindex>1</trackindex>
							<clipindex>86</clipindex>
							<groupindex>1</groupindex>
						</link>
						<link>
							<linkclipref>clipitem-356</linkclipref>
							<mediatype>audio</mediatype>
							<trackindex>2</trackindex>
							<clipindex>86</clipindex>
							<groupindex>1</groupindex>
						</link>
					</clipitem>
					<clipitem id="clipitem-87">
						<masterclipid>masterclip-2</masterclipid>
						<name>out</name>
						<start>2856</start>
						<end>2883</end>
						<in>23062</in>
						<out>23089</out>
						<file id="file-1" />
						<link>
							<linkclipref>clipitem-87</linkclipref>
							<mediatype>video</mediatype>
							<trackindex>1</trackindex>
							<clipindex>87</clipindex>
						</link>
						<link>
							<linkclipref>clipitem-222</linkclipref>
							<mediatype>audio</mediatype>
							<trackindex>1</trackindex>
							<clipindex>87</clipindex>
							<groupindex>1</groupindex>
						</link>
						<link>
							<linkclipref>clipitem-357</linkclipref>
							<mediatype>audio</mediatype>
							<trackindex>2</trackindex>
							<clipindex>87</clipindex>
							<groupindex>1</groupindex>
						</link>
					</clipitem>
					<clipitem id="clipitem-88">
						<masterclipid>masterclip-2</masterclipid>
						<name>out</name>
						<start>2883</start>
						<end>2915</end>
						<in>23096</in>
						<out>23128</out>
						<file id="file-1" />
						<link>
							<linkclipref>clipitem-88</linkclipref>
							<mediatype>video</mediatype>
							<trackindex>1</trackindex>
							<clipindex>88</clipindex>
						</link>
						<link>
							<linkclipref>clipitem-223</linkclipref>
							<mediatype>audio</mediatype>
							<trackindex>1</trackindex>
							<clipindex>88</clipindex>
							<groupindex>1</groupindex>
						</link>
						<link>
							<linkclipref>clipitem-358</linkclipref>
							<mediatype>audio</mediatype>
							<trackindex>2</trackindex>
							<clipindex>88</clipindex>
							<groupindex>1</groupindex>
						</link>
					</clipitem>
					<clipitem id="clipitem-89">
						<masterclipid>masterclip-2</masterclipid>
						<name>out</name>
						<start>2915</start>
						<end>2943</end>
						<in>23137</in>
						<out>23165</out>
						<file id="file-1" />
						<link>
							<linkclipref>clipitem-89</linkclipref>
							<mediatype>video</mediatype>
							<trackindex>1</trackindex>
							<clipindex>89</clipindex>
						</link>
						<link>
							<linkclipref>clipitem-224</linkclipref>
							<mediatype>audio</mediatype>
							<trackindex>1</trackindex>
							<clipindex>89</clipindex>
							<groupindex>1</groupindex>
						</link>
						<link>
							<linkclipref>clipitem-359</linkclipref>
							<mediatype>audio</mediatype>
							<trackindex>2</trackindex>
							<clipindex>89</clipindex>
							<groupindex>1</groupindex>
						</link>
					</clipitem>
					<clipitem id="clipitem-90">
						<masterclipid>masterclip-2</masterclipid>
						<name>out</name>
						<start>2943</start>
						<end>2971</end>
						<in>23172</in>
						<out>23200</out>
						<file id="file-1" />
						<link>
							<linkclipref>clipitem-90</linkclipref>
							<mediatype>video</mediatype>
							<trackindex>1</trackindex>
							<clipindex>90</clipindex>
						</link>
						<link>
							<linkclipref>clipitem-225</linkclipref>
							<mediatype>audio</mediatype>
							<trackindex>1</trackindex>
							<clipindex>90</clipindex>
							<groupindex>1</groupindex>
						</link>
						<link>
							<linkclipref>clipitem-360</linkclipref>
							<mediatype>audio</mediatype>
							<trackindex>2</trackindex>
							<clipindex>90</clipindex>
							<groupindex>1</groupindex>
						</link>
					</clipitem>
					<clipitem id="clipitem-91">
						<masterclipid>masterclip-2</masterclipid>
						<name>out</name>
						<start>2971</start>
						<end>3054</end>
						<in>23203</in>
						<out>23286</out>
						<file id="file-1" />
						<link>
							<linkclipref>clipitem-91</linkclipref>
							<mediatype>video</mediatype>
							<trackindex>1</trackindex>
							<clipindex>91</clipindex>
						</link>
						<link>
							<linkclipref>clipitem-226</linkclipref>
							<mediatype>audio</mediatype>
							<trackindex>1</trackindex>
							<clipindex>91</clipindex>
							<groupindex>1</groupindex>
						</link>
						<link>
							<linkclipref>clipitem-361</linkclipref>
							<mediatype>audio</mediatype>
							<trackindex>2</trackindex>
							<clipindex>91</clipindex>
							<groupindex>1</groupindex>
						</link>
					</clipitem>
					<clipitem id="clipitem-92">
						<masterclipid>masterclip-2</masterclipid>
						<name>out</name>
						<start>3054</start>
						<end>3087</end>
						<in>23346</in>
						<out>23379</out>
						<file id="file-1" />
						<link>
							<linkclipref>clipitem-92</linkclipref>
							<mediatype>video</mediatype>
							<trackindex>1</trackindex>
							<clipindex>92</clipindex>
						</link>
						<link>
							<linkclipref>clipitem-227</linkclipref>
							<mediatype>audio</mediatype>
							<trackindex>1</trackindex>
							<clipindex>92</clipindex>
							<groupindex>1</groupindex>
						</link>
						<link>
							<linkclipref>clipitem-362</linkclipref>
							<mediatype>audio</mediatype>
							<trackindex>2</trackindex>
							<clipindex>92</clipindex>
							<groupindex>1</groupindex>
						</link>
					</clipitem>
					<clipitem id="clipitem-93">
						<masterclipid>masterclip-2</masterclipid>
						<name>out</name>
						<start>3087</start>
						<end>3114</end>
						<in>25416</in>
						<out>25443</out>
						<file id="file-1" />
						<link>
							<linkclipref>clipitem-93</linkclipref>
							<mediatype>video</mediatype>
							<trackindex>1</trackindex>
							<clipindex>93</clipindex>
						</link>
						<link>
							<linkclipref>clipitem-228</linkclipref>
							<mediatype>audio</mediatype>
							<trackindex>1</trackindex>
							<clipindex>93</clipindex>
							<groupindex>1</groupindex>
						</link>
						<link>
							<linkclipref>clipitem-363</linkclipref>
							<mediatype>audio</mediatype>
							<trackindex>2</trackindex>
							<clipindex>93</clipindex>
							<groupindex>1</groupindex>
						</link>
					</clipitem>
					<clipitem id="clipitem-94">
						<masterclipid>masterclip-2</masterclipid>
						<name>out</name>
						<start>3114</start>
						<end>3141</end>
						<in>25811</in>
						<out>25838</out>
						<file id="file-1" />
						<link>
							<linkclipref>clipitem-94</linkclipref>
							<mediatype>video</mediatype>
							<trackindex>1</trackindex>
							<clipindex>94</clipindex>
						</link>
						<link>
							<linkclipref>clipitem-229</linkclipref>
							<mediatype>audio</mediatype>
							<trackindex>1</trackindex>
							<clipindex>94</clipindex>
							<groupindex>1</groupindex>
						</link>
						<link>
							<linkclipref>clipitem-364</linkclipref>
							<mediatype>audio</mediatype>
							<trackindex>2</trackindex>
							<clipindex>94</clipindex>
							<groupindex>1</groupindex>
						</link>
					</clipitem>
					<clipitem id="clipitem-95">
						<masterclipid>masterclip-2</masterclipid>
						<name>out</name>
						<start>3141</start>
						<end>3169</end>
						<in>26555</in>
						<out>26583</out>
						<file id="file-1" />
						<link>
							<linkclipref>clipitem-95</linkclipref>
							<mediatype>video</mediatype>
							<trackindex>1</trackindex>
							<clipindex>95</clipindex>
						</link>
						<link>
							<linkclipref>clipitem-230</linkclipref>
							<mediatype>audio</mediatype>
							<trackindex>1</trackindex>
							<clipindex>95</clipindex>
							<groupindex>1</groupindex>
						</link>
						<link>
							<linkclipref>clipitem-365</linkclipref>
							<mediatype>audio</mediatype>
							<trackindex>2</trackindex>
							<clipindex>95</clipindex>
							<groupindex>1</groupindex>
						</link>
					</clipitem>
					<clipitem id="clipitem-96">
						<masterclipid>masterclip-2</masterclipid>
						<name>out</name>
						<start>3169</start>
						<end>3200</end>
						<in>26609</in>
						<out>26640</out>
						<file id="file-1" />
						<link>
							<linkclipref>clipitem-96</linkclipref>
							<mediatype>video</mediatype>
							<trackindex>1</trackindex>
							<clipindex>96</clipindex>
						</link>
						<link>
							<linkclipref>clipitem-231</linkclipref>
							<mediatype>audio</mediatype>
							<trackindex>1</trackindex>
							<clipindex>96</clipindex>
							<groupindex>1</groupindex>
						</link>
						<link>
							<linkclipref>clipitem-366</linkclipref>
							<mediatype>audio</mediatype>
							<trackindex>2</trackindex>
							<clipindex>96</clipindex>
							<groupindex>1</groupindex>
						</link>
					</clipitem>
					<clipitem id="clipitem-97">
						<masterclipid>masterclip-2</masterclipid>
						<name>out</name>
						<start>3200</start>
						<end>3228</end>
						<in>26661</in>
						<out>26689</out>
						<file id="file-1" />
						<link>
							<linkclipref>clipitem-97</linkclipref>
							<mediatype>video</mediatype>
							<trackindex>1</trackindex>
							<clipindex>97</clipindex>
						</link>
						<link>
							<linkclipref>clipitem-232</linkclipref>
							<mediatype>audio</mediatype>
							<trackindex>1</trackindex>
							<clipindex>97</clipindex>
							<groupindex>1</groupindex>
						</link>
						<link>
							<linkclipref>clipitem-367</linkclipref>
							<mediatype>audio</mediatype>
							<trackindex>2</trackindex>
							<clipindex>97</clipindex>
							<groupindex>1</groupindex>
						</link>
					</clipitem>
					<clipitem id="clipitem-98">
						<masterclipid>masterclip-2</masterclipid>
						<name>out</name>
						<start>3228</start>
						<end>3259</end>
						<in>26699</in>
						<out>26730</out>
						<file id="file-1" />
						<link>
							<linkclipref>clipitem-98</linkclipref>
							<mediatype>video</mediatype>
							<trackindex>1</trackindex>
							<clipindex>98</clipindex>
						</link>
						<link>
							<linkclipref>clipitem-233</linkclipref>
							<mediatype>audio</mediatype>
							<trackindex>1</trackindex>
							<clipindex>98</clipindex>
							<groupindex>1</groupindex>
						</link>
						<link>
							<linkclipref>clipitem-368</linkclipref>
							<mediatype>audio</mediatype>
							<trackindex>2</trackindex>
							<clipindex>98</clipindex>
							<groupindex>1</groupindex>
						</link>
					</clipitem>
					<clipitem id="clipitem-99">
						<masterclipid>masterclip-2</masterclipid>
						<name>out</name>
						<start>3259</start>
						<end>3286</end>
						<in>27067</in>
						<out>27094</out>
						<file id="file-1" />
						<link>
							<linkclipref>clipitem-99</linkclipref>
							<mediatype>video</mediatype>
							<trackindex>1</trackindex>
							<clipindex>99</clipindex>
						</link>
						<link>
							<linkclipref>clipitem-234</linkclipref>
							<mediatype>audio</mediatype>
							<trackindex>1</trackindex>
							<clipindex>99</clipindex>
							<groupindex>1</groupindex>
						</link>
						<link>
							<linkclipref>clipitem-369</linkclipref>
							<mediatype>audio</mediatype>
							<trackindex>2</trackindex>
							<clipindex>99</clipindex>
							<groupindex>1</groupindex>
						</link>
					</clipitem>
					<clipitem id="clipitem-100">
						<masterclipid>masterclip-2</masterclipid>
						<name>out</name>
						<start>3286</start>
						<end>3319</end>
						<in>27653</in>
						<out>27686</out>
						<file id="file-1" />
						<link>
							<linkclipref>clipitem-100</linkclipref>
							<mediatype>video</mediatype>
							<trackindex>1</trackindex>
							<clipindex>100</clipindex>
						</link>
						<link>
							<linkclipref>clipitem-235</linkclipref>
							<mediatype>audio</mediatype>
							<trackindex>1</trackindex>
							<clipindex>100</clipindex>
							<groupindex>1</groupindex>
						</link>
						<link>
							<linkclipref>clipitem-370</linkclipref>
							<mediatype>audio</mediatype>
							<trackindex>2</trackindex>
							<clipindex>100</clipindex>
							<groupindex>1</groupindex>
						</link>
					</clipitem>
					<clipitem id="clipitem-101">
						<masterclipid>masterclip-2</masterclipid>
						<name>out</name>
						<start>3319</start>
						<end>3347</end>
						<in>27748</in>
						<out>27776</out>
						<file id="file-1" />
						<link>
							<linkclipref>clipitem-101</linkclipref>
							<mediatype>video</mediatype>
							<trackindex>1</trackindex>
							<clipindex>101</clipindex>
						</link>
						<link>
							<linkclipref>clipitem-236</linkclipref>
							<mediatype>audio</mediatype>
							<trackindex>1</trackindex>
							<clipindex>101</clipindex>
							<groupindex>1</groupindex>
						</link>
						<link>
							<linkclipref>clipitem-371</linkclipref>
							<mediatype>audio</mediatype>
							<trackindex>2</trackindex>
							<clipindex>101</clipindex>
							<groupindex>1</groupindex>
						</link>
					</clipitem>
					<clipitem id="clipitem-102">
						<masterclipid>masterclip-2</masterclipid>
						<name>out</name>
						<start>3347</start>
						<end>3374</end>
						<in>28106</in>
						<out>28133</out>
						<file id="file-1" />
						<link>
							<linkclipref>clipitem-102</linkclipref>
							<mediatype>video</mediatype>
							<trackindex>1</trackindex>
							<clipindex>102</clipindex>
						</link>
						<link>
							<linkclipref>clipitem-237</linkclipref>
							<mediatype>audio</mediatype>
							<trackindex>1</trackindex>
							<clipindex>102</clipindex>
							<groupindex>1</groupindex>
						</link>
						<link>
							<linkclipref>clipitem-372</linkclipref>
							<mediatype>audio</mediatype>
							<trackindex>2</trackindex>
							<clipindex>102</clipindex>
							<groupindex>1</groupindex>
						</link>
					</clipitem>
					<clipitem id="clipitem-103">
						<masterclipid>masterclip-2</masterclipid>
						<name>out</name>
						<start>3374</start>
						<end>3401</end>
						<in>28168</in>
						<out>28195</out>
						<file id="file-1" />
						<link>
							<linkclipref>clipitem-103</linkclipref>
							<mediatype>video</mediatype>
							<trackindex>1</trackindex>
							<clipindex>103</clipindex>
						</link>
						<link>
							<linkclipref>clipitem-238</linkclipref>
							<mediatype>audio</mediatype>
							<trackindex>1</trackindex>
							<clipindex>103</clipindex>
							<groupindex>1</groupindex>
						</link>
						<link>
							<linkclipref>clipitem-373</linkclipref>
							<mediatype>audio</mediatype>
							<trackindex>2</trackindex>
							<clipindex>103</clipindex>
							<groupindex>1</groupindex>
						</link>
					</clipitem>
					<clipitem id="clipitem-104">
						<masterclipid>masterclip-2</masterclipid>
						<name>out</name>
						<start>3401</start>
						<end>3433</end>
						<in>28584</in>
						<out>28616</out>
						<file id="file-1" />
						<link>
							<linkclipref>clipitem-104</linkclipref>
							<mediatype>video</mediatype>
							<trackindex>1</trackindex>
							<clipindex>104</clipindex>
						</link>
						<link>
							<linkclipref>clipitem-239</linkclipref>
							<mediatype>audio</mediatype>
							<trackindex>1</trackindex>
							<clipindex>104</clipindex>
							<groupindex>1</groupindex>
						</link>
						<link>
							<linkclipref>clipitem-374</linkclipref>
							<mediatype>audio</mediatype>
							<trackindex>2</trackindex>
							<clipindex>104</clipindex>
							<groupindex>1</groupindex>
						</link>
					</clipitem>
					<clipitem id="clipitem-105">
						<masterclipid>masterclip-2</masterclipid>
						<name>out</name>
						<start>3433</start>
						<end>3462</end>
						<in>29176</in>
						<out>29205</out>
						<file id="file-1" />
						<link>
							<linkclipref>clipitem-105</linkclipref>
							<mediatype>video</mediatype>
							<trackindex>1</trackindex>
							<clipindex>105</clipindex>
						</link>
						<link>
							<linkclipref>clipitem-240</linkclipref>
							<mediatype>audio</mediatype>
							<trackindex>1</trackindex>
							<clipindex>105</clipindex>
							<groupindex>1</groupindex>
						</link>
						<link>
							<linkclipref>clipitem-375</linkclipref>
							<mediatype>audio</mediatype>
							<trackindex>2</trackindex>
							<clipindex>105</clipindex>
							<groupindex>1</groupindex>
						</link>
					</clipitem>
					<clipitem id="clipitem-106">
						<masterclipid>masterclip-2</masterclipid>
						<name>out</name>
						<start>3462</start>
						<end>3489</end>
						<in>29212</in>
						<out>29239</out>
						<file id="file-1" />
						<link>
							<linkclipref>clipitem-106</linkclipref>
							<mediatype>video</mediatype>
							<trackindex>1</trackindex>
							<clipindex>106</clipindex>
						</link>
						<link>
							<linkclipref>clipitem-241</linkclipref>
							<mediatype>audio</mediatype>
							<trackindex>1</trackindex>
							<clipindex>106</clipindex>
							<groupindex>1</groupindex>
						</link>
						<link>
							<linkclipref>clipitem-376</linkclipref>
							<mediatype>audio</mediatype>
							<trackindex>2</trackindex>
							<clipindex>106</clipindex>
							<groupindex>1</groupindex>
						</link>
					</clipitem>
					<clipitem id="clipitem-107">
						<masterclipid>masterclip-2</masterclipid>
						<name>out</name>
						<start>3489</start>
						<end>3516</end>
						<in>29271</in>
						<out>29298</out>
						<file id="file-1" />
						<link>
							<linkclipref>clipitem-107</linkclipref>
							<mediatype>video</mediatype>
							<trackindex>1</trackindex>
							<clipindex>107</clipindex>
						</link>
						<link>
							<linkclipref>clipitem-242</linkclipref>
							<mediatype>audio</mediatype>
							<trackindex>1</trackindex>
							<clipindex>107</clipindex>
							<groupindex>1</groupindex>
						</link>
						<link>
							<linkclipref>clipitem-377</linkclipref>
							<mediatype>audio</mediatype>
							<trackindex>2</trackindex>
							<clipindex>107</clipindex>
							<groupindex>1</groupindex>
						</link>
					</clipitem>
					<clipitem id="clipitem-108">
						<masterclipid>masterclip-2</masterclipid>
						<name>out</name>
						<start>3516</start>
						<end>3543</end>
						<in>29338</in>
						<out>29365</out>
						<file id="file-1" />
						<link>
							<linkclipref>clipitem-108</linkclipref>
							<mediatype>video</mediatype>
							<trackindex>1</trackindex>
							<clipindex>108</clipindex>
						</link>
						<link>
							<linkclipref>clipitem-243</linkclipref>
							<mediatype>audio</mediatype>
							<trackindex>1</trackindex>
							<clipindex>108</clipindex>
							<groupindex>1</groupindex>
						</link>
						<link>
							<linkclipref>clipitem-378</linkclipref>
							<mediatype>audio</mediatype>
							<trackindex>2</trackindex>
							<clipindex>108</clipindex>
							<groupindex>1</groupindex>
						</link>
					</clipitem>
					<clipitem id="clipitem-109">
						<masterclipid>masterclip-2</masterclipid>
						<name>out</name>
						<start>3543</start>
						<end>3570</end>
						<in>29433</in>
						<out>29460</out>
						<file id="file-1" />
						<link>
							<linkclipref>clipitem-109</linkclipref>
							<mediatype>video</mediatype>
							<trackindex>1</trackindex>
							<clipindex>109</clipindex>
						</link>
						<link>
							<linkclipref>clipitem-244</linkclipref>
							<mediatype>audio</mediatype>
							<trackindex>1</trackindex>
							<clipindex>109</clipindex>
							<groupindex>1</groupindex>
						</link>
						<link>
							<linkclipref>clipitem-379</linkclipref>
							<mediatype>audio</mediatype>
							<trackindex>2</trackindex>
							<clipindex>109</clipindex>
							<groupindex>1</groupindex>
						</link>
					</clipitem>
					<clipitem id="clipitem-110">
						<masterclipid>masterclip-2</masterclipid>
						<name>out</name>
						<start>3570</start>
						<end>3597</end>
						<in>29604</in>
						<out>29631</out>
						<file id="file-1" />
						<link>
							<linkclipref>clipitem-110</linkclipref>
							<mediatype>video</mediatype>
							<trackindex>1</trackindex>
							<clipindex>110</clipindex>
						</link>
						<link>
							<linkclipref>clipitem-245</linkclipref>
							<mediatype>audio</mediatype>
							<trackindex>1</trackindex>
							<clipindex>110</clipindex>
							<groupindex>1</groupindex>
						</link>
						<link>
							<linkclipref>clipitem-380</linkclipref>
							<mediatype>audio</mediatype>
							<trackindex>2</trackindex>
							<clipindex>110</clipindex>
							<groupindex>1</groupindex>
						</link>
					</clipitem>
					<clipitem id="clipitem-111">
						<masterclipid>masterclip-2</masterclipid>
						<name>out</name>
						<start>3597</start>
						<end>3624</end>
						<in>29809</in>
						<out>29836</out>
						<file id="file-1" />
						<link>
							<linkclipref>clipitem-111</linkclipref>
							<mediatype>video</mediatype>
							<trackindex>1</trackindex>
							<clipindex>111</clipindex>
						</link>
						<link>
							<linkclipref>clipitem-246</linkclipref>
							<mediatype>audio</mediatype>
							<trackindex>1</trackindex>
							<clipindex>111</clipindex>
							<groupindex>1</groupindex>
						</link>
						<link>
							<linkclipref>clipitem-381</linkclipref>
							<mediatype>audio</mediatype>
							<trackindex>2</trackindex>
							<clipindex>111</clipindex>
							<groupindex>1</groupindex>
						</link>
					</clipitem>
					<clipitem id="clipitem-112">
						<masterclipid>masterclip-2</masterclipid>
						<name>out</name>
						<start>3624</start>
						<end>3651</end>
						<in>30311</in>
						<out>30338</out>
						<file id="file-1" />
						<link>
							<linkclipref>clipitem-112</linkclipref>
							<mediatype>video</mediatype>
							<trackindex>1</trackindex>
							<clipindex>112</clipindex>
						</link>
						<link>
							<linkclipref>clipitem-247</linkclipref>
							<mediatype>audio</mediatype>
							<trackindex>1</trackindex>
							<clipindex>112</clipindex>
							<groupindex>1</groupindex>
						</link>
						<link>
							<linkclipref>clipitem-382</linkclipref>
							<mediatype>audio</mediatype>
							<trackindex>2</trackindex>
							<clipindex>112</clipindex>
							<groupindex>1</groupindex>
						</link>
					</clipitem>
					<clipitem id="clipitem-113">
						<masterclipid>masterclip-2</masterclipid>
						<name>out</name>
						<start>3651</start>
						<end>3678</end>
						<in>30393</in>
						<out>30420</out>
						<file id="file-1" />
						<link>
							<linkclipref>clipitem-113</linkclipref>
							<mediatype>video</mediatype>
							<trackindex>1</trackindex>
							<clipindex>113</clipindex>
						</link>
						<link>
							<linkclipref>clipitem-248</linkclipref>
							<mediatype>audio</mediatype>
							<trackindex>1</trackindex>
							<clipindex>113</clipindex>
							<groupindex>1</groupindex>
						</link>
						<link>
							<linkclipref>clipitem-383</linkclipref>
							<mediatype>audio</mediatype>
							<trackindex>2</trackindex>
							<clipindex>113</clipindex>
							<groupindex>1</groupindex>
						</link>
					</clipitem>
					<clipitem id="clipitem-114">
						<masterclipid>masterclip-2</masterclipid>
						<name>out</name>
						<start>3678</start>
						<end>3725</end>
						<in>30556</in>
						<out>30603</out>
						<file id="file-1" />
						<link>
							<linkclipref>clipitem-114</linkclipref>
							<mediatype>video</mediatype>
							<trackindex>1</trackindex>
							<clipindex>114</clipindex>
						</link>
						<link>
							<linkclipref>clipitem-249</linkclipref>
							<mediatype>audio</mediatype>
							<trackindex>1</trackindex>
							<clipindex>114</clipindex>
							<groupindex>1</groupindex>
						</link>
						<link>
							<linkclipref>clipitem-384</linkclipref>
							<mediatype>audio</mediatype>
							<trackindex>2</trackindex>
							<clipindex>114</clipindex>
							<groupindex>1</groupindex>
						</link>
					</clipitem>
					<clipitem id="clipitem-115">
						<masterclipid>masterclip-2</masterclipid>
						<name>out</name>
						<start>3725</start>
						<end>3752</end>
						<in>30869</in>
						<out>30896</out>
						<file id="file-1" />
						<link>
							<linkclipref>clipitem-115</linkclipref>
							<mediatype>video</mediatype>
							<trackindex>1</trackindex>
							<clipindex>115</clipindex>
						</link>
						<link>
							<linkclipref>clipitem-250</linkclipref>
							<mediatype>audio</mediatype>
							<trackindex>1</trackindex>
							<clipindex>115</clipindex>
							<groupindex>1</groupindex>
						</link>
						<link>
							<linkclipref>clipitem-385</linkclipref>
							<mediatype>audio</mediatype>
							<trackindex>2</trackindex>
							<clipindex>115</clipindex>
							<groupindex>1</groupindex>
						</link>
					</clipitem>
					<clipitem id="clipitem-116">
						<masterclipid>masterclip-2</masterclipid>
						<name>out</name>
						<start>3752</start>
						<end>3786</end>
						<in>31036</in>
						<out>31070</out>
						<file id="file-1" />
						<link>
							<linkclipref>clipitem-116</linkclipref>
							<mediatype>video</mediatype>
							<trackindex>1</trackindex>
							<clipindex>116</clipindex>
						</link>
						<link>
							<linkclipref>clipitem-251</linkclipref>
							<mediatype>audio</mediatype>
							<trackindex>1</trackindex>
							<clipindex>116</clipindex>
							<groupindex>1</groupindex>
						</link>
						<link>
							<linkclipref>clipitem-386</linkclipref>
							<mediatype>audio</mediatype>
							<trackindex>2</trackindex>
							<clipindex>116</clipindex>
							<groupindex>1</groupindex>
						</link>
					</clipitem>
					<clipitem id="clipitem-117">
						<masterclipid>masterclip-2</masterclipid>
						<name>out</name>
						<start>3786</start>
						<end>3813</end>
						<in>31167</in>
						<out>31194</out>
						<file id="file-1" />
						<link>
							<linkclipref>clipitem-117</linkclipref>
							<mediatype>video</mediatype>
							<trackindex>1</trackindex>
							<clipindex>117</clipindex>
						</link>
						<link>
							<linkclipref>clipitem-252</linkclipref>
							<mediatype>audio</mediatype>
							<trackindex>1</trackindex>
							<clipindex>117</clipindex>
							<groupindex>1</groupindex>
						</link>
						<link>
							<linkclipref>clipitem-387</linkclipref>
							<mediatype>audio</mediatype>
							<trackindex>2</trackindex>
							<clipindex>117</clipindex>
							<groupindex>1</groupindex>
						</link>
					</clipitem>
					<clipitem id="clipitem-118">
						<masterclipid>masterclip-2</masterclipid>
						<name>out</name>
						<start>3813</start>
						<end>3840</end>
						<in>31370</in>
						<out>31397</out>
						<file id="file-1" />
						<link>
							<linkclipref>clipitem-118</linkclipref>
							<mediatype>video</mediatype>
							<trackindex>1</trackindex>
							<clipindex>118</clipindex>
						</link>
						<link>
							<linkclipref>clipitem-253</linkclipref>
							<mediatype>audio</mediatype>
							<trackindex>1</trackindex>
							<clipindex>118</clipindex>
							<groupindex>1</groupindex>
						</link>
						<link>
							<linkclipref>clipitem-388</linkclipref>
							<mediatype>audio</mediatype>
							<trackindex>2</trackindex>
							<clipindex>118</clipindex>
							<groupindex>1</groupindex>
						</link>
					</clipitem>
					<clipitem id="clipitem-119">
						<masterclipid>masterclip-2</masterclipid>
						<name>out</name>
						<start>3840</start>
						<end>3867</end>
						<in>31458</in>
						<out>31485</out>
						<file id="file-1" />
						<link>
							<linkclipref>clipitem-119</linkclipref>
							<mediatype>video</mediatype>
							<trackindex>1</trackindex>
							<clipindex>119</clipindex>
						</link>
						<link>
							<linkclipref>clipitem-254</linkclipref>
							<mediatype>audio</mediatype>
							<trackindex>1</trackindex>
							<clipindex>119</clipindex>
							<groupindex>1</groupindex>
						</link>
						<link>
							<linkclipref>clipitem-389</linkclipref>
							<mediatype>audio</mediatype>
							<trackindex>2</trackindex>
							<clipindex>119</clipindex>
							<groupindex>1</groupindex>
						</link>
					</clipitem>
					<clipitem id="clipitem-120">
						<masterclipid>masterclip-2</masterclipid>
						<name>out</name>
						<start>3867</start>
						<end>3901</end>
						<in>31499</in>
						<out>31533</out>
						<file id="file-1" />
						<link>
							<linkclipref>clipitem-120</linkclipref>
							<mediatype>video</mediatype>
							<trackindex>1</trackindex>
							<clipindex>120</clipindex>
						</link>
						<link>
							<linkclipref>clipitem-255</linkclipref>
							<mediatype>audio</mediatype>
							<trackindex>1</trackindex>
							<clipindex>120</clipindex>
							<groupindex>1</groupindex>
						</link>
						<link>
							<linkclipref>clipitem-390</linkclipref>
							<mediatype>audio</mediatype>
							<trackindex>2</trackindex>
							<clipindex>120</clipindex>
							<groupindex>1</groupindex>
						</link>
					</clipitem>
					<clipitem id="clipitem-121">
						<masterclipid>masterclip-2</masterclipid>
						<name>out</name>
						<start>3901</start>
						<end>3934</end>
						<in>31547</in>
						<out>31580</out>
						<file id="file-1" />
						<link>
							<linkclipref>clipitem-121</linkclipref>
							<mediatype>video</mediatype>
							<trackindex>1</trackindex>
							<clipindex>121</clipindex>
						</link>
						<link>
							<linkclipref>clipitem-256</linkclipref>
							<mediatype>audio</mediatype>
							<trackindex>1</trackindex>
							<clipindex>121</clipindex>
							<groupindex>1</groupindex>
						</link>
						<link>
							<linkclipref>clipitem-391</linkclipref>
							<mediatype>audio</mediatype>
							<trackindex>2</trackindex>
							<clipindex>121</clipindex>
							<groupindex>1</groupindex>
						</link>
					</clipitem>
					<clipitem id="clipitem-122">
						<masterclipid>masterclip-2</masterclipid>
						<name>out</name>
						<start>3934</start>
						<end>3961</end>
						<in>31958</in>
						<out>31985</out>
						<file id="file-1" />
						<link>
							<linkclipref>clipitem-122</linkclipref>
							<mediatype>video</mediatype>
							<trackindex>1</trackindex>
							<clipindex>122</clipindex>
						</link>
						<link>
							<linkclipref>clipitem-257</linkclipref>
							<mediatype>audio</mediatype>
							<trackindex>1</trackindex>
							<clipindex>122</clipindex>
							<groupindex>1</groupindex>
						</link>
						<link>
							<linkclipref>clipitem-392</linkclipref>
							<mediatype>audio</mediatype>
							<trackindex>2</trackindex>
							<clipindex>122</clipindex>
							<groupindex>1</groupindex>
						</link>
					</clipitem>
					<clipitem id="clipitem-123">
						<masterclipid>masterclip-2</masterclipid>
						<name>out</name>
						<start>3961</start>
						<end>3989</end>
						<in>32212</in>
						<out>32240</out>
						<file id="file-1" />
						<link>
							<linkclipref>clipitem-123</linkclipref>
							<mediatype>video</mediatype>
							<trackindex>1</trackindex>
							<clipindex>123</clipindex>
						</link>
						<link>
							<linkclipref>clipitem-258</linkclipref>
							<mediatype>audio</mediatype>
							<trackindex>1</trackindex>
							<clipindex>123</clipindex>
							<groupindex>1</groupindex>
						</link>
						<link>
							<linkclipref>clipitem-393</linkclipref>
							<mediatype>audio</mediatype>
							<trackindex>2</trackindex>
							<clipindex>123</clipindex>
							<groupindex>1</groupindex>
						</link>
					</clipitem>
					<clipitem id="clipitem-124">
						<masterclipid>masterclip-2</masterclipid>
						<name>out</name>
						<start>3989</start>
						<end>4016</end>
						<in>32246</in>
						<out>32273</out>
						<file id="file-1" />
						<link>
							<linkclipref>clipitem-124</linkclipref>
							<mediatype>video</mediatype>
							<trackindex>1</trackindex>
							<clipindex>124</clipindex>
						</link>
						<link>
							<linkclipref>clipitem-259</linkclipref>
							<mediatype>audio</mediatype>
							<trackindex>1</trackindex>
							<clipindex>124</clipindex>
							<groupindex>1</groupindex>
						</link>
						<link>
							<linkclipref>clipitem-394</linkclipref>
							<mediatype>audio</mediatype>
							<trackindex>2</trackindex>
							<clipindex>124</clipindex>
							<groupindex>1</groupindex>
						</link>
					</clipitem>
					<clipitem id="clipitem-125">
						<masterclipid>masterclip-2</masterclipid>
						<name>out</name>
						<start>4016</start>
						<end>4052</end>
						<in>32379</in>
						<out>32415</out>
						<file id="file-1" />
						<link>
							<linkclipref>clipitem-125</linkclipref>
							<mediatype>video</mediatype>
							<trackindex>1</trackindex>
							<clipindex>125</clipindex>
						</link>
						<link>
							<linkclipref>clipitem-260</linkclipref>
							<mediatype>audio</mediatype>
							<trackindex>1</trackindex>
							<clipindex>125</clipindex>
							<groupindex>1</groupindex>
						</link>
						<link>
							<linkclipref>clipitem-395</linkclipref>
							<mediatype>audio</mediatype>
							<trackindex>2</trackindex>
							<clipindex>125</clipindex>
							<groupindex>1</groupindex>
						</link>
					</clipitem>
					<clipitem id="clipitem-126">
						<masterclipid>masterclip-2</masterclipid>
						<name>out</name>
						<start>4052</start>
						<end>4083</end>
						<in>32584</in>
						<out>32615</out>
						<file id="file-1" />
						<link>
							<linkclipref>clipitem-126</linkclipref>
							<mediatype>video</mediatype>
							<trackindex>1</trackindex>
							<clipindex>126</clipindex>
						</link>
						<link>
							<linkclipref>clipitem-261</linkclipref>
							<mediatype>audio</mediatype>
							<trackindex>1</trackindex>
							<clipindex>126</clipindex>
							<groupindex>1</groupindex>
						</link>
						<link>
							<linkclipref>clipitem-396</linkclipref>
							<mediatype>audio</mediatype>
							<trackindex>2</trackindex>
							<clipindex>126</clipindex>
							<groupindex>1</groupindex>
						</link>
					</clipitem>
					<clipitem id="clipitem-127">
						<masterclipid>masterclip-2</masterclipid>
						<name>out</name>
						<start>4083</start>
						<end>4110</end>
						<in>33076</in>
						<out>33103</out>
						<file id="file-1" />
						<link>
							<linkclipref>clipitem-127</linkclipref>
							<mediatype>video</mediatype>
							<trackindex>1</trackindex>
							<clipindex>127</clipindex>
						</link>
						<link>
							<linkclipref>clipitem-262</linkclipref>
							<mediatype>audio</mediatype>
							<trackindex>1</trackindex>
							<clipindex>127</clipindex>
							<groupindex>1</groupindex>
						</link>
						<link>
							<linkclipref>clipitem-397</linkclipref>
							<mediatype>audio</mediatype>
							<trackindex>2</trackindex>
							<clipindex>127</clipindex>
							<groupindex>1</groupindex>
						</link>
					</clipitem>
					<clipitem id="clipitem-128">
						<masterclipid>masterclip-2</masterclipid>
						<name>out</name>
						<start>4110</start>
						<end>4150</end>
						<in>33910</in>
						<out>33950</out>
						<file id="file-1" />
						<link>
							<linkclipref>clipitem-128</linkclipref>
							<mediatype>video</mediatype>
							<trackindex>1</trackindex>
							<clipindex>128</clipindex>
						</link>
						<link>
							<linkclipref>clipitem-263</linkclipref>
							<mediatype>audio</mediatype>
							<trackindex>1</trackindex>
							<clipindex>128</clipindex>
							<groupindex>1</groupindex>
						</link>
						<link>
							<linkclipref>clipitem-398</linkclipref>
							<mediatype>audio</mediatype>
							<trackindex>2</trackindex>
							<clipindex>128</clipindex>
							<groupindex>1</groupindex>
						</link>
					</clipitem>
					<clipitem id="clipitem-129">
						<masterclipid>masterclip-2</masterclipid>
						<name>out</name>
						<start>4150</start>
						<end>4224</end>
						<in>33969</in>
						<out>34043</out>
						<file id="file-1" />
						<link>
							<linkclipref>clipitem-129</linkclipref>
							<mediatype>video</mediatype>
							<trackindex>1</trackindex>
							<clipindex>129</clipindex>
						</link>
						<link>
							<linkclipref>clipitem-264</linkclipref>
							<mediatype>audio</mediatype>
							<trackindex>1</trackindex>
							<clipindex>129</clipindex>
							<groupindex>1</groupindex>
						</link>
						<link>
							<linkclipref>clipitem-399</linkclipref>
							<mediatype>audio</mediatype>
							<trackindex>2</trackindex>
							<clipindex>129</clipindex>
							<groupindex>1</groupindex>
						</link>
					</clipitem>
					<clipitem id="clipitem-130">
						<masterclipid>masterclip-2</masterclipid>
						<name>out</name>
						<start>4224</start>
						<end>4259</end>
						<in>34112</in>
						<out>34147</out>
						<file id="file-1" />
						<link>
							<linkclipref>clipitem-130</linkclipref>
							<mediatype>video</mediatype>
							<trackindex>1</trackindex>
							<clipindex>130</clipindex>
						</link>
						<link>
							<linkclipref>clipitem-265</linkclipref>
							<mediatype>audio</mediatype>
							<trackindex>1</trackindex>
							<clipindex>130</clipindex>
							<groupindex>1</groupindex>
						</link>
						<link>
							<linkclipref>clipitem-400</linkclipref>
							<mediatype>audio</mediatype>
							<trackindex>2</trackindex>
							<clipindex>130</clipindex>
							<groupindex>1</groupindex>
						</link>
					</clipitem>
					<clipitem id="clipitem-131">
						<masterclipid>masterclip-2</masterclipid>
						<name>out</name>
						<start>4259</start>
						<end>4308</end>
						<in>34150</in>
						<out>34199</out>
						<file id="file-1" />
						<link>
							<linkclipref>clipitem-131</linkclipref>
							<mediatype>video</mediatype>
							<trackindex>1</trackindex>
							<clipindex>131</clipindex>
						</link>
						<link>
							<linkclipref>clipitem-266</linkclipref>
							<mediatype>audio</mediatype>
							<trackindex>1</trackindex>
							<clipindex>131</clipindex>
							<groupindex>1</groupindex>
						</link>
						<link>
							<linkclipref>clipitem-401</linkclipref>
							<mediatype>audio</mediatype>
							<trackindex>2</trackindex>
							<clipindex>131</clipindex>
							<groupindex>1</groupindex>
						</link>
					</clipitem>
					<clipitem id="clipitem-132">
						<masterclipid>masterclip-2</masterclipid>
						<name>out</name>
						<start>4308</start>
						<end>4335</end>
						<in>35667</in>
						<out>35694</out>
						<file id="file-1" />
						<link>
							<linkclipref>clipitem-132</linkclipref>
							<mediatype>video</mediatype>
							<trackindex>1</trackindex>
							<clipindex>132</clipindex>
						</link>
						<link>
							<linkclipref>clipitem-267</linkclipref>
							<mediatype>audio</mediatype>
							<trackindex>1</trackindex>
							<clipindex>132</clipindex>
							<groupindex>1</groupindex>
						</link>
						<link>
							<linkclipref>clipitem-402</linkclipref>
							<mediatype>audio</mediatype>
							<trackindex>2</trackindex>
							<clipindex>132</clipindex>
							<groupindex>1</groupindex>
						</link>
					</clipitem>
					<clipitem id="clipitem-133">
						<masterclipid>masterclip-2</masterclipid>
						<name>out</name>
						<start>4335</start>
						<end>4368</end>
						<in>36082</in>
						<out>36115</out>
						<file id="file-1" />
						<link>
							<linkclipref>clipitem-133</linkclipref>
							<mediatype>video</mediatype>
							<trackindex>1</trackindex>
							<clipindex>133</clipindex>
						</link>
						<link>
							<linkclipref>clipitem-268</linkclipref>
							<mediatype>audio</mediatype>
							<trackindex>1</trackindex>
							<clipindex>133</clipindex>
							<groupindex>1</groupindex>
						</link>
						<link>
							<linkclipref>clipitem-403</linkclipref>
							<mediatype>audio</mediatype>
							<trackindex>2</trackindex>
							<clipindex>133</clipindex>
							<groupindex>1</groupindex>
						</link>
					</clipitem>
					<clipitem id="clipitem-134">
						<masterclipid>masterclip-2</masterclipid>
						<name>out</name>
						<start>4368</start>
						<end>4409</end>
						<in>36223</in>
						<out>36264</out>
						<file id="file-1" />
						<link>
							<linkclipref>clipitem-134</linkclipref>
							<mediatype>video</mediatype>
							<trackindex>1</trackindex>
							<clipindex>134</clipindex>
						</link>
						<link>
							<linkclipref>clipitem-269</linkclipref>
							<mediatype>audio</mediatype>
							<trackindex>1</trackindex>
							<clipindex>134</clipindex>
							<groupindex>1</groupindex>
						</link>
						<link>
							<linkclipref>clipitem-404</linkclipref>
							<mediatype>audio</mediatype>
							<trackindex>2</trackindex>
							<clipindex>134</clipindex>
							<groupindex>1</groupindex>
						</link>
					</clipitem>
					<clipitem id="clipitem-135">
						<masterclipid>masterclip-2</masterclipid>
						<name>out</name>
						<start>4409</start>
						<end>4425</end>
						<in>36282</in>
						<out>36298</out>
						<file id="file-1" />
						<link>
							<linkclipref>clipitem-135</linkclipref>
							<mediatype>video</mediatype>
							<trackindex>1</trackindex>
							<clipindex>135</clipindex>
						</link>
						<link>
							<linkclipref>clipitem-270</linkclipref>
							<mediatype>audio</mediatype>
							<trackindex>1</trackindex>
							<clipindex>135</clipindex>
							<groupindex>1</groupindex>
						</link>
						<link>
							<linkclipref>clipitem-405</linkclipref>
							<mediatype>audio</mediatype>
							<trackindex>2</trackindex>
							<clipindex>135</clipindex>
							<groupindex>1</groupindex>
						</link>
					</clipitem>
				</track>
			</video>
			<audio>
				<numOutputChannels>2</numOutputChannels>
				<format>
					<samplecharacteristics>
						<depth>16</depth>
						<samplerate>48000</samplerate>
					</samplecharacteristics>
				</format>
				<track currentExplodedTrackIndex="0" premiereTrackType="Stereo">
					<clipitem id="clipitem-136" premiereChannelType="stereo">
						<masterclipid>masterclip-2</masterclipid>
						<name>out</name>
						<start>0</start>
						<end>70</end>
						<in>13</in>
						<out>83</out>
						<file id="file-1" />
						<sourcetrack>
							<mediatype>audio</mediatype>
							<trackindex>1</trackindex>
						</sourcetrack>
						<labels>
							<label2>Iris</label2>
						</labels>
						<outputchannelindex>1</outputchannelindex>
					</clipitem>
					<clipitem id="clipitem-137" premiereChannelType="stereo">
						<masterclipid>masterclip-2</masterclipid>
						<name>out</name>
						<start>70</start>
						<end>100</end>
						<in>88</in>
						<out>118</out>
						<file id="file-1" />
						<sourcetrack>
							<mediatype>audio</mediatype>
							<trackindex>1</trackindex>
						</sourcetrack>
						<labels>
							<label2>Iris</label2>
						</labels>
						<outputchannelindex>1</outputchannelindex>
					</clipitem>
					<clipitem id="clipitem-138" premiereChannelType="stereo">
						<masterclipid>masterclip-2</masterclipid>
						<name>out</name>
						<start>100</start>
						<end>212</end>
						<in>275</in>
						<out>387</out>
						<file id="file-1" />
						<sourcetrack>
							<mediatype>audio</mediatype>
							<trackindex>1</trackindex>
						</sourcetrack>
						<labels>
							<label2>Iris</label2>
						</labels>
						<outputchannelindex>1</outputchannelindex>
					</clipitem>
					<clipitem id="clipitem-139" premiereChannelType="stereo">
						<masterclipid>masterclip-2</masterclipid>
						<name>out</name>
						<start>212</start>
						<end>259</end>
						<in>900</in>
						<out>947</out>
						<file id="file-1" />
						<sourcetrack>
							<mediatype>audio</mediatype>
							<trackindex>1</trackindex>
						</sourcetrack>
						<labels>
							<label2>Iris</label2>
						</labels>
						<outputchannelindex>1</outputchannelindex>
					</clipitem>
					<clipitem id="clipitem-140" premiereChannelType="stereo">
						<masterclipid>masterclip-2</masterclipid>
						<name>out</name>
						<start>259</start>
						<end>292</end>
						<in>973</in>
						<out>1006</out>
						<file id="file-1" />
						<sourcetrack>
							<mediatype>audio</mediatype>
							<trackindex>1</trackindex>
						</sourcetrack>
						<labels>
							<label2>Iris</label2>
						</labels>
						<outputchannelindex>1</outputchannelindex>
					</clipitem>
					<clipitem id="clipitem-141" premiereChannelType="stereo">
						<masterclipid>masterclip-2</masterclipid>
						<name>out</name>
						<start>292</start>
						<end>330</end>
						<in>1038</in>
						<out>1076</out>
						<file id="file-1" />
						<sourcetrack>
							<mediatype>audio</mediatype>
							<trackindex>1</trackindex>
						</sourcetrack>
						<labels>
							<label2>Iris</label2>
						</labels>
						<outputchannelindex>1</outputchannelindex>
					</clipitem>
					<clipitem id="clipitem-142" premiereChannelType="stereo">
						<masterclipid>masterclip-2</masterclipid>
						<name>out</name>
						<start>330</start>
						<end>382</end>
						<in>1137</in>
						<out>1189</out>
						<file id="file-1" />
						<sourcetrack>
							<mediatype>audio</mediatype>
							<trackindex>1</trackindex>
						</sourcetrack>
						<labels>
							<label2>Iris</label2>
						</labels>
						<outputchannelindex>1</outputchannelindex>
					</clipitem>
					<clipitem id="clipitem-143" premiereChannelType="stereo">
						<masterclipid>masterclip-2</masterclipid>
						<name>out</name>
						<start>382</start>
						<end>416</end>
						<in>1313</in>
						<out>1347</out>
						<file id="file-1" />
						<sourcetrack>
							<mediatype>audio</mediatype>
							<trackindex>1</trackindex>
						</sourcetrack>
						<labels>
							<label2>Iris</label2>
						</labels>
						<outputchannelindex>1</outputchannelindex>
					</clipitem>
					<clipitem id="clipitem-144" premiereChannelType="stereo">
						<masterclipid>masterclip-2</masterclipid>
						<name>out</name>
						<start>416</start>
						<end>443</end>
						<in>1350</in>
						<out>1377</out>
						<file id="file-1" />
						<sourcetrack>
							<mediatype>audio</mediatype>
							<trackindex>1</trackindex>
						</sourcetrack>
						<labels>
							<label2>Iris</label2>
						</labels>
						<outputchannelindex>1</outputchannelindex>
					</clipitem>
					<clipitem id="clipitem-145" premiereChannelType="stereo">
						<masterclipid>masterclip-2</masterclipid>
						<name>out</name>
						<start>443</start>
						<end>479</end>
						<in>1386</in>
						<out>1422</out>
						<file id="file-1" />
						<sourcetrack>
							<mediatype>audio</mediatype>
							<trackindex>1</trackindex>
						</sourcetrack>
						<labels>
							<label2>Iris</label2>
						</labels>
						<outputchannelindex>1</outputchannelindex>
					</clipitem>
					<clipitem id="clipitem-146" premiereChannelType="stereo">
						<masterclipid>masterclip-2</masterclipid>
						<name>out</name>
						<start>479</start>
						<end>519</end>
						<in>1519</in>
						<out>1559</out>
						<file id="file-1" />
						<sourcetrack>
							<mediatype>audio</mediatype>
							<trackindex>1</trackindex>
						</sourcetrack>
						<labels>
							<label2>Iris</label2>
						</labels>
						<outputchannelindex>1</outputchannelindex>
					</clipitem>
					<clipitem id="clipitem-147" premiereChannelType="stereo">
						<masterclipid>masterclip-2</masterclipid>
						<name>out</name>
						<start>519</start>
						<end>546</end>
						<in>1587</in>
						<out>1614</out>
						<file id="file-1" />
						<sourcetrack>
							<mediatype>audio</mediatype>
							<trackindex>1</trackindex>
						</sourcetrack>
						<labels>
							<label2>Iris</label2>
						</labels>
						<outputchannelindex>1</outputchannelindex>
					</clipitem>
					<clipitem id="clipitem-148" premiereChannelType="stereo">
						<masterclipid>masterclip-2</masterclipid>
						<name>out</name>
						<start>546</start>
						<end>585</end>
						<in>1651</in>
						<out>1690</out>
						<file id="file-1" />
						<sourcetrack>
							<mediatype>audio</mediatype>
							<trackindex>1</trackindex>
						</sourcetrack>
						<labels>
							<label2>Iris</label2>
						</labels>
						<outputchannelindex>1</outputchannelindex>
					</clipitem>
					<clipitem id="clipitem-149" premiereChannelType="stereo">
						<masterclipid>masterclip-2</masterclipid>
						<name>out</name>
						<start>585</start>
						<end>613</end>
						<in>2048</in>
						<out>2076</out>
						<file id="file-1" />
						<sourcetrack>
							<mediatype>audio</mediatype>
							<trackindex>1</trackindex>
						</sourcetrack>
						<labels>
							<label2>Iris</label2>
						</labels>
						<outputchannelindex>1</outputchannelindex>
					</clipitem>
					<clipitem id="clipitem-150" premiereChannelType="stereo">
						<masterclipid>masterclip-2</masterclipid>
						<name>out</name>
						<start>613</start>
						<end>642</end>
						<in>4451</in>
						<out>4480</out>
						<file id="file-1" />
						<sourcetrack>
							<mediatype>audio</mediatype>
							<trackindex>1</trackindex>
						</sourcetrack>
						<labels>
							<label2>Iris</label2>
						</labels>
						<outputchannelindex>1</outputchannelindex>
					</clipitem>
					<clipitem id="clipitem-151" premiereChannelType="stereo">
						<masterclipid>masterclip-2</masterclipid>
						<name>out</name>
						<start>642</start>
						<end>669</end>
						<in>5254</in>
						<out>5281</out>
						<file id="file-1" />
						<sourcetrack>
							<mediatype>audio</mediatype>
							<trackindex>1</trackindex>
						</sourcetrack>
						<labels>
							<label2>Iris</label2>
						</labels>
						<outputchannelindex>1</outputchannelindex>
					</clipitem>
					<clipitem id="clipitem-152" premiereChannelType="stereo">
						<masterclipid>masterclip-2</masterclipid>
						<name>out</name>
						<start>669</start>
						<end>696</end>
						<in>5919</in>
						<out>5946</out>
						<file id="file-1" />
						<sourcetrack>
							<mediatype>audio</mediatype>
							<trackindex>1</trackindex>
						</sourcetrack>
						<labels>
							<label2>Iris</label2>
						</labels>
						<outputchannelindex>1</outputchannelindex>
					</clipitem>
					<clipitem id="clipitem-153" premiereChannelType="stereo">
						<masterclipid>masterclip-2</masterclipid>
						<name>out</name>
						<start>696</start>
						<end>723</end>
						<in>6145</in>
						<out>6172</out>
						<file id="file-1" />
						<sourcetrack>
							<mediatype>audio</mediatype>
							<trackindex>1</trackindex>
						</sourcetrack>
						<labels>
							<label2>Iris</label2>
						</labels>
						<outputchannelindex>1</outputchannelindex>
					</clipitem>
					<clipitem id="clipitem-154" premiereChannelType="stereo">
						<masterclipid>masterclip-2</masterclipid>
						<name>out</name>
						<start>723</start>
						<end>750</end>
						<in>6822</in>
						<out>6849</out>
						<file id="file-1" />
						<sourcetrack>
							<mediatype>audio</mediatype>
							<trackindex>1</trackindex>
						</sourcetrack>
						<labels>
							<label2>Iris</label2>
						</labels>
						<outputchannelindex>1</outputchannelindex>
					</clipitem>
					<clipitem id="clipitem-155" premiereChannelType="stereo">
						<masterclipid>masterclip-2</masterclipid>
						<name>out</name>
						<start>750</start>
						<end>777</end>
						<in>6928</in>
						<out>6955</out>
						<file id="file-1" />
						<sourcetrack>
							<mediatype>audio</mediatype>
							<trackindex>1</trackindex>
						</sourcetrack>
						<labels>
							<label2>Iris</label2>
						</labels>
						<outputchannelindex>1</outputchannelindex>
					</clipitem>
					<clipitem id="clipitem-156" premiereChannelType="stereo">
						<masterclipid>masterclip-2</masterclipid>
						<name>out</name>
						<start>777</start>
						<end>807</end>
						<in>7122</in>
						<out>7152</out>
						<file id="file-1" />
						<sourcetrack>
							<mediatype>audio</mediatype>
							<trackindex>1</trackindex>
						</sourcetrack>
						<labels>
							<label2>Iris</label2>
						</labels>
						<outputchannelindex>1</outputchannelindex>
					</clipitem>
					<clipitem id="clipitem-157" premiereChannelType="stereo">
						<masterclipid>masterclip-2</masterclipid>
						<name>out</name>
						<start>807</start>
						<end>834</end>
						<in>7299</in>
						<out>7326</out>
						<file id="file-1" />
						<sourcetrack>
							<mediatype>audio</mediatype>
							<trackindex>1</trackindex>
						</sourcetrack>
						<labels>
							<label2>Iris</label2>
						</labels>
						<outputchannelindex>1</outputchannelindex>
					</clipitem>
					<clipitem id="clipitem-158" premiereChannelType="stereo">
						<masterclipid>masterclip-2</masterclipid>
						<name>out</name>
						<start>834</start>
						<end>861</end>
						<in>7666</in>
						<out>7693</out>
						<file id="file-1" />
						<sourcetrack>
							<mediatype>audio</mediatype>
							<trackindex>1</trackindex>
						</sourcetrack>
						<labels>
							<label2>Iris</label2>
						</labels>
						<outputchannelindex>1</outputchannelindex>
					</clipitem>
					<clipitem id="clipitem-159" premiereChannelType="stereo">
						<masterclipid>masterclip-2</masterclipid>
						<name>out</name>
						<start>861</start>
						<end>898</end>
						<in>9405</in>
						<out>9442</out>
						<file id="file-1" />
						<sourcetrack>
							<mediatype>audio</mediatype>
							<trackindex>1</trackindex>
						</sourcetrack>
						<labels>
							<label2>Iris</label2>
						</labels>
						<outputchannelindex>1</outputchannelindex>
					</clipitem>
					<clipitem id="clipitem-160" premiereChannelType="stereo">
						<masterclipid>masterclip-2</masterclipid>
						<name>out</name>
						<start>898</start>
						<end>925</end>
						<in>9589</in>
						<out>9616</out>
						<file id="file-1" />
						<sourcetrack>
							<mediatype>audio</mediatype>
							<trackindex>1</trackindex>
						</sourcetrack>
						<labels>
							<label2>Iris</label2>
						</labels>
						<outputchannelindex>1</outputchannelindex>
					</clipitem>
					<clipitem id="clipitem-161" premiereChannelType="stereo">
						<masterclipid>masterclip-2</masterclipid>
						<name>out</name>
						<start>925</start>
						<end>952</end>
						<in>9666</in>
						<out>9693</out>
						<file id="file-1" />
						<sourcetrack>
							<mediatype>audio</mediatype>
							<trackindex>1</trackindex>
						</sourcetrack>
						<labels>
							<label2>Iris</label2>
						</labels>
						<outputchannelindex>1</outputchannelindex>
					</clipitem>
					<clipitem id="clipitem-162" premiereChannelType="stereo">
						<masterclipid>masterclip-2</masterclipid>
						<name>out</name>
						<start>952</start>
						<end>980</end>
						<in>9781</in>
						<out>9809</out>
						<file id="file-1" />
						<sourcetrack>
							<mediatype>audio</mediatype>
							<trackindex>1</trackindex>
						</sourcetrack>
						<labels>
							<label2>Iris</label2>
						</labels>
						<outputchannelindex>1</outputchannelindex>
					</clipitem>
					<clipitem id="clipitem-163" premiereChannelType="stereo">
						<masterclipid>masterclip-2</masterclipid>
						<name>out</name>
						<start>980</start>
						<end>1007</end>
						<in>10130</in>
						<out>10157</out>
						<file id="file-1" />
						<sourcetrack>
							<mediatype>audio</mediatype>
							<trackindex>1</trackindex>
						</sourcetrack>
						<labels>
							<label2>Iris</label2>
						</labels>
						<outputchannelindex>1</outputchannelindex>
					</clipitem>
					<clipitem id="clipitem-164" premiereChannelType="stereo">
						<masterclipid>masterclip-2</masterclipid>
						<name>out</name>
						<start>1007</start>
						<end>1035</end>
						<in>10199</in>
						<out>10227</out>
						<file id="file-1" />
						<sourcetrack>
							<mediatype>audio</mediatype>
							<trackindex>1</trackindex>
						</sourcetrack>
						<labels>
							<label2>Iris</label2>
						</labels>
						<outputchannelindex>1</outputchannelindex>
					</clipitem>
					<clipitem id="clipitem-165" premiereChannelType="stereo">
						<masterclipid>masterclip-2</masterclipid>
						<name>out</name>
						<start>1035</start>
						<end>1062</end>
						<in>10311</in>
						<out>10338</out>
						<file id="file-1" />
						<sourcetrack>
							<mediatype>audio</mediatype>
							<trackindex>1</trackindex>
						</sourcetrack>
						<labels>
							<label2>Iris</label2>
						</labels>
						<outputchannelindex>1</outputchannelindex>
					</clipitem>
					<clipitem id="clipitem-166" premiereChannelType="stereo">
						<masterclipid>masterclip-2</masterclipid>
						<name>out</name>
						<start>1062</start>
						<end>1091</end>
						<in>10355</in>
						<out>10384</out>
						<file id="file-1" />
						<sourcetrack>
							<mediatype>audio</mediatype>
							<trackindex>1</trackindex>
						</sourcetrack>
						<labels>
							<label2>Iris</label2>
						</labels>
						<outputchannelindex>1</outputchannelindex>
					</clipitem>
					<clipitem id="clipitem-167" premiereChannelType="stereo">
						<masterclipid>masterclip-2</masterclipid>
						<name>out</name>
						<start>1091</start>
						<end>1118</end>
						<in>10765</in>
						<out>10792</out>
						<file id="file-1" />
						<sourcetrack>
							<mediatype>audio</mediatype>
							<trackindex>1</trackindex>
						</sourcetrack>
						<labels>
							<label2>Iris</label2>
						</labels>
						<outputchannelindex>1</outputchannelindex>
					</clipitem>
					<clipitem id="clipitem-168" premiereChannelType="stereo">
						<masterclipid>masterclip-2</masterclipid>
						<name>out</name>
						<start>1118</start>
						<end>1146</end>
						<in>10849</in>
						<out>10877</out>
						<file id="file-1" />
						<sourcetrack>
							<mediatype>audio</mediatype>
							<trackindex>1</trackindex>
						</sourcetrack>
						<labels>
							<label2>Iris</label2>
						</labels>
						<outputchannelindex>1</outputchannelindex>
					</clipitem>
					<clipitem id="clipitem-169" premiereChannelType="stereo">
						<masterclipid>masterclip-2</masterclipid>
						<name>out</name>
						<start>1146</start>
						<end>1176</end>
						<in>10911</in>
						<out>10941</out>
						<file id="file-1" />
						<sourcetrack>
							<mediatype>audio</mediatype>
							<trackindex>1</trackindex>
						</sourcetrack>
						<labels>
							<label2>Iris</label2>
						</labels>
						<outputchannelindex>1</outputchannelindex>
					</clipitem>
					<clipitem id="clipitem-170" premiereChannelType="stereo">
						<masterclipid>masterclip-2</masterclipid>
						<name>out</name>
						<start>1176</start>
						<end>1204</end>
						<in>11258</in>
						<out>11286</out>
						<file id="file-1" />
						<sourcetrack>
							<mediatype>audio</mediatype>
							<trackindex>1</trackindex>
						</sourcetrack>
						<labels>
							<label2>Iris</label2>
						</labels>
						<outputchannelindex>1</outputchannelindex>
					</clipitem>
					<clipitem id="clipitem-171" premiereChannelType="stereo">
						<masterclipid>masterclip-2</masterclipid>
						<name>out</name>
						<start>1204</start>
						<end>1231</end>
						<in>11344</in>
						<out>11371</out>
						<file id="file-1" />
						<sourcetrack>
							<mediatype>audio</mediatype>
							<trackindex>1</trackindex>
						</sourcetrack>
						<labels>
							<label2>Iris</label2>
						</labels>
						<outputchannelindex>1</outputchannelindex>
					</clipitem>
					<clipitem id="clipitem-172" premiereChannelType="stereo">
						<masterclipid>masterclip-2</masterclipid>
						<name>out</name>
						<start>1231</start>
						<end>1258</end>
						<in>11449</in>
						<out>11476</out>
						<file id="file-1" />
						<sourcetrack>
							<mediatype>audio</mediatype>
							<trackindex>1</trackindex>
						</sourcetrack>
						<labels>
							<label2>Iris</label2>
						</labels>
						<outputchannelindex>1</outputchannelindex>
					</clipitem>
					<clipitem id="clipitem-173" premiereChannelType="stereo">
						<masterclipid>masterclip-2</masterclipid>
						<name>out</name>
						<start>1258</start>
						<end>1286</end>
						<in>11564</in>
						<out>11592</out>
						<file id="file-1" />
						<sourcetrack>
							<mediatype>audio</mediatype>
							<trackindex>1</trackindex>
						</sourcetrack>
						<labels>
							<label2>Iris</label2>
						</labels>
						<outputchannelindex>1</outputchannelindex>
					</clipitem>
					<clipitem id="clipitem-174" premiereChannelType="stereo">
						<masterclipid>masterclip-2</masterclipid>
						<name>out</name>
						<start>1286</start>
						<end>1313</end>
						<in>11669</in>
						<out>11696</out>
						<file id="file-1" />
						<sourcetrack>
							<mediatype>audio</mediatype>
							<trackindex>1</trackindex>
						</sourcetrack>
						<labels>
							<label2>Iris</label2>
						</labels>
						<outputchannelindex>1</outputchannelindex>
					</clipitem>
					<clipitem id="clipitem-175" premiereChannelType="stereo">
						<masterclipid>masterclip-2</masterclipid>
						<name>out</name>
						<start>1313</start>
						<end>1346</end>
						<in>11998</in>
						<out>12031</out>
						<file id="file-1" />
						<sourcetrack>
							<mediatype>audio</mediatype>
							<trackindex>1</trackindex>
						</sourcetrack>
						<labels>
							<label2>Iris</label2>
						</labels>
						<outputchannelindex>1</outputchannelindex>
					</clipitem>
					<clipitem id="clipitem-176" premiereChannelType="stereo">
						<masterclipid>masterclip-2</masterclipid>
						<name>out</name>
						<start>1346</start>
						<end>1373</end>
						<in>12152</in>
						<out>12179</out>
						<file id="file-1" />
						<sourcetrack>
							<mediatype>audio</mediatype>
							<trackindex>1</trackindex>
						</sourcetrack>
						<labels>
							<label2>Iris</label2>
						</labels>
						<outputchannelindex>1</outputchannelindex>
					</clipitem>
					<clipitem id="clipitem-177" premiereChannelType="stereo">
						<masterclipid>masterclip-2</masterclipid>
						<name>out</name>
						<start>1373</start>
						<end>1400</end>
						<in>12512</in>
						<out>12539</out>
						<file id="file-1" />
						<sourcetrack>
							<mediatype>audio</mediatype>
							<trackindex>1</trackindex>
						</sourcetrack>
						<labels>
							<label2>Iris</label2>
						</labels>
						<outputchannelindex>1</outputchannelindex>
					</clipitem>
					<clipitem id="clipitem-178" premiereChannelType="stereo">
						<masterclipid>masterclip-2</masterclipid>
						<name>out</name>
						<start>1400</start>
						<end>1427</end>
						<in>12844</in>
						<out>12871</out>
						<file id="file-1" />
						<sourcetrack>
							<mediatype>audio</mediatype>
							<trackindex>1</trackindex>
						</sourcetrack>
						<labels>
							<label2>Iris</label2>
						</labels>
						<outputchannelindex>1</outputchannelindex>
					</clipitem>
					<clipitem id="clipitem-179" premiereChannelType="stereo">
						<masterclipid>masterclip-2</masterclipid>
						<name>out</name>
						<start>1427</start>
						<end>1456</end>
						<in>13206</in>
						<out>13235</out>
						<file id="file-1" />
						<sourcetrack>
							<mediatype>audio</mediatype>
							<trackindex>1</trackindex>
						</sourcetrack>
						<labels>
							<label2>Iris</label2>
						</labels>
						<outputchannelindex>1</outputchannelindex>
					</clipitem>
					<clipitem id="clipitem-180" premiereChannelType="stereo">
						<masterclipid>masterclip-2</masterclipid>
						<name>out</name>
						<start>1456</start>
						<end>1483</end>
						<in>13310</in>
						<out>13337</out>
						<file id="file-1" />
						<sourcetrack>
							<mediatype>audio</mediatype>
							<trackindex>1</trackindex>
						</sourcetrack>
						<labels>
							<label2>Iris</label2>
						</labels>
						<outputchannelindex>1</outputchannelindex>
					</clipitem>
					<clipitem id="clipitem-181" premiereChannelType="stereo">
						<masterclipid>masterclip-2</masterclipid>
						<name>out</name>
						<start>1483</start>
						<end>1510</end>
						<in>13428</in>
						<out>13455</out>
						<file id="file-1" />
						<sourcetrack>
							<mediatype>audio</mediatype>
							<trackindex>1</trackindex>
						</sourcetrack>
						<labels>
							<label2>Iris</label2>
						</labels>
						<outputchannelindex>1</outputchannelindex>
					</clipitem>
					<clipitem id="clipitem-182" premiereChannelType="stereo">
						<masterclipid>masterclip-2</masterclipid>
						<name>out</name>
						<start>1510</start>
						<end>1537</end>
						<in>13704</in>
						<out>13731</out>
						<file id="file-1" />
						<sourcetrack>
							<mediatype>audio</mediatype>
							<trackindex>1</trackindex>
						</sourcetrack>
						<labels>
							<label2>Iris</label2>
						</labels>
						<outputchannelindex>1</outputchannelindex>
					</clipitem>
					<clipitem id="clipitem-183" premiereChannelType="stereo">
						<masterclipid>masterclip-2</masterclipid>
						<name>out</name>
						<start>1537</start>
						<end>1566</end>
						<in>13944</in>
						<out>13973</out>
						<file id="file-1" />
						<sourcetrack>
							<mediatype>audio</mediatype>
							<trackindex>1</trackindex>
						</sourcetrack>
						<labels>
							<label2>Iris</label2>
						</labels>
						<outputchannelindex>1</outputchannelindex>
					</clipitem>
					<clipitem id="clipitem-184" premiereChannelType="stereo">
						<masterclipid>masterclip-2</masterclipid>
						<name>out</name>
						<start>1566</start>
						<end>1593</end>
						<in>14103</in>
						<out>14130</out>
						<file id="file-1" />
						<sourcetrack>
							<mediatype>audio</mediatype>
							<trackindex>1</trackindex>
						</sourcetrack>
						<labels>
							<label2>Iris</label2>
						</labels>
						<outputchannelindex>1</outputchannelindex>
					</clipitem>
					<clipitem id="clipitem-185" premiereChannelType="stereo">
						<masterclipid>masterclip-2</masterclipid>
						<name>out</name>
						<start>1593</start>
						<end>1621</end>
						<in>14141</in>
						<out>14169</out>
						<file id="file-1" />
						<sourcetrack>
							<mediatype>audio</mediatype>
							<trackindex>1</trackindex>
						</sourcetrack>
						<labels>
							<label2>Iris</label2>
						</labels>
						<outputchannelindex>1</outputchannelindex>
					</clipitem>
					<clipitem id="clipitem-186" premiereChannelType="stereo">
						<masterclipid>masterclip-2</masterclipid>
						<name>out</name>
						<start>1621</start>
						<end>1726</end>
						<in>14190</in>
						<out>14295</out>
						<file id="file-1" />
						<sourcetrack>
							<mediatype>audio</mediatype>
							<trackindex>1</trackindex>
						</sourcetrack>
						<labels>
							<label2>Iris</label2>
						</labels>
						<outputchannelindex>1</outputchannelindex>
					</clipitem>
					<clipitem id="clipitem-187" premiereChannelType="stereo">
						<masterclipid>masterclip-2</masterclipid>
						<name>out</name>
						<start>1726</start>
						<end>1784</end>
						<in>14321</in>
						<out>14379</out>
						<file id="file-1" />
						<sourcetrack>
							<mediatype>audio</mediatype>
							<trackindex>1</trackindex>
						</sourcetrack>
						<labels>
							<label2>Iris</label2>
						</labels>
						<outputchannelindex>1</outputchannelindex>
					</clipitem>
					<clipitem id="clipitem-188" premiereChannelType="stereo">
						<masterclipid>masterclip-2</masterclipid>
						<name>out</name>
						<start>1784</start>
						<end>1812</end>
						<in>14409</in>
						<out>14437</out>
						<file id="file-1" />
						<sourcetrack>
							<mediatype>audio</mediatype>
							<trackindex>1</trackindex>
						</sourcetrack>
						<labels>
							<label2>Iris</label2>
						</labels>
						<outputchannelindex>1</outputchannelindex>
					</clipitem>
					<clipitem id="clipitem-189" premiereChannelType="stereo">
						<masterclipid>masterclip-2</masterclipid>
						<name>out</name>
						<start>1812</start>
						<end>1891</end>
						<in>14459</in>
						<out>14538</out>
						<file id="file-1" />
						<sourcetrack>
							<mediatype>audio</mediatype>
							<trackindex>1</trackindex>
						</sourcetrack>
						<labels>
							<label2>Iris</label2>
						</labels>
						<outputchannelindex>1</outputchannelindex>
					</clipitem>
					<clipitem id="clipitem-190" premiereChannelType="stereo">
						<masterclipid>masterclip-2</masterclipid>
						<name>out</name>
						<start>1891</start>
						<end>1925</end>
						<in>14553</in>
						<out>14587</out>
						<file id="file-1" />
						<sourcetrack>
							<mediatype>audio</mediatype>
							<trackindex>1</trackindex>
						</sourcetrack>
						<labels>
							<label2>Iris</label2>
						</labels>
						<outputchannelindex>1</outputchannelindex>
					</clipitem>
					<clipitem id="clipitem-191" premiereChannelType="stereo">
						<masterclipid>masterclip-2</masterclipid>
						<name>out</name>
						<start>1925</start>
						<end>1966</end>
						<in>14706</in>
						<out>14747</out>
						<file id="file-1" />
						<sourcetrack>
							<mediatype>audio</mediatype>
							<trackindex>1</trackindex>
						</sourcetrack>
						<labels>
							<label2>Iris</label2>
						</labels>
						<outputchannelindex>1</outputchannelindex>
					</clipitem>
					<clipitem id="clipitem-192" premiereChannelType="stereo">
						<masterclipid>masterclip-2</masterclipid>
						<name>out</name>
						<start>1966</start>
						<end>2020</end>
						<in>14818</in>
						<out>14872</out>
						<file id="file-1" />
						<sourcetrack>
							<mediatype>audio</mediatype>
							<trackindex>1</trackindex>
						</sourcetrack>
						<labels>
							<label2>Iris</label2>
						</labels>
						<outputchannelindex>1</outputchannelindex>
					</clipitem>
					<clipitem id="clipitem-193" premiereChannelType="stereo">
						<masterclipid>masterclip-2</masterclipid>
						<name>out</name>
						<start>2020</start>
						<end>2050</end>
						<in>14899</in>
						<out>14929</out>
						<file id="file-1" />
						<sourcetrack>
							<mediatype>audio</mediatype>
							<trackindex>1</trackindex>
						</sourcetrack>
						<labels>
							<label2>Iris</label2>
						</labels>
						<outputchannelindex>1</outputchannelindex>
					</clipitem>
					<clipitem id="clipitem-194" premiereChannelType="stereo">
						<masterclipid>masterclip-2</masterclipid>
						<name>out</name>
						<start>2050</start>
						<end>2078</end>
						<in>15365</in>
						<out>15393</out>
						<file id="file-1" />
						<sourcetrack>
							<mediatype>audio</mediatype>
							<trackindex>1</trackindex>
						</sourcetrack>
						<labels>
							<label2>Iris</label2>
						</labels>
						<outputchannelindex>1</outputchannelindex>
					</clipitem>
					<clipitem id="clipitem-195" premiereChannelType="stereo">
						<masterclipid>masterclip-2</masterclipid>
						<name>out</name>
						<start>2078</start>
						<end>2105</end>
						<in>15557</in>
						<out>15584</out>
						<file id="file-1" />
						<sourcetrack>
							<mediatype>audio</mediatype>
							<trackindex>1</trackindex>
						</sourcetrack>
						<labels>
							<label2>Iris</label2>
						</labels>
						<outputchannelindex>1</outputchannelindex>
					</clipitem>
					<clipitem id="clipitem-196" premiereChannelType="stereo">
						<masterclipid>masterclip-2</masterclipid>
						<name>out</name>
						<start>2105</start>
						<end>2132</end>
						<in>15740</in>
						<out>15767</out>
						<file id="file-1" />
						<sourcetrack>
							<mediatype>audio</mediatype>
							<trackindex>1</trackindex>
						</sourcetrack>
						<labels>
							<label2>Iris</label2>
						</labels>
						<outputchannelindex>1</outputchannelindex>
					</clipitem>
					<clipitem id="clipitem-197" premiereChannelType="stereo">
						<masterclipid>masterclip-2</masterclipid>
						<name>out</name>
						<start>2132</start>
						<end>2162</end>
						<in>16219</in>
						<out>16249</out>
						<file id="file-1" />
						<sourcetrack>
							<mediatype>audio</mediatype>
							<trackindex>1</trackindex>
						</sourcetrack>
						<labels>
							<label2>Iris</label2>
						</labels>
						<outputchannelindex>1</outputchannelindex>
					</clipitem>
					<clipitem id="clipitem-198" premiereChannelType="stereo">
						<masterclipid>masterclip-2</masterclipid>
						<name>out</name>
						<start>2162</start>
						<end>2189</end>
						<in>16462</in>
						<out>16489</out>
						<file id="file-1" />
						<sourcetrack>
							<mediatype>audio</mediatype>
							<trackindex>1</trackindex>
						</sourcetrack>
						<labels>
							<label2>Iris</label2>
						</labels>
						<outputchannelindex>1</outputchannelindex>
					</clipitem>
					<clipitem id="clipitem-199" premiereChannelType="stereo">
						<masterclipid>masterclip-2</masterclipid>
						<name>out</name>
						<start>2189</start>
						<end>2216</end>
						<in>17462</in>
						<out>17489</out>
						<file id="file-1" />
						<sourcetrack>
							<mediatype>audio</mediatype>
							<trackindex>1</trackindex>
						</sourcetrack>
						<labels>
							<label2>Iris</label2>
						</labels>
						<outputchannelindex>1</outputchannelindex>
					</clipitem>
					<clipitem id="clipitem-200" premiereChannelType="stereo">
						<masterclipid>masterclip-2</masterclipid>
						<name>out</name>
						<start>2216</start>
						<end>2243</end>
						<in>17551</in>
						<out>17578</out>
						<file id="file-1" />
						<sourcetrack>
							<mediatype>audio</mediatype>
							<trackindex>1</trackindex>
						</sourcetrack>
						<labels>
							<label2>Iris</label2>
						</labels>
						<outputchannelindex>1</outputchannelindex>
					</clipitem>
					<clipitem id="clipitem-201" premiereChannelType="stereo">
						<masterclipid>masterclip-2</masterclipid>
						<name>out</name>
						<start>2243</start>
						<end>2271</end>
						<in>17949</in>
						<out>17977</out>
						<file id="file-1" />
						<sourcetrack>
							<mediatype>audio</mediatype>
							<trackindex>1</trackindex>
						</sourcetrack>
						<labels>
							<label2>Iris</label2>
						</labels>
						<outputchannelindex>1</outputchannelindex>
					</clipitem>
					<clipitem id="clipitem-202" premiereChannelType="stereo">
						<masterclipid>masterclip-2</masterclipid>
						<name>out</name>
						<start>2271</start>
						<end>2298</end>
						<in>18346</in>
						<out>18373</out>
						<file id="file-1" />
						<sourcetrack>
							<mediatype>audio</mediatype>
							<trackindex>1</trackindex>
						</sourcetrack>
						<labels>
							<label2>Iris</label2>
						</labels>
						<outputchannelindex>1</outputchannelindex>
					</clipitem>
					<clipitem id="clipitem-203" premiereChannelType="stereo">
						<masterclipid>masterclip-2</masterclipid>
						<name>out</name>
						<start>2298</start>
						<end>2351</end>
						<in>18549</in>
						<out>18602</out>
						<file id="file-1" />
						<sourcetrack>
							<mediatype>audio</mediatype>
							<trackindex>1</trackindex>
						</sourcetrack>
						<labels>
							<label2>Iris</label2>
						</labels>
						<outputchannelindex>1</outputchannelindex>
					</clipitem>
					<clipitem id="clipitem-204" premiereChannelType="stereo">
						<masterclipid>masterclip-2</masterclipid>
						<name>out</name>
						<start>2351</start>
						<end>2378</end>
						<in>18684</in>
						<out>18711</out>
						<file id="file-1" />
						<sourcetrack>
							<mediatype>audio</mediatype>
							<trackindex>1</trackindex>
						</sourcetrack>
						<labels>
							<label2>Iris</label2>
						</labels>
						<outputchannelindex>1</outputchannelindex>
					</clipitem>
					<clipitem id="clipitem-205" premiereChannelType="stereo">
						<masterclipid>masterclip-2</masterclipid>
						<name>out</name>
						<start>2378</start>
						<end>2405</end>
						<in>18977</in>
						<out>19004</out>
						<file id="file-1" />
						<sourcetrack>
							<mediatype>audio</mediatype>
							<trackindex>1</trackindex>
						</sourcetrack>
						<labels>
							<label2>Iris</label2>
						</labels>
						<outputchannelindex>1</outputchannelindex>
					</clipitem>
					<clipitem id="clipitem-206" premiereChannelType="stereo">
						<masterclipid>masterclip-2</masterclipid>
						<name>out</name>
						<start>2405</start>
						<end>2432</end>
						<in>19060</in>
						<out>19087</out>
						<file id="file-1" />
						<sourcetrack>
							<mediatype>audio</mediatype>
							<trackindex>1</trackindex>
						</sourcetrack>
						<labels>
							<label2>Iris</label2>
						</labels>
						<outputchannelindex>1</outputchannelindex>
					</clipitem>
					<clipitem id="clipitem-207" premiereChannelType="stereo">
						<masterclipid>masterclip-2</masterclipid>
						<name>out</name>
						<start>2432</start>
						<end>2459</end>
						<in>19145</in>
						<out>19172</out>
						<file id="file-1" />
						<sourcetrack>
							<mediatype>audio</mediatype>
							<trackindex>1</trackindex>
						</sourcetrack>
						<labels>
							<label2>Iris</label2>
						</labels>
						<outputchannelindex>1</outputchannelindex>
					</clipitem>
					<clipitem id="clipitem-208" premiereChannelType="stereo">
						<masterclipid>masterclip-2</masterclipid>
						<name>out</name>
						<start>2459</start>
						<end>2487</end>
						<in>19830</in>
						<out>19858</out>
						<file id="file-1" />
						<sourcetrack>
							<mediatype>audio</mediatype>
							<trackindex>1</trackindex>
						</sourcetrack>
						<labels>
							<label2>Iris</label2>
						</labels>
						<outputchannelindex>1</outputchannelindex>
					</clipitem>
					<clipitem id="clipitem-209" premiereChannelType="stereo">
						<masterclipid>masterclip-2</masterclipid>
						<name>out</name>
						<start>2487</start>
						<end>2514</end>
						<in>20200</in>
						<out>20227</out>
						<file id="file-1" />
						<sourcetrack>
							<mediatype>audio</mediatype>
							<trackindex>1</trackindex>
						</sourcetrack>
						<labels>
							<label2>Iris</label2>
						</labels>
						<outputchannelindex>1</outputchannelindex>
					</clipitem>
					<clipitem id="clipitem-210" premiereChannelType="stereo">
						<masterclipid>masterclip-2</masterclipid>
						<name>out</name>
						<start>2514</start>
						<end>2547</end>
						<in>20475</in>
						<out>20508</out>
						<file id="file-1" />
						<sourcetrack>
							<mediatype>audio</mediatype>
							<trackindex>1</trackindex>
						</sourcetrack>
						<labels>
							<label2>Iris</label2>
						</labels>
						<outputchannelindex>1</outputchannelindex>
					</clipitem>
					<clipitem id="clipitem-211" premiereChannelType="stereo">
						<masterclipid>masterclip-2</masterclipid>
						<name>out</name>
						<start>2547</start>
						<end>2574</end>
						<in>21219</in>
						<out>21246</out>
						<file id="file-1" />
						<sourcetrack>
							<mediatype>audio</mediatype>
							<trackindex>1</trackindex>
						</sourcetrack>
						<labels>
							<label2>Iris</label2>
						</labels>
						<outputchannelindex>1</outputchannelindex>
					</clipitem>
					<clipitem id="clipitem-212" premiereChannelType="stereo">
						<masterclipid>masterclip-2</masterclipid>
						<name>out</name>
						<start>2574</start>
						<end>2603</end>
						<in>21595</in>
						<out>21624</out>
						<file id="file-1" />
						<sourcetrack>
							<mediatype>audio</mediatype>
							<trackindex>1</trackindex>
						</sourcetrack>
						<labels>
							<label2>Iris</label2>
						</labels>
						<outputchannelindex>1</outputchannelindex>
					</clipitem>
					<clipitem id="clipitem-213" premiereChannelType="stereo">
						<masterclipid>masterclip-2</masterclipid>
						<name>out</name>
						<start>2603</start>
						<end>2632</end>
						<in>21977</in>
						<out>22006</out>
						<file id="file-1" />
						<sourcetrack>
							<mediatype>audio</mediatype>
							<trackindex>1</trackindex>
						</sourcetrack>
						<labels>
							<label2>Iris</label2>
						</labels>
						<outputchannelindex>1</outputchannelindex>
					</clipitem>
					<clipitem id="clipitem-214" premiereChannelType="stereo">
						<masterclipid>masterclip-2</masterclipid>
						<name>out</name>
						<start>2632</start>
						<end>2659</end>
						<in>22068</in>
						<out>22095</out>
						<file id="file-1" />
						<sourcetrack>
							<mediatype>audio</mediatype>
							<trackindex>1</trackindex>
						</sourcetrack>
						<labels>
							<label2>Iris</label2>
						</labels>
						<outputchannelindex>1</outputchannelindex>
					</clipitem>
					<clipitem id="clipitem-215" premiereChannelType="stereo">
						<masterclipid>masterclip-2</masterclipid>
						<name>out</name>
						<start>2659</start>
						<end>2687</end>
						<in>22422</in>
						<out>22450</out>
						<file id="file-1" />
						<sourcetrack>
							<mediatype>audio</mediatype>
							<trackindex>1</trackindex>
						</sourcetrack>
						<labels>
							<label2>Iris</label2>
						</labels>
						<outputchannelindex>1</outputchannelindex>
					</clipitem>
					<clipitem id="clipitem-216" premiereChannelType="stereo">
						<masterclipid>masterclip-2</masterclipid>
						<name>out</name>
						<start>2687</start>
						<end>2714</end>
						<in>22677</in>
						<out>22704</out>
						<file id="file-1" />
						<sourcetrack>
							<mediatype>audio</mediatype>
							<trackindex>1</trackindex>
						</sourcetrack>
						<labels>
							<label2>Iris</label2>
						</labels>
						<outputchannelindex>1</outputchannelindex>
					</clipitem>
					<clipitem id="clipitem-217" premiereChannelType="stereo">
						<masterclipid>masterclip-2</masterclipid>
						<name>out</name>
						<start>2714</start>
						<end>2744</end>
						<in>22788</in>
						<out>22818</out>
						<file id="file-1" />
						<sourcetrack>
							<mediatype>audio</mediatype>
							<trackindex>1</trackindex>
						</sourcetrack>
						<labels>
							<label2>Iris</label2>
						</labels>
						<outputchannelindex>1</outputchannelindex>
					</clipitem>
					<clipitem id="clipitem-218" premiereChannelType="stereo">
						<masterclipid>masterclip-2</masterclipid>
						<name>out</name>
						<start>2744</start>
						<end>2773</end>
						<in>22822</in>
						<out>22851</out>
						<file id="file-1" />
						<sourcetrack>
							<mediatype>audio</mediatype>
							<trackindex>1</trackindex>
						</sourcetrack>
						<labels>
							<label2>Iris</label2>
						</labels>
						<outputchannelindex>1</outputchannelindex>
					</clipitem>
					<clipitem id="clipitem-219" premiereChannelType="stereo">
						<masterclipid>masterclip-2</masterclipid>
						<name>out</name>
						<start>2773</start>
						<end>2801</end>
						<in>22891</in>
						<out>22919</out>
						<file id="file-1" />
						<sourcetrack>
							<mediatype>audio</mediatype>
							<trackindex>1</trackindex>
						</sourcetrack>
						<labels>
							<label2>Iris</label2>
						</labels>
						<outputchannelindex>1</outputchannelindex>
					</clipitem>
					<clipitem id="clipitem-220" premiereChannelType="stereo">
						<masterclipid>masterclip-2</masterclipid>
						<name>out</name>
						<start>2801</start>
						<end>2828</end>
						<in>22958</in>
						<out>22985</out>
						<file id="file-1" />
						<sourcetrack>
							<mediatype>audio</mediatype>
							<trackindex>1</trackindex>
						</sourcetrack>
						<labels>
							<label2>Iris</label2>
						</labels>
						<outputchannelindex>1</outputchannelindex>
					</clipitem>
					<clipitem id="clipitem-221" premiereChannelType="stereo">
						<masterclipid>masterclip-2</masterclipid>
						<name>out</name>
						<start>2828</start>
						<end>2856</end>
						<in>23014</in>
						<out>23042</out>
						<file id="file-1" />
						<sourcetrack>
							<mediatype>audio</mediatype>
							<trackindex>1</trackindex>
						</sourcetrack>
						<labels>
							<label2>Iris</label2>
						</labels>
						<outputchannelindex>1</outputchannelindex>
					</clipitem>
					<clipitem id="clipitem-222" premiereChannelType="stereo">
						<masterclipid>masterclip-2</masterclipid>
						<name>out</name>
						<start>2856</start>
						<end>2883</end>
						<in>23062</in>
						<out>23089</out>
						<file id="file-1" />
						<sourcetrack>
							<mediatype>audio</mediatype>
							<trackindex>1</trackindex>
						</sourcetrack>
						<labels>
							<label2>Iris</label2>
						</labels>
						<outputchannelindex>1</outputchannelindex>
					</clipitem>
					<clipitem id="clipitem-223" premiereChannelType="stereo">
						<masterclipid>masterclip-2</masterclipid>
						<name>out</name>
						<start>2883</start>
						<end>2915</end>
						<in>23096</in>
						<out>23128</out>
						<file id="file-1" />
						<sourcetrack>
							<mediatype>audio</mediatype>
							<trackindex>1</trackindex>
						</sourcetrack>
						<labels>
							<label2>Iris</label2>
						</labels>
						<outputchannelindex>1</outputchannelindex>
					</clipitem>
					<clipitem id="clipitem-224" premiereChannelType="stereo">
						<masterclipid>masterclip-2</masterclipid>
						<name>out</name>
						<start>2915</start>
						<end>2943</end>
						<in>23137</in>
						<out>23165</out>
						<file id="file-1" />
						<sourcetrack>
							<mediatype>audio</mediatype>
							<trackindex>1</trackindex>
						</sourcetrack>
						<labels>
							<label2>Iris</label2>
						</labels>
						<outputchannelindex>1</outputchannelindex>
					</clipitem>
					<clipitem id="clipitem-225" premiereChannelType="stereo">
						<masterclipid>masterclip-2</masterclipid>
						<name>out</name>
						<start>2943</start>
						<end>2971</end>
						<in>23172</in>
						<out>23200</out>
						<file id="file-1" />
						<sourcetrack>
							<mediatype>audio</mediatype>
							<trackindex>1</trackindex>
						</sourcetrack>
						<labels>
							<label2>Iris</label2>
						</labels>
						<outputchannelindex>1</outputchannelindex>
					</clipitem>
					<clipitem id="clipitem-226" premiereChannelType="stereo">
						<masterclipid>masterclip-2</masterclipid>
						<name>out</name>
						<start>2971</start>
						<end>3054</end>
						<in>23203</in>
						<out>23286</out>
						<file id="file-1" />
						<sourcetrack>
							<mediatype>audio</mediatype>
							<trackindex>1</trackindex>
						</sourcetrack>
						<labels>
							<label2>Iris</label2>
						</labels>
						<outputchannelindex>1</outputchannelindex>
					</clipitem>
					<clipitem id="clipitem-227" premiereChannelType="stereo">
						<masterclipid>masterclip-2</masterclipid>
						<name>out</name>
						<start>3054</start>
						<end>3087</end>
						<in>23346</in>
						<out>23379</out>
						<file id="file-1" />
						<sourcetrack>
							<mediatype>audio</mediatype>
							<trackindex>1</trackindex>
						</sourcetrack>
						<labels>
							<label2>Iris</label2>
						</labels>
						<outputchannelindex>1</outputchannelindex>
					</clipitem>
					<clipitem id="clipitem-228" premiereChannelType="stereo">
						<masterclipid>masterclip-2</masterclipid>
						<name>out</name>
						<start>3087</start>
						<end>3114</end>
						<in>25416</in>
						<out>25443</out>
						<file id="file-1" />
						<sourcetrack>
							<mediatype>audio</mediatype>
							<trackindex>1</trackindex>
						</sourcetrack>
						<labels>
							<label2>Iris</label2>
						</labels>
						<outputchannelindex>1</outputchannelindex>
					</clipitem>
					<clipitem id="clipitem-229" premiereChannelType="stereo">
						<masterclipid>masterclip-2</masterclipid>
						<name>out</name>
						<start>3114</start>
						<end>3141</end>
						<in>25811</in>
						<out>25838</out>
						<file id="file-1" />
						<sourcetrack>
							<mediatype>audio</mediatype>
							<trackindex>1</trackindex>
						</sourcetrack>
						<labels>
							<label2>Iris</label2>
						</labels>
						<outputchannelindex>1</outputchannelindex>
					</clipitem>
					<clipitem id="clipitem-230" premiereChannelType="stereo">
						<masterclipid>masterclip-2</masterclipid>
						<name>out</name>
						<start>3141</start>
						<end>3169</end>
						<in>26555</in>
						<out>26583</out>
						<file id="file-1" />
						<sourcetrack>
							<mediatype>audio</mediatype>
							<trackindex>1</trackindex>
						</sourcetrack>
						<labels>
							<label2>Iris</label2>
						</labels>
						<outputchannelindex>1</outputchannelindex>
					</clipitem>
					<clipitem id="clipitem-231" premiereChannelType="stereo">
						<masterclipid>masterclip-2</masterclipid>
						<name>out</name>
						<start>3169</start>
						<end>3200</end>
						<in>26609</in>
						<out>26640</out>
						<file id="file-1" />
						<sourcetrack>
							<mediatype>audio</mediatype>
							<trackindex>1</trackindex>
						</sourcetrack>
						<labels>
							<label2>Iris</label2>
						</labels>
						<outputchannelindex>1</outputchannelindex>
					</clipitem>
					<clipitem id="clipitem-232" premiereChannelType="stereo">
						<masterclipid>masterclip-2</masterclipid>
						<name>out</name>
						<start>3200</start>
						<end>3228</end>
						<in>26661</in>
						<out>26689</out>
						<file id="file-1" />
						<sourcetrack>
							<mediatype>audio</mediatype>
							<trackindex>1</trackindex>
						</sourcetrack>
						<labels>
							<label2>Iris</label2>
						</labels>
						<outputchannelindex>1</outputchannelindex>
					</clipitem>
					<clipitem id="clipitem-233" premiereChannelType="stereo">
						<masterclipid>masterclip-2</masterclipid>
						<name>out</name>
						<start>3228</start>
						<end>3259</end>
						<in>26699</in>
						<out>26730</out>
						<file id="file-1" />
						<sourcetrack>
							<mediatype>audio</mediatype>
							<trackindex>1</trackindex>
						</sourcetrack>
						<labels>
							<label2>Iris</label2>
						</labels>
						<outputchannelindex>1</outputchannelindex>
					</clipitem>
					<clipitem id="clipitem-234" premiereChannelType="stereo">
						<masterclipid>masterclip-2</masterclipid>
						<name>out</name>
						<start>3259</start>
						<end>3286</end>
						<in>27067</in>
						<out>27094</out>
						<file id="file-1" />
						<sourcetrack>
							<mediatype>audio</mediatype>
							<trackindex>1</trackindex>
						</sourcetrack>
						<labels>
							<label2>Iris</label2>
						</labels>
						<outputchannelindex>1</outputchannelindex>
					</clipitem>
					<clipitem id="clipitem-235" premiereChannelType="stereo">
						<masterclipid>masterclip-2</masterclipid>
						<name>out</name>
						<start>3286</start>
						<end>3319</end>
						<in>27653</in>
						<out>27686</out>
						<file id="file-1" />
						<sourcetrack>
							<mediatype>audio</mediatype>
							<trackindex>1</trackindex>
						</sourcetrack>
						<labels>
							<label2>Iris</label2>
						</labels>
						<outputchannelindex>1</outputchannelindex>
					</clipitem>
					<clipitem id="clipitem-236" premiereChannelType="stereo">
						<masterclipid>masterclip-2</masterclipid>
						<name>out</name>
						<start>3319</start>
						<end>3347</end>
						<in>27748</in>
						<out>27776</out>
						<file id="file-1" />
						<sourcetrack>
							<mediatype>audio</mediatype>
							<trackindex>1</trackindex>
						</sourcetrack>
						<labels>
							<label2>Iris</label2>
						</labels>
						<outputchannelindex>1</outputchannelindex>
					</clipitem>
					<clipitem id="clipitem-237" premiereChannelType="stereo">
						<masterclipid>masterclip-2</masterclipid>
						<name>out</name>
						<start>3347</start>
						<end>3374</end>
						<in>28106</in>
						<out>28133</out>
						<file id="file-1" />
						<sourcetrack>
							<mediatype>audio</mediatype>
							<trackindex>1</trackindex>
						</sourcetrack>
						<labels>
							<label2>Iris</label2>
						</labels>
						<outputchannelindex>1</outputchannelindex>
					</clipitem>
					<clipitem id="clipitem-238" premiereChannelType="stereo">
						<masterclipid>masterclip-2</masterclipid>
						<name>out</name>
						<start>3374</start>
						<end>3401</end>
						<in>28168</in>
						<out>28195</out>
						<file id="file-1" />
						<sourcetrack>
							<mediatype>audio</mediatype>
							<trackindex>1</trackindex>
						</sourcetrack>
						<labels>
							<label2>Iris</label2>
						</labels>
						<outputchannelindex>1</outputchannelindex>
					</clipitem>
					<clipitem id="clipitem-239" premiereChannelType="stereo">
						<masterclipid>masterclip-2</masterclipid>
						<name>out</name>
						<start>3401</start>
						<end>3433</end>
						<in>28584</in>
						<out>28616</out>
						<file id="file-1" />
						<sourcetrack>
							<mediatype>audio</mediatype>
							<trackindex>1</trackindex>
						</sourcetrack>
						<labels>
							<label2>Iris</label2>
						</labels>
						<outputchannelindex>1</outputchannelindex>
					</clipitem>
					<clipitem id="clipitem-240" premiereChannelType="stereo">
						<masterclipid>masterclip-2</masterclipid>
						<name>out</name>
						<start>3433</start>
						<end>3462</end>
						<in>29176</in>
						<out>29205</out>
						<file id="file-1" />
						<sourcetrack>
							<mediatype>audio</mediatype>
							<trackindex>1</trackindex>
						</sourcetrack>
						<labels>
							<label2>Iris</label2>
						</labels>
						<outputchannelindex>1</outputchannelindex>
					</clipitem>
					<clipitem id="clipitem-241" premiereChannelType="stereo">
						<masterclipid>masterclip-2</masterclipid>
						<name>out</name>
						<start>3462</start>
						<end>3489</end>
						<in>29212</in>
						<out>29239</out>
						<file id="file-1" />
						<sourcetrack>
							<mediatype>audio</mediatype>
							<trackindex>1</trackindex>
						</sourcetrack>
						<labels>
							<label2>Iris</label2>
						</labels>
						<outputchannelindex>1</outputchannelindex>
					</clipitem>
					<clipitem id="clipitem-242" premiereChannelType="stereo">
						<masterclipid>masterclip-2</masterclipid>
						<name>out</name>
						<start>3489</start>
						<end>3516</end>
						<in>29271</in>
						<out>29298</out>
						<file id="file-1" />
						<sourcetrack>
							<mediatype>audio</mediatype>
							<trackindex>1</trackindex>
						</sourcetrack>
						<labels>
							<label2>Iris</label2>
						</labels>
						<outputchannelindex>1</outputchannelindex>
					</clipitem>
					<clipitem id="clipitem-243" premiereChannelType="stereo">
						<masterclipid>masterclip-2</masterclipid>
						<name>out</name>
						<start>3516</start>
						<end>3543</end>
						<in>29338</in>
						<out>29365</out>
						<file id="file-1" />
						<sourcetrack>
							<mediatype>audio</mediatype>
							<trackindex>1</trackindex>
						</sourcetrack>
						<labels>
							<label2>Iris</label2>
						</labels>
						<outputchannelindex>1</outputchannelindex>
					</clipitem>
					<clipitem id="clipitem-244" premiereChannelType="stereo">
						<masterclipid>masterclip-2</masterclipid>
						<name>out</name>
						<start>3543</start>
						<end>3570</end>
						<in>29433</in>
						<out>29460</out>
						<file id="file-1" />
						<sourcetrack>
							<mediatype>audio</mediatype>
							<trackindex>1</trackindex>
						</sourcetrack>
						<labels>
							<label2>Iris</label2>
						</labels>
						<outputchannelindex>1</outputchannelindex>
					</clipitem>
					<clipitem id="clipitem-245" premiereChannelType="stereo">
						<masterclipid>masterclip-2</masterclipid>
						<name>out</name>
						<start>3570</start>
						<end>3597</end>
						<in>29604</in>
						<out>29631</out>
						<file id="file-1" />
						<sourcetrack>
							<mediatype>audio</mediatype>
							<trackindex>1</trackindex>
						</sourcetrack>
						<labels>
							<label2>Iris</label2>
						</labels>
						<outputchannelindex>1</outputchannelindex>
					</clipitem>
					<clipitem id="clipitem-246" premiereChannelType="stereo">
						<masterclipid>masterclip-2</masterclipid>
						<name>out</name>
						<start>3597</start>
						<end>3624</end>
						<in>29809</in>
						<out>29836</out>
						<file id="file-1" />
						<sourcetrack>
							<mediatype>audio</mediatype>
							<trackindex>1</trackindex>
						</sourcetrack>
						<labels>
							<label2>Iris</label2>
						</labels>
						<outputchannelindex>1</outputchannelindex>
					</clipitem>
					<clipitem id="clipitem-247" premiereChannelType="stereo">
						<masterclipid>masterclip-2</masterclipid>
						<name>out</name>
						<start>3624</start>
						<end>3651</end>
						<in>30311</in>
						<out>30338</out>
						<file id="file-1" />
						<sourcetrack>
							<mediatype>audio</mediatype>
							<trackindex>1</trackindex>
						</sourcetrack>
						<labels>
							<label2>Iris</label2>
						</labels>
						<outputchannelindex>1</outputchannelindex>
					</clipitem>
					<clipitem id="clipitem-248" premiereChannelType="stereo">
						<masterclipid>masterclip-2</masterclipid>
						<name>out</name>
						<start>3651</start>
						<end>3678</end>
						<in>30393</in>
						<out>30420</out>
						<file id="file-1" />
						<sourcetrack>
							<mediatype>audio</mediatype>
							<trackindex>1</trackindex>
						</sourcetrack>
						<labels>
							<label2>Iris</label2>
						</labels>
						<outputchannelindex>1</outputchannelindex>
					</clipitem>
					<clipitem id="clipitem-249" premiereChannelType="stereo">
						<masterclipid>masterclip-2</masterclipid>
						<name>out</name>
						<start>3678</start>
						<end>3725</end>
						<in>30556</in>
						<out>30603</out>
						<file id="file-1" />
						<sourcetrack>
							<mediatype>audio</mediatype>
							<trackindex>1</trackindex>
						</sourcetrack>
						<labels>
							<label2>Iris</label2>
						</labels>
						<outputchannelindex>1</outputchannelindex>
					</clipitem>
					<clipitem id="clipitem-250" premiereChannelType="stereo">
						<masterclipid>masterclip-2</masterclipid>
						<name>out</name>
						<start>3725</start>
						<end>3752</end>
						<in>30869</in>
						<out>30896</out>
						<file id="file-1" />
						<sourcetrack>
							<mediatype>audio</mediatype>
							<trackindex>1</trackindex>
						</sourcetrack>
						<labels>
							<label2>Iris</label2>
						</labels>
						<outputchannelindex>1</outputchannelindex>
					</clipitem>
					<clipitem id="clipitem-251" premiereChannelType="stereo">
						<masterclipid>masterclip-2</masterclipid>
						<name>out</name>
						<start>3752</start>
						<end>3786</end>
						<in>31036</in>
						<out>31070</out>
						<file id="file-1" />
						<sourcetrack>
							<mediatype>audio</mediatype>
							<trackindex>1</trackindex>
						</sourcetrack>
						<labels>
							<label2>Iris</label2>
						</labels>
						<outputchannelindex>1</outputchannelindex>
					</clipitem>
					<clipitem id="clipitem-252" premiereChannelType="stereo">
						<masterclipid>masterclip-2</masterclipid>
						<name>out</name>
						<start>3786</start>
						<end>3813</end>
						<in>31167</in>
						<out>31194</out>
						<file id="file-1" />
						<sourcetrack>
							<mediatype>audio</mediatype>
							<trackindex>1</trackindex>
						</sourcetrack>
						<labels>
							<label2>Iris</label2>
						</labels>
						<outputchannelindex>1</outputchannelindex>
					</clipitem>
					<clipitem id="clipitem-253" premiereChannelType="stereo">
						<masterclipid>masterclip-2</masterclipid>
						<name>out</name>
						<start>3813</start>
						<end>3840</end>
						<in>31370</in>
						<out>31397</out>
						<file id="file-1" />
						<sourcetrack>
							<mediatype>audio</mediatype>
							<trackindex>1</trackindex>
						</sourcetrack>
						<labels>
							<label2>Iris</label2>
						</labels>
						<outputchannelindex>1</outputchannelindex>
					</clipitem>
					<clipitem id="clipitem-254" premiereChannelType="stereo">
						<masterclipid>masterclip-2</masterclipid>
						<name>out</name>
						<start>3840</start>
						<end>3867</end>
						<in>31458</in>
						<out>31485</out>
						<file id="file-1" />
						<sourcetrack>
							<mediatype>audio</mediatype>
							<trackindex>1</trackindex>
						</sourcetrack>
						<labels>
							<label2>Iris</label2>
						</labels>
						<outputchannelindex>1</outputchannelindex>
					</clipitem>
					<clipitem id="clipitem-255" premiereChannelType="stereo">
						<masterclipid>masterclip-2</masterclipid>
						<name>out</name>
						<start>3867</start>
						<end>3901</end>
						<in>31499</in>
						<out>31533</out>
						<file id="file-1" />
						<sourcetrack>
							<mediatype>audio</mediatype>
							<trackindex>1</trackindex>
						</sourcetrack>
						<labels>
							<label2>Iris</label2>
						</labels>
						<outputchannelindex>1</outputchannelindex>
					</clipitem>
					<clipitem id="clipitem-256" premiereChannelType="stereo">
						<masterclipid>masterclip-2</masterclipid>
						<name>out</name>
						<start>3901</start>
						<end>3934</end>
						<in>31547</in>
						<out>31580</out>
						<file id="file-1" />
						<sourcetrack>
							<mediatype>audio</mediatype>
							<trackindex>1</trackindex>
						</sourcetrack>
						<labels>
							<label2>Iris</label2>
						</labels>
						<outputchannelindex>1</outputchannelindex>
					</clipitem>
					<clipitem id="clipitem-257" premiereChannelType="stereo">
						<masterclipid>masterclip-2</masterclipid>
						<name>out</name>
						<start>3934</start>
						<end>3961</end>
						<in>31958</in>
						<out>31985</out>
						<file id="file-1" />
						<sourcetrack>
							<mediatype>audio</mediatype>
							<trackindex>1</trackindex>
						</sourcetrack>
						<labels>
							<label2>Iris</label2>
						</labels>
						<outputchannelindex>1</outputchannelindex>
					</clipitem>
					<clipitem id="clipitem-258" premiereChannelType="stereo">
						<masterclipid>masterclip-2</masterclipid>
						<name>out</name>
						<start>3961</start>
						<end>3989</end>
						<in>32212</in>
						<out>32240</out>
						<file id="file-1" />
						<sourcetrack>
							<mediatype>audio</mediatype>
							<trackindex>1</trackindex>
						</sourcetrack>
						<labels>
							<label2>Iris</label2>
						</labels>
						<outputchannelindex>1</outputchannelindex>
					</clipitem>
					<clipitem id="clipitem-259" premiereChannelType="stereo">
						<masterclipid>masterclip-2</masterclipid>
						<name>out</name>
						<start>3989</start>
						<end>4016</end>
						<in>32246</in>
						<out>32273</out>
						<file id="file-1" />
						<sourcetrack>
							<mediatype>audio</mediatype>
							<trackindex>1</trackindex>
						</sourcetrack>
						<labels>
							<label2>Iris</label2>
						</labels>
						<outputchannelindex>1</outputchannelindex>
					</clipitem>
					<clipitem id="clipitem-260" premiereChannelType="stereo">
						<masterclipid>masterclip-2</masterclipid>
						<name>out</name>
						<start>4016</start>
						<end>4052</end>
						<in>32379</in>
						<out>32415</out>
						<file id="file-1" />
						<sourcetrack>
							<mediatype>audio</mediatype>
							<trackindex>1</trackindex>
						</sourcetrack>
						<labels>
							<label2>Iris</label2>
						</labels>
						<outputchannelindex>1</outputchannelindex>
					</clipitem>
					<clipitem id="clipitem-261" premiereChannelType="stereo">
						<masterclipid>masterclip-2</masterclipid>
						<name>out</name>
						<start>4052</start>
						<end>4083</end>
						<in>32584</in>
						<out>32615</out>
						<file id="file-1" />
						<sourcetrack>
							<mediatype>audio</mediatype>
							<trackindex>1</trackindex>
						</sourcetrack>
						<labels>
							<label2>Iris</label2>
						</labels>
						<outputchannelindex>1</outputchannelindex>
					</clipitem>
					<clipitem id="clipitem-262" premiereChannelType="stereo">
						<masterclipid>masterclip-2</masterclipid>
						<name>out</name>
						<start>4083</start>
						<end>4110</end>
						<in>33076</in>
						<out>33103</out>
						<file id="file-1" />
						<sourcetrack>
							<mediatype>audio</mediatype>
							<trackindex>1</trackindex>
						</sourcetrack>
						<labels>
							<label2>Iris</label2>
						</labels>
						<outputchannelindex>1</outputchannelindex>
					</clipitem>
					<clipitem id="clipitem-263" premiereChannelType="stereo">
						<masterclipid>masterclip-2</masterclipid>
						<name>out</name>
						<start>4110</start>
						<end>4150</end>
						<in>33910</in>
						<out>33950</out>
						<file id="file-1" />
						<sourcetrack>
							<mediatype>audio</mediatype>
							<trackindex>1</trackindex>
						</sourcetrack>
						<labels>
							<label2>Iris</label2>
						</labels>
						<outputchannelindex>1</outputchannelindex>
					</clipitem>
					<clipitem id="clipitem-264" premiereChannelType="stereo">
						<masterclipid>masterclip-2</masterclipid>
						<name>out</name>
						<start>4150</start>
						<end>4224</end>
						<in>33969</in>
						<out>34043</out>
						<file id="file-1" />
						<sourcetrack>
							<mediatype>audio</mediatype>
							<trackindex>1</trackindex>
						</sourcetrack>
						<labels>
							<label2>Iris</label2>
						</labels>
						<outputchannelindex>1</outputchannelindex>
					</clipitem>
					<clipitem id="clipitem-265" premiereChannelType="stereo">
						<masterclipid>masterclip-2</masterclipid>
						<name>out</name>
						<start>4224</start>
						<end>4259</end>
						<in>34112</in>
						<out>34147</out>
						<file id="file-1" />
						<sourcetrack>
							<mediatype>audio</mediatype>
							<trackindex>1</trackindex>
						</sourcetrack>
						<labels>
							<label2>Iris</label2>
						</labels>
						<outputchannelindex>1</outputchannelindex>
					</clipitem>
					<clipitem id="clipitem-266" premiereChannelType="stereo">
						<masterclipid>masterclip-2</masterclipid>
						<name>out</name>
						<start>4259</start>
						<end>4308</end>
						<in>34150</in>
						<out>34199</out>
						<file id="file-1" />
						<sourcetrack>
							<mediatype>audio</mediatype>
							<trackindex>1</trackindex>
						</sourcetrack>
						<labels>
							<label2>Iris</label2>
						</labels>
						<outputchannelindex>1</outputchannelindex>
					</clipitem>
					<clipitem id="clipitem-267" premiereChannelType="stereo">
						<masterclipid>masterclip-2</masterclipid>
						<name>out</name>
						<start>4308</start>
						<end>4335</end>
						<in>35667</in>
						<out>35694</out>
						<file id="file-1" />
						<sourcetrack>
							<mediatype>audio</mediatype>
							<trackindex>1</trackindex>
						</sourcetrack>
						<labels>
							<label2>Iris</label2>
						</labels>
						<outputchannelindex>1</outputchannelindex>
					</clipitem>
					<clipitem id="clipitem-268" premiereChannelType="stereo">
						<masterclipid>masterclip-2</masterclipid>
						<name>out</name>
						<start>4335</start>
						<end>4368</end>
						<in>36082</in>
						<out>36115</out>
						<file id="file-1" />
						<sourcetrack>
							<mediatype>audio</mediatype>
							<trackindex>1</trackindex>
						</sourcetrack>
						<labels>
							<label2>Iris</label2>
						</labels>
						<outputchannelindex>1</outputchannelindex>
					</clipitem>
					<clipitem id="clipitem-269" premiereChannelType="stereo">
						<masterclipid>masterclip-2</masterclipid>
						<name>out</name>
						<start>4368</start>
						<end>4409</end>
						<in>36223</in>
						<out>36264</out>
						<file id="file-1" />
						<sourcetrack>
							<mediatype>audio</mediatype>
							<trackindex>1</trackindex>
						</sourcetrack>
						<labels>
							<label2>Iris</label2>
						</labels>
						<outputchannelindex>1</outputchannelindex>
					</clipitem>
					<clipitem id="clipitem-270" premiereChannelType="stereo">
						<masterclipid>masterclip-2</masterclipid>
						<name>out</name>
						<start>4409</start>
						<end>4425</end>
						<in>36282</in>
						<out>36298</out>
						<file id="file-1" />
						<sourcetrack>
							<mediatype>audio</mediatype>
							<trackindex>1</trackindex>
						</sourcetrack>
						<labels>
							<label2>Iris</label2>
						</labels>
						<outputchannelindex>1</outputchannelindex>
					</clipitem>
				</track>
				<track currentExplodedTrackIndex="0" premiereTrackType="Stereo">
					<clipitem id="clipitem-271" premiereChannelType="stereo">
						<masterclipid>masterclip-2</masterclipid>
						<name>out</name>
						<start>0</start>
						<end>70</end>
						<in>13</in>
						<out>83</out>
						<file id="file-2">
							<name>1</name>
							<pathurl>/Users/wyattblue/out_tracks/1.wav</pathurl>
							<rate>
								<timebase>60</timebase>
								<ntsc>FALSE</ntsc>
							</rate>
							<duration />
							<media>
								<audio>
									<samplecharacteristics>
										<depth>16</depth>
										<samplerate>48000</samplerate>
									</samplecharacteristics>
									<channelcount>2</channelcount>
								</audio>
							</media>
						</file>
						<sourcetrack>
							<mediatype>audio</mediatype>
							<trackindex>1</trackindex>
						</sourcetrack>
						<labels>
							<label2>Iris</label2>
						</labels>
						<outputchannelindex>1</outputchannelindex>
					</clipitem>
					<clipitem id="clipitem-272" premiereChannelType="stereo">
						<masterclipid>masterclip-2</masterclipid>
						<name>out</name>
						<start>70</start>
						<end>100</end>
						<in>88</in>
						<out>118</out>
						<file id="file-2" />
						<sourcetrack>
							<mediatype>audio</mediatype>
							<trackindex>1</trackindex>
						</sourcetrack>
						<labels>
							<label2>Iris</label2>
						</labels>
						<outputchannelindex>1</outputchannelindex>
					</clipitem>
					<clipitem id="clipitem-273" premiereChannelType="stereo">
						<masterclipid>masterclip-2</masterclipid>
						<name>out</name>
						<start>100</start>
						<end>212</end>
						<in>275</in>
						<out>387</out>
						<file id="file-2" />
						<sourcetrack>
							<mediatype>audio</mediatype>
							<trackindex>1</trackindex>
						</sourcetrack>
						<labels>
							<label2>Iris</label2>
						</labels>
						<outputchannelindex>1</outputchannelindex>
					</clipitem>
					<clipitem id="clipitem-274" premiereChannelType="stereo">
						<masterclipid>masterclip-2</masterclipid>
						<name>out</name>
						<start>212</start>
						<end>259</end>
						<in>900</in>
						<out>947</out>
						<file id="file-2" />
						<sourcetrack>
							<mediatype>audio</mediatype>
							<trackindex>1</trackindex>
						</sourcetrack>
						<labels>
							<label2>Iris</label2>
						</labels>
						<outputchannelindex>1</outputchannelindex>
					</clipitem>
					<clipitem id="clipitem-275" premiereChannelType="stereo">
						<masterclipid>masterclip-2</masterclipid>
						<name>out</name>
						<start>259</start>
						<end>292</end>
						<in>973</in>
						<out>1006</out>
						<file id="file-2" />
						<sourcetrack>
							<mediatype>audio</mediatype>
							<trackindex>1</trackindex>
						</sourcetrack>
						<labels>
							<label2>Iris</label2>
						</labels>
						<outputchannelindex>1</outputchannelindex>
					</clipitem>
					<clipitem id="clipitem-276" premiereChannelType="stereo">
						<masterclipid>masterclip-2</masterclipid>
						<name>out</name>
						<start>292</start>
						<end>330</end>
						<in>1038</in>
						<out>1076</out>
						<file id="file-2" />
						<sourcetrack>
							<mediatype>audio</mediatype>
							<trackindex>1</trackindex>
						</sourcetrack>
						<labels>
							<label2>Iris</label2>
						</labels>
						<outputchannelindex>1</outputchannelindex>
					</clipitem>
					<clipitem id="clipitem-277" premiereChannelType="stereo">
						<masterclipid>masterclip-2</masterclipid>
						<name>out</name>
						<start>330</start>
						<end>382</end>
						<in>1137</in>
						<out>1189</out>
						<file id="file-2" />
						<sourcetrack>
							<mediatype>audio</mediatype>
							<trackindex>1</trackindex>
						</sourcetrack>
						<labels>
							<label2>Iris</label2>
						</labels>
						<outputchannelindex>1</outputchannelindex>
					</clipitem>
					<clipitem id="clipitem-278" premiereChannelType="stereo">
						<masterclipid>masterclip-2</masterclipid>
						<name>out</name>
						<start>382</start>
						<end>416</end>
						<in>1313</in>
						<out>1347</out>
						<file id="file-2" />
						<sourcetrack>
							<mediatype>audio</mediatype>
							<trackindex>1</trackindex>
						</sourcetrack>
						<labels>
							<label2>Iris</label2>
						</labels>
						<outputchannelindex>1</outputchannelindex>
					</clipitem>
					<clipitem id="clipitem-279" premiereChannelType="stereo">
						<masterclipid>masterclip-2</masterclipid>
						<name>out</name>
						<start>416</start>
						<end>443</end>
						<in>1350</in>
						<out>1377</out>
						<file id="file-2" />
						<sourcetrack>
							<mediatype>audio</mediatype>
							<trackindex>1</trackindex>
						</sourcetrack>
						<labels>
							<label2>Iris</label2>
						</labels>
						<outputchannelindex>1</outputchannelindex>
					</clipitem>
					<clipitem id="clipitem-280" premiereChannelType="stereo">
						<masterclipid>masterclip-2</masterclipid>
						<name>out</name>
						<start>443</start>
						<end>479</end>
						<in>1386</in>
						<out>1422</out>
						<file id="file-2" />
						<sourcetrack>
							<mediatype>audio</mediatype>
							<trackindex>1</trackindex>
						</sourcetrack>
						<labels>
							<label2>Iris</label2>
						</labels>
						<outputchannelindex>1</outputchannelindex>
					</clipitem>
					<clipitem id="clipitem-281" premiereChannelType="stereo">
						<masterclipid>masterclip-2</masterclipid>
						<name>out</name>
						<start>479</start>
						<end>519</end>
						<in>1519</in>
						<out>1559</out>
						<file id="file-2" />
						<sourcetrack>
							<mediatype>audio</mediatype>
							<trackindex>1</trackindex>
						</sourcetrack>
						<labels>
							<label2>Iris</label2>
						</labels>
						<outputchannelindex>1</outputchannelindex>
					</clipitem>
					<clipitem id="clipitem-282" premiereChannelType="stereo">
						<masterclipid>masterclip-2</masterclipid>
						<name>out</name>
						<start>519</start>
						<end>546</end>
						<in>1587</in>
						<out>1614</out>
						<file id="file-2" />
						<sourcetrack>
							<mediatype>audio</mediatype>
							<trackindex>1</trackindex>
						</sourcetrack>
						<labels>
							<label2>Iris</label2>
						</labels>
						<outputchannelindex>1</outputchannelindex>
					</clipitem>
					<clipitem id="clipitem-283" premiereChannelType="stereo">
						<masterclipid>masterclip-2</masterclipid>
						<name>out</name>
						<start>546</start>
						<end>585</end>
						<in>1651</in>
						<out>1690</out>
						<file id="file-2" />
						<sourcetrack>
							<mediatype>audio</mediatype>
							<trackindex>1</trackindex>
						</sourcetrack>
						<labels>
							<label2>Iris</label2>
						</labels>
						<outputchannelindex>1</outputchannelindex>
					</clipitem>
					<clipitem id="clipitem-284" premiereChannelType="stereo">
						<masterclipid>masterclip-2</masterclipid>
						<name>out</name>
						<start>585</start>
						<end>613</end>
						<in>2048</in>
						<out>2076</out>
						<file id="file-2" />
						<sourcetrack>
							<mediatype>audio</mediatype>
							<trackindex>1</trackindex>
						</sourcetrack>
						<labels>
							<label2>Iris</label2>
						</labels>
						<outputchannelindex>1</outputchannelindex>
					</clipitem>
					<clipitem id="clipitem-285" premiereChannelType="stereo">
						<masterclipid>masterclip-2</masterclipid>
						<name>out</name>
						<start>613</start>
						<end>642</end>
						<in>4451</in>
						<out>4480</out>
						<file id="file-2" />
						<sourcetrack>
							<mediatype>audio</mediatype>
							<trackindex>1</trackindex>
						</sourcetrack>
						<labels>
							<label2>Iris</label2>
						</labels>
						<outputchannelindex>1</outputchannelindex>
					</clipitem>
					<clipitem id="clipitem-286" premiereChannelType="stereo">
						<masterclipid>masterclip-2</masterclipid>
						<name>out</name>
						<start>642</start>
						<end>669</end>
						<in>5254</in>
						<out>5281</out>
						<file id="file-2" />
						<sourcetrack>
							<mediatype>audio</mediatype>
							<trackindex>1</trackindex>
						</sourcetrack>
						<labels>
							<label2>Iris</label2>
						</labels>
						<outputchannelindex>1</outputchannelindex>
					</clipitem>
					<clipitem id="clipitem-287" premiereChannelType="stereo">
						<masterclipid>masterclip-2</masterclipid>
						<name>out</name>
						<start>669</start>
						<end>696</end>
						<in>5919</in>
						<out>5946</out>
						<file id="file-2" />
						<sourcetrack>
							<mediatype>audio</mediatype>
							<trackindex>1</trackindex>
						</sourcetrack>
						<labels>
							<label2>Iris</label2>
						</labels>
						<outputchannelindex>1</outputchannelindex>
					</clipitem>
					<clipitem id="clipitem-288" premiereChannelType="stereo">
						<masterclipid>masterclip-2</masterclipid>
						<name>out</name>
						<start>696</start>
						<end>723</end>
						<in>6145</in>
						<out>6172</out>
						<file id="file-2" />
						<sourcetrack>
							<mediatype>audio</mediatype>
							<trackindex>1</trackindex>
						</sourcetrack>
						<labels>
							<label2>Iris</label2>
						</labels>
						<outputchannelindex>1</outputchannelindex>
					</clipitem>
					<clipitem id="clipitem-289" premiereChannelType="stereo">
						<masterclipid>masterclip-2</masterclipid>
						<name>out</name>
						<start>723</start>
						<end>750</end>
						<in>6822</in>
						<out>6849</out>
						<file id="file-2" />
						<sourcetrack>
							<mediatype>audio</mediatype>
							<trackindex>1</trackindex>
						</sourcetrack>
						<labels>
							<label2>Iris</label2>
						</labels>
						<outputchannelindex>1</outputchannelindex>
					</clipitem>
					<clipitem id="clipitem-290" premiereChannelType="stereo">
						<masterclipid>masterclip-2</masterclipid>
						<name>out</name>
						<start>750</start>
						<end>777</end>
						<in>6928</in>
						<out>6955</out>
						<file id="file-2" />
						<sourcetrack>
							<mediatype>audio</mediatype>
							<trackindex>1</trackindex>
						</sourcetrack>
						<labels>
							<label2>Iris</label2>
						</labels>
						<outputchannelindex>1</outputchannelindex>
					</clipitem>
					<clipitem id="clipitem-291" premiereChannelType="stereo">
						<masterclipid>masterclip-2</masterclipid>
						<name>out</name>
						<start>777</start>
						<end>807</end>
						<in>7122</in>
						<out>7152</out>
						<file id="file-2" />
						<sourcetrack>
							<mediatype>audio</mediatype>
							<trackindex>1</trackindex>
						</sourcetrack>
						<labels>
							<label2>Iris</label2>
						</labels>
						<outputchannelindex>1</outputchannelindex>
					</clipitem>
					<clipitem id="clipitem-292" premiereChannelType="stereo">
						<masterclipid>masterclip-2</masterclipid>
						<name>out</name>
						<start>807</start>
						<end>834</end>
						<in>7299</in>
						<out>7326</out>
						<file id="file-2" />
						<sourcetrack>
							<mediatype>audio</mediatype>
							<trackindex>1</trackindex>
						</sourcetrack>
						<labels>
							<label2>Iris</label2>
						</labels>
						<outputchannelindex>1</outputchannelindex>
					</clipitem>
					<clipitem id="clipitem-293" premiereChannelType="stereo">
						<masterclipid>masterclip-2</masterclipid>
						<name>out</name>
						<start>834</start>
						<end>861</end>
						<in>7666</in>
						<out>7693</out>
						<file id="file-2" />
						<sourcetrack>
							<mediatype>audio</mediatype>
							<trackindex>1</trackindex>
						</sourcetrack>
						<labels>
							<label2>Iris</label2>
						</labels>
						<outputchannelindex>1</outputchannelindex>
					</clipitem>
					<clipitem id="clipitem-294" premiereChannelType="stereo">
						<masterclipid>masterclip-2</masterclipid>
						<name>out</name>
						<start>861</start>
						<end>898</end>
						<in>9405</in>
						<out>9442</out>
						<file id="file-2" />
						<sourcetrack>
							<mediatype>audio</mediatype>
							<trackindex>1</trackindex>
						</sourcetrack>
						<labels>
							<label2>Iris</label2>
						</labels>
						<outputchannelindex>1</outputchannelindex>
					</clipitem>
					<clipitem id="clipitem-295" premiereChannelType="stereo">
						<masterclipid>masterclip-2</masterclipid>
						<name>out</name>
						<start>898</start>
						<end>925</end>
						<in>9589</in>
						<out>9616</out>
						<file id="file-2" />
						<sourcetrack>
							<mediatype>audio</mediatype>
							<trackindex>1</trackindex>
						</sourcetrack>
						<labels>
							<label2>Iris</label2>
						</labels>
						<outputchannelindex>1</outputchannelindex>
					</clipitem>
					<clipitem id="clipitem-296" premiereChannelType="stereo">
						<masterclipid>masterclip-2</masterclipid>
						<name>out</name>
						<start>925</start>
						<end>952</end>
						<in>9666</in>
						<out>9693</out>
						<file id="file-2" />
						<sourcetrack>
							<mediatype>audio</mediatype>
							<trackindex>1</trackindex>
						</sourcetrack>
						<labels>
							<label2>Iris</label2>
						</labels>
						<outputchannelindex>1</outputchannelindex>
					</clipitem>
					<clipitem id="clipitem-297" premiereChannelType="stereo">
						<masterclipid>masterclip-2</masterclipid>
						<name>out</name>
						<start>952</start>
						<end>980</end>
						<in>9781</in>
						<out>9809</out>
						<file id="file-2" />
						<sourcetrack>
							<mediatype>audio</mediatype>
							<trackindex>1</trackindex>
						</sourcetrack>
						<labels>
							<label2>Iris</label2>
						</labels>
						<outputchannelindex>1</outputchannelindex>
					</clipitem>
					<clipitem id="clipitem-298" premiereChannelType="stereo">
						<masterclipid>masterclip-2</masterclipid>
						<name>out</name>
						<start>980</start>
						<end>1007</end>
						<in>10130</in>
						<out>10157</out>
						<file id="file-2" />
						<sourcetrack>
							<mediatype>audio</mediatype>
							<trackindex>1</trackindex>
						</sourcetrack>
						<labels>
							<label2>Iris</label2>
						</labels>
						<outputchannelindex>1</outputchannelindex>
					</clipitem>
					<clipitem id="clipitem-299" premiereChannelType="stereo">
						<masterclipid>masterclip-2</masterclipid>
						<name>out</name>
						<start>1007</start>
						<end>1035</end>
						<in>10199</in>
						<out>10227</out>
						<file id="file-2" />
						<sourcetrack>
							<mediatype>audio</mediatype>
							<trackindex>1</trackindex>
						</sourcetrack>
						<labels>
							<label2>Iris</label2>
						</labels>
						<outputchannelindex>1</outputchannelindex>
					</clipitem>
					<clipitem id="clipitem-300" premiereChannelType="stereo">
						<masterclipid>masterclip-2</masterclipid>
						<name>out</name>
						<start>1035</start>
						<end>1062</end>
						<in>10311</in>
						<out>10338</out>
						<file id="file-2" />
						<sourcetrack>
							<mediatype>audio</mediatype>
							<trackindex>1</trackindex>
						</sourcetrack>
						<labels>
							<label2>Iris</label2>
						</labels>
						<outputchannelindex>1</outputchannelindex>
					</clipitem>
					<clipitem id="clipitem-301" premiereChannelType="stereo">
						<masterclipid>masterclip-2</masterclipid>
						<name>out</name>
						<start>1062</start>
						<end>1091</end>
						<in>10355</in>
						<out>10384</out>
						<file id="file-2" />
						<sourcetrack>
							<mediatype>audio</mediatype>
							<trackindex>1</trackindex>
						</sourcetrack>
						<labels>
							<label2>Iris</label2>
						</labels>
						<outputchannelindex>1</outputchannelindex>
					</clipitem>
					<clipitem id="clipitem-302" premiereChannelType="stereo">
						<masterclipid>masterclip-2</masterclipid>
						<name>out</name>
						<start>1091</start>
						<end>1118</end>
						<in>10765</in>
						<out>10792</out>
						<file id="file-2" />
						<sourcetrack>
							<mediatype>audio</mediatype>
							<trackindex>1</trackindex>
						</sourcetrack>
						<labels>
							<label2>Iris</label2>
						</labels>
						<outputchannelindex>1</outputchannelindex>
					</clipitem>
					<clipitem id="clipitem-303" premiereChannelType="stereo">
						<masterclipid>masterclip-2</masterclipid>
						<name>out</name>
						<start>1118</start>
						<end>1146</end>
						<in>10849</in>
						<out>10877</out>
						<file id="file-2" />
						<sourcetrack>
							<mediatype>audio</mediatype>
							<trackindex>1</trackindex>
						</sourcetrack>
						<labels>
							<label2>Iris</label2>
						</labels>
						<outputchannelindex>1</outputchannelindex>
					</clipitem>
					<clipitem id="clipitem-304" premiereChannelType="stereo">
						<masterclipid>masterclip-2</masterclipid>
						<name>out</name>
						<start>1146</start>
						<end>1176</end>
						<in>10911</in>
						<out>10941</out>
						<file id="file-2" />
						<sourcetrack>
							<mediatype>audio</mediatype>
							<trackindex>1</trackindex>
						</sourcetrack>
						<labels>
							<label2>Iris</label2>
						</labels>
						<outputchannelindex>1</outputchannelindex>
					</clipitem>
					<clipitem id="clipitem-305" premiereChannelType="stereo">
						<masterclipid>masterclip-2</masterclipid>
						<name>out</name>
						<start>1176</start>
						<end>1204</end>
						<in>11258</in>
						<out>11286</out>
						<file id="file-2" />
						<sourcetrack>
							<mediatype>audio</mediatype>
							<trackindex>1</trackindex>
						</sourcetrack>
						<labels>
							<label2>Iris</label2>
						</labels>
						<outputchannelindex>1</outputchannelindex>
					</clipitem>
					<clipitem id="clipitem-306" premiereChannelType="stereo">
						<masterclipid>masterclip-2</masterclipid>
						<name>out</name>
						<start>1204</start>
						<end>1231</end>
						<in>11344</in>
						<out>11371</out>
						<file id="file-2" />
						<sourcetrack>
							<mediatype>audio</mediatype>
							<trackindex>1</trackindex>
						</sourcetrack>
						<labels>
							<label2>Iris</label2>
						</labels>
						<outputchannelindex>1</outputchannelindex>
					</clipitem>
					<clipitem id="clipitem-307" premiereChannelType="stereo">
						<masterclipid>masterclip-2</masterclipid>
						<name>out</name>
						<start>1231</start>
						<end>1258</end>
						<in>11449</in>
						<out>11476</out>
						<file id="file-2" />
						<sourcetrack>
							<mediatype>audio</mediatype>
							<trackindex>1</trackindex>
						</sourcetrack>
						<labels>
							<label2>Iris</label2>
						</labels>
						<outputchannelindex>1</outputchannelindex>
					</clipitem>
					<clipitem id="clipitem-308" premiereChannelType="stereo">
						<masterclipid>masterclip-2</masterclipid>
						<name>out</name>
						<start>1258</start>
						<end>1286</end>
						<in>11564</in>
						<out>11592</out>
						<file id="file-2" />
						<sourcetrack>
							<mediatype>audio</mediatype>
							<trackindex>1</trackindex>
						</sourcetrack>
						<labels>
							<label2>Iris</label2>
						</labels>
						<outputchannelindex>1</outputchannelindex>
					</clipitem>
					<clipitem id="clipitem-309" premiereChannelType="stereo">
						<masterclipid>masterclip-2</masterclipid>
						<name>out</name>
						<start>1286</start>
						<end>1313</end>
						<in>11669</in>
						<out>11696</out>
						<file id="file-2" />
						<sourcetrack>
							<mediatype>audio</mediatype>
							<trackindex>1</trackindex>
						</sourcetrack>
						<labels>
							<label2>Iris</label2>
						</labels>
						<outputchannelindex>1</outputchannelindex>
					</clipitem>
					<clipitem id="clipitem-310" premiereChannelType="stereo">
						<masterclipid>masterclip-2</masterclipid>
						<name>out</name>
						<start>1313</start>
						<end>1346</end>
						<in>11998</in>
						<out>12031</out>
						<file id="file-2" />
						<sourcetrack>
							<mediatype>audio</mediatype>
							<trackindex>1</trackindex>
						</sourcetrack>
						<labels>
							<label2>Iris</label2>
						</labels>
						<outputchannelindex>1</outputchannelindex>
					</clipitem>
					<clipitem id="clipitem-311" premiereChannelType="stereo">
						<masterclipid>masterclip-2</masterclipid>
						<name>out</name>
						<start>1346</start>
						<end>1373</end>
						<in>12152</in>
						<out>12179</out>
						<file id="file-2" />
						<sourcetrack>
							<mediatype>audio</mediatype>
							<trackindex>1</trackindex>
						</sourcetrack>
						<labels>
							<label2>Iris</label2>
						</labels>
						<outputchannelindex>1</outputchannelindex>
					</clipitem>
					<clipitem id="clipitem-312" premiereChannelType="stereo">
						<masterclipid>masterclip-2</masterclipid>
						<name>out</name>
						<start>1373</start>
						<end>1400</end>
						<in>12512</in>
						<out>12539</out>
						<file id="file-2" />
						<sourcetrack>
							<mediatype>audio</mediatype>
							<trackindex>1</trackindex>
						</sourcetrack>
						<labels>
							<label2>Iris</label2>
						</labels>
						<outputchannelindex>1</outputchannelindex>
					</clipitem>
					<clipitem id="clipitem-313" premiereChannelType="stereo">
						<masterclipid>masterclip-2</masterclipid>
						<name>out</name>
						<start>1400</start>
						<end>1427</end>
						<in>12844</in>
						<out>12871</out>
						<file id="file-2" />
						<sourcetrack>
							<mediatype>audio</mediatype>
							<trackindex>1</trackindex>
						</sourcetrack>
						<labels>
							<label2>Iris</label2>
						</labels>
						<outputchannelindex>1</outputchannelindex>
					</clipitem>
					<clipitem id="clipitem-314" premiereChannelType="stereo">
						<masterclipid>masterclip-2</masterclipid>
						<name>out</name>
						<start>1427</start>
						<end>1456</end>
						<in>13206</in>
						<out>13235</out>
						<file id="file-2" />
						<sourcetrack>
							<mediatype>audio</mediatype>
							<trackindex>1</trackindex>
						</sourcetrack>
						<labels>
							<label2>Iris</label2>
						</labels>
						<outputchannelindex>1</outputchannelindex>
					</clipitem>
					<clipitem id="clipitem-315" premiereChannelType="stereo">
						<masterclipid>masterclip-2</masterclipid>
						<name>out</name>
						<start>1456</start>
						<end>1483</end>
						<in>13310</in>
						<out>13337</out>
						<file id="file-2" />
						<sourcetrack>
							<mediatype>audio</mediatype>
							<trackindex>1</trackindex>
						</sourcetrack>
						<labels>
							<label2>Iris</label2>
						</labels>
						<outputchannelindex>1</outputchannelindex>
					</clipitem>
					<clipitem id="clipitem-316" premiereChannelType="stereo">
						<masterclipid>masterclip-2</masterclipid>
						<name>out</name>
						<start>1483</start>
						<end>1510</end>
						<in>13428</in>
						<out>13455</out>
						<file id="file-2" />
						<sourcetrack>
							<mediatype>audio</mediatype>
							<trackindex>1</trackindex>
						</sourcetrack>
						<labels>
							<label2>Iris</label2>
						</labels>
						<outputchannelindex>1</outputchannelindex>
					</clipitem>
					<clipitem id="clipitem-317" premiereChannelType="stereo">
						<masterclipid>masterclip-2</masterclipid>
						<name>out</name>
						<start>1510</start>
						<end>1537</end>
						<in>13704</in>
						<out>13731</out>
						<file id="file-2" />
						<sourcetrack>
							<mediatype>audio</mediatype>
							<trackindex>1</trackindex>
						</sourcetrack>
						<labels>
							<label2>Iris</label2>
						</labels>
						<outputchannelindex>1</outputchannelindex>
					</clipitem>
					<clipitem id="clipitem-318" premiereChannelType="stereo">
						<masterclipid>masterclip-2</masterclipid>
						<name>out</name>
						<start>1537</start>
						<end>1566</end>
						<in>13944</in>
						<out>13973</out>
						<file id="file-2" />
						<sourcetrack>
							<mediatype>audio</mediatype>
							<trackindex>1</trackindex>
						</sourcetrack>
						<labels>
							<label2>Iris</label2>
						</labels>
						<outputchannelindex>1</outputchannelindex>
					</clipitem>
					<clipitem id="clipitem-319" premiereChannelType="stereo">
						<masterclipid>masterclip-2</masterclipid>
						<name>out</name>
						<start>1566</start>
						<end>1593</end>
						<in>14103</in>
						<out>14130</out>
						<file id="file-2" />
						<sourcetrack>
							<mediatype>audio</mediatype>
							<trackindex>1</trackindex>
						</sourcetrack>
						<labels>
							<label2>Iris</label2>
						</labels>
						<outputchannelindex>1</outputchannelindex>
					</clipitem>
					<clipitem id="clipitem-320" premiereChannelType="stereo">
						<masterclipid>masterclip-2</masterclipid>
						<name>out</name>
						<start>1593</start>
						<end>1621</end>
						<in>14141</in>
						<out>14169</out>
						<file id="file-2" />
						<sourcetrack>
							<mediatype>audio</mediatype>
							<trackindex>1</trackindex>
						</sourcetrack>
						<labels>
							<label2>Iris</label2>
						</labels>
						<outputchannelindex>1</outputchannelindex>
					</clipitem>
					<clipitem id="clipitem-321" premiereChannelType="stereo">
						<masterclipid>masterclip-2</masterclipid>
						<name>out</name>
						<start>1621</start>
						<end>1726</end>
						<in>14190</in>
						<out>14295</out>
						<file id="file-2" />
						<sourcetrack>
							<mediatype>audio</mediatype>
							<trackindex>1</trackindex>
						</sourcetrack>
						<labels>
							<label2>Iris</label2>
						</labels>
						<outputchannelindex>1</outputchannelindex>
					</clipitem>
					<clipitem id="clipitem-322" premiereChannelType="stereo">
						<masterclipid>masterclip-2</masterclipid>
						<name>out</name>
						<start>1726</start>
						<end>1784</end>
						<in>14321</in>
						<out>14379</out>
						<file id="file-2" />
						<sourcetrack>
							<mediatype>audio</mediatype>
							<trackindex>1</trackindex>
						</sourcetrack>
						<labels>
							<label2>Iris</label2>
						</labels>
						<outputchannelindex>1</outputchannelindex>
					</clipitem>
					<clipitem id="clipitem-323" premiereChannelType="stereo">
						<masterclipid>masterclip-2</masterclipid>
						<name>out</name>
						<start>1784</start>
						<end>1812</end>
						<in>14409</in>
						<out>14437</out>
						<file id="file-2" />
						<sourcetrack>
							<mediatype>audio</mediatype>
							<trackindex>1</trackindex>
						</sourcetrack>
						<labels>
							<label2>Iris</label2>
						</labels>
						<outputchannelindex>1</outputchannelindex>
					</clipitem>
					<clipitem id="clipitem-324" premiereChannelType="stereo">
						<masterclipid>masterclip-2</masterclipid>
						<name>out</name>
						<start>1812</start>
						<end>1891</end>
						<in>14459</in>
						<out>14538</out>
						<file id="file-2" />
						<sourcetrack>
							<mediatype>audio</mediatype>
							<trackindex>1</trackindex>
						</sourcetrack>
						<labels>
							<label2>Iris</label2>
						</labels>
						<outputchannelindex>1</outputchannelindex>
					</clipitem>
					<clipitem id="clipitem-325" premiereChannelType="stereo">
						<masterclipid>masterclip-2</masterclipid>
						<name>out</name>
						<start>1891</start>
						<end>1925</end>
						<in>14553</in>
						<out>14587</out>
						<file id="file-2" />
						<sourcetrack>
							<mediatype>audio</mediatype>
							<trackindex>1</trackindex>
						</sourcetrack>
						<labels>
							<label2>Iris</label2>
						</labels>
						<outputchannelindex>1</outputchannelindex>
					</clipitem>
					<clipitem id="clipitem-326" premiereChannelType="stereo">
						<masterclipid>masterclip-2</masterclipid>
						<name>out</name>
						<start>1925</start>
						<end>1966</end>
						<in>14706</in>
						<out>14747</out>
						<file id="file-2" />
						<sourcetrack>
							<mediatype>audio</mediatype>
							<trackindex>1</trackindex>
						</sourcetrack>
						<labels>
							<label2>Iris</label2>
						</labels>
						<outputchannelindex>1</outputchannelindex>
					</clipitem>
					<clipitem id="clipitem-327" premiereChannelType="stereo">
						<masterclipid>masterclip-2</masterclipid>
						<name>out</name>
						<start>1966</start>
						<end>2020</end>
						<in>14818</in>
						<out>14872</out>
						<file id="file-2" />
						<sourcetrack>
							<mediatype>audio</mediatype>
							<trackindex>1</trackindex>
						</sourcetrack>
						<labels>
							<label2>Iris</label2>
						</labels>
						<outputchannelindex>1</outputchannelindex>
					</clipitem>
					<clipitem id="clipitem-328" premiereChannelType="stereo">
						<masterclipid>masterclip-2</masterclipid>
						<name>out</name>
						<start>2020</start>
						<end>2050</end>
						<in>14899</in>
						<out>14929</out>
						<file id="file-2" />
						<sourcetrack>
							<mediatype>audio</mediatype>
							<trackindex>1</trackindex>
						</sourcetrack>
						<labels>
							<label2>Iris</label2>
						</labels>
						<outputchannelindex>1</outputchannelindex>
					</clipitem>
					<clipitem id="clipitem-329" premiereChannelType="stereo">
						<masterclipid>masterclip-2</masterclipid>
						<name>out</name>
						<start>2050</start>
						<end>2078</end>
						<in>15365</in>
						<out>15393</out>
						<file id="file-2" />
						<sourcetrack>
							<mediatype>audio</mediatype>
							<trackindex>1</trackindex>
						</sourcetrack>
						<labels>
							<label2>Iris</label2>
						</labels>
						<outputchannelindex>1</outputchannelindex>
					</clipitem>
					<clipitem id="clipitem-330" premiereChannelType="stereo">
						<masterclipid>masterclip-2</masterclipid>
						<name>out</name>
						<start>2078</start>
						<end>2105</end>
						<in>15557</in>
						<out>15584</out>
						<file id="file-2" />
						<sourcetrack>
							<mediatype>audio</mediatype>
							<trackindex>1</trackindex>
						</sourcetrack>
						<labels>
							<label2>Iris</label2>
						</labels>
						<outputchannelindex>1</outputchannelindex>
					</clipitem>
					<clipitem id="clipitem-331" premiereChannelType="stereo">
						<masterclipid>masterclip-2</masterclipid>
						<name>out</name>
						<start>2105</start>
						<end>2132</end>
						<in>15740</in>
						<out>15767</out>
						<file id="file-2" />
						<sourcetrack>
							<mediatype>audio</mediatype>
							<trackindex>1</trackindex>
						</sourcetrack>
						<labels>
							<label2>Iris</label2>
						</labels>
						<outputchannelindex>1</outputchannelindex>
					</clipitem>
					<clipitem id="clipitem-332" premiereChannelType="stereo">
						<masterclipid>masterclip-2</masterclipid>
						<name>out</name>
						<start>2132</start>
						<end>2162</end>
						<in>16219</in>
						<out>16249</out>
						<file id="file-2" />
						<sourcetrack>
							<mediatype>audio</mediatype>
							<trackindex>1</trackindex>
						</sourcetrack>
						<labels>
							<label2>Iris</label2>
						</labels>
						<outputchannelindex>1</outputchannelindex>
					</clipitem>
					<clipitem id="clipitem-333" premiereChannelType="stereo">
						<masterclipid>masterclip-2</masterclipid>
						<name>out</name>
						<start>2162</start>
						<end>2189</end>
						<in>16462</in>
						<out>16489</out>
						<file id="file-2" />
						<sourcetrack>
							<mediatype>audio</mediatype>
							<trackindex>1</trackindex>
						</sourcetrack>
						<labels>
							<label2>Iris</label2>
						</labels>
						<outputchannelindex>1</outputchannelindex>
					</clipitem>
					<clipitem id="clipitem-334" premiereChannelType="stereo">
						<masterclipid>masterclip-2</masterclipid>
						<name>out</name>
						<start>2189</start>
						<end>2216</end>
						<in>17462</in>
						<out>17489</out>
						<file id="file-2" />
						<sourcetrack>
							<mediatype>audio</mediatype>
							<trackindex>1</trackindex>
						</sourcetrack>
						<labels>
							<label2>Iris</label2>
						</labels>
						<outputchannelindex>1</outputchannelindex>
					</clipitem>
					<clipitem id="clipitem-335" premiereChannelType="stereo">
						<masterclipid>masterclip-2</masterclipid>
						<name>out</name>
						<start>2216</start>
						<end>2243</end>
						<in>17551</in>
						<out>17578</out>
						<file id="file-2" />
						<sourcetrack>
							<mediatype>audio</mediatype>
							<trackindex>1</trackindex>
						</sourcetrack>
						<labels>
							<label2>Iris</label2>
						</labels>
						<outputchannelindex>1</outputchannelindex>
					</clipitem>
					<clipitem id="clipitem-336" premiereChannelType="stereo">
						<masterclipid>masterclip-2</masterclipid>
						<name>out</name>
						<start>2243</start>
						<end>2271</end>
						<in>17949</in>
						<out>17977</out>
						<file id="file-2" />
						<sourcetrack>
							<mediatype>audio</mediatype>
							<trackindex>1</trackindex>
						</sourcetrack>
						<labels>
							<label2>Iris</label2>
						</labels>
						<outputchannelindex>1</outputchannelindex>
					</clipitem>
					<clipitem id="clipitem-337" premiereChannelType="stereo">
						<masterclipid>masterclip-2</masterclipid>
						<name>out</name>
						<start>2271</start>
						<end>2298</end>
						<in>18346</in>
						<out>18373</out>
						<file id="file-2" />
						<sourcetrack>
							<mediatype>audio</mediatype>
							<trackindex>1</trackindex>
						</sourcetrack>
						<labels>
							<label2>Iris</label2>
						</labels>
						<outputchannelindex>1</outputchannelindex>
					</clipitem>
					<clipitem id="clipitem-338" premiereChannelType="stereo">
						<masterclipid>masterclip-2</masterclipid>
						<name>out</name>
						<start>2298</start>
						<end>2351</end>
						<in>18549</in>
						<out>18602</out>
						<file id="file-2" />
						<sourcetrack>
							<mediatype>audio</mediatype>
							<trackindex>1</trackindex>
						</sourcetrack>
						<labels>
							<label2>Iris</label2>
						</labels>
						<outputchannelindex>1</outputchannelindex>
					</clipitem>
					<clipitem id="clipitem-339" premiereChannelType="stereo">
						<masterclipid>masterclip-2</masterclipid>
						<name>out</name>
						<start>2351</start>
						<end>2378</end>
						<in>18684</in>
						<out>18711</out>
						<file id="file-2" />
						<sourcetrack>
							<mediatype>audio</mediatype>
							<trackindex>1</trackindex>
						</sourcetrack>
						<labels>
							<label2>Iris</label2>
						</labels>
						<outputchannelindex>1</outputchannelindex>
					</clipitem>
					<clipitem id="clipitem-340" premiereChannelType="stereo">
						<masterclipid>masterclip-2</masterclipid>
						<name>out</name>
						<start>2378</start>
						<end>2405</end>
						<in>18977</in>
						<out>19004</out>
						<file id="file-2" />
						<sourcetrack>
							<mediatype>audio</mediatype>
							<trackindex>1</trackindex>
						</sourcetrack>
						<labels>
							<label2>Iris</label2>
						</labels>
						<outputchannelindex>1</outputchannelindex>
					</clipitem>
					<clipitem id="clipitem-341" premiereChannelType="stereo">
						<masterclipid>masterclip-2</masterclipid>
						<name>out</name>
						<start>2405</start>
						<end>2432</end>
						<in>19060</in>
						<out>19087</out>
						<file id="file-2" />
						<sourcetrack>
							<mediatype>audio</mediatype>
							<trackindex>1</trackindex>
						</sourcetrack>
						<labels>
							<label2>Iris</label2>
						</labels>
						<outputchannelindex>1</outputchannelindex>
					</clipitem>
					<clipitem id="clipitem-342" premiereChannelType="stereo">
						<masterclipid>masterclip-2</masterclipid>
						<name>out</name>
						<start>2432</start>
						<end>2459</end>
						<in>19145</in>
						<out>19172</out>
						<file id="file-2" />
						<sourcetrack>
							<mediatype>audio</mediatype>
							<trackindex>1</trackindex>
						</sourcetrack>
						<labels>
							<label2>Iris</label2>
						</labels>
						<outputchannelindex>1</outputchannelindex>
					</clipitem>
					<clipitem id="clipitem-343" premiereChannelType="stereo">
						<masterclipid>masterclip-2</masterclipid>
						<name>out</name>
						<start>2459</start>
						<end>2487</end>
						<in>19830</in>
						<out>19858</out>
						<file id="file-2" />
						<sourcetrack>
							<mediatype>audio</mediatype>
							<trackindex>1</trackindex>
						</sourcetrack>
						<labels>
							<label2>Iris</label2>
						</labels>
						<outputchannelindex>1</outputchannelindex>
					</clipitem>
					<clipitem id="clipitem-344" premiereChannelType="stereo">
						<masterclipid>masterclip-2</masterclipid>
						<name>out</name>
						<start>2487</start>
						<end>2514</end>
						<in>20200</in>
						<out>20227</out>
						<file id="file-2" />
						<sourcetrack>
							<mediatype>audio</mediatype>
							<trackindex>1</trackindex>
						</sourcetrack>
						<labels>
							<label2>Iris</label2>
						</labels>
						<outputchannelindex>1</outputchannelindex>
					</clipitem>
					<clipitem id="clipitem-345" premiereChannelType="stereo">
						<masterclipid>masterclip-2</masterclipid>
						<name>out</name>
						<start>2514</start>
						<end>2547</end>
						<in>20475</in>
						<out>20508</out>
						<file id="file-2" />
						<sourcetrack>
							<mediatype>audio</mediatype>
							<trackindex>1</trackindex>
						</sourcetrack>
						<labels>
							<label2>Iris</label2>
						</labels>
						<outputchannelindex>1</outputchannelindex>
					</clipitem>
					<clipitem id="clipitem-346" premiereChannelType="stereo">
						<masterclipid>masterclip-2</masterclipid>
						<name>out</name>
						<start>2547</start>
						<end>2574</end>
						<in>21219</in>
						<out>21246</out>
						<file id="file-2" />
						<sourcetrack>
							<mediatype>audio</mediatype>
							<trackindex>1</trackindex>
						</sourcetrack>
						<labels>
							<label2>Iris</label2>
						</labels>
						<outputchannelindex>1</outputchannelindex>
					</clipitem>
					<clipitem id="clipitem-347" premiereChannelType="stereo">
						<masterclipid>masterclip-2</masterclipid>
						<name>out</name>
						<start>2574</start>
						<end>2603</end>
						<in>21595</in>
						<out>21624</out>
						<file id="file-2" />
						<sourcetrack>
							<mediatype>audio</mediatype>
							<trackindex>1</trackindex>
						</sourcetrack>
						<labels>
							<label2>Iris</label2>
						</labels>
						<outputchannelindex>1</outputchannelindex>
					</clipitem>
					<clipitem id="clipitem-348" premiereChannelType="stereo">
						<masterclipid>masterclip-2</masterclipid>
						<name>out</name>
						<start>2603</start>
						<end>2632</end>
						<in>21977</in>
						<out>22006</out>
						<file id="file-2" />
						<sourcetrack>
							<mediatype>audio</mediatype>
							<trackindex>1</trackindex>
						</sourcetrack>
						<labels>
							<label2>Iris</label2>
						</labels>
						<outputchannelindex>1</outputchannelindex>
					</clipitem>
					<clipitem id="clipitem-349" premiereChannelType="stereo">
						<masterclipid>masterclip-2</masterclipid>
						<name>out</name>
						<start>2632</start>
						<end>2659</end>
						<in>22068</in>
						<out>22095</out>
						<file id="file-2" />
						<sourcetrack>
							<mediatype>audio</mediatype>
							<trackindex>1</trackindex>
						</sourcetrack>
						<labels>
							<label2>Iris</label2>
						</labels>
						<outputchannelindex>1</outputchannelindex>
					</clipitem>
					<clipitem id="clipitem-350" premiereChannelType="stereo">
						<masterclipid>masterclip-2</masterclipid>
						<name>out</name>
						<start>2659</start>
						<end>2687</end>
						<in>22422</in>
						<out>22450</out>
						<file id="file-2" />
						<sourcetrack>
							<mediatype>audio</mediatype>
							<trackindex>1</trackindex>
						</sourcetrack>
						<labels>
							<label2>Iris</label2>
						</labels>
						<outputchannelindex>1</outputchannelindex>
					</clipitem>
					<clipitem id="clipitem-351" premiereChannelType="stereo">
						<masterclipid>masterclip-2</masterclipid>
						<name>out</name>
						<start>2687</start>
						<end>2714</end>
						<in>22677</in>
						<out>22704</out>
						<file id="file-2" />
						<sourcetrack>
							<mediatype>audio</mediatype>
							<trackindex>1</trackindex>
						</sourcetrack>
						<labels>
							<label2>Iris</label2>
						</labels>
						<outputchannelindex>1</outputchannelindex>
					</clipitem>
					<clipitem id="clipitem-352" premiereChannelType="stereo">
						<masterclipid>masterclip-2</masterclipid>
						<name>out</name>
						<start>2714</start>
						<end>2744</end>
						<in>22788</in>
						<out>22818</out>
						<file id="file-2" />
						<sourcetrack>
							<mediatype>audio</mediatype>
							<trackindex>1</trackindex>
						</sourcetrack>
						<labels>
							<label2>Iris</label2>
						</labels>
						<outputchannelindex>1</outputchannelindex>
					</clipitem>
					<clipitem id="clipitem-353" premiereChannelType="stereo">
						<masterclipid>masterclip-2</masterclipid>
						<name>out</name>
						<start>2744</start>
						<end>2773</end>
						<in>22822</in>
						<out>22851</out>
						<file id="file-2" />
						<sourcetrack>
							<mediatype>audio</mediatype>
							<trackindex>1</trackindex>
						</sourcetrack>
						<labels>
							<label2>Iris</label2>
						</labels>
						<outputchannelindex>1</outputchannelindex>
					</clipitem>
					<clipitem id="clipitem-354" premiereChannelType="stereo">
						<masterclipid>masterclip-2</masterclipid>
						<name>out</name>
						<start>2773</start>
						<end>2801</end>
						<in>22891</in>
						<out>22919</out>
						<file id="file-2" />
						<sourcetrack>
							<mediatype>audio</mediatype>
							<trackindex>1</trackindex>
						</sourcetrack>
						<labels>
							<label2>Iris</label2>
						</labels>
						<outputchannelindex>1</outputchannelindex>
					</clipitem>
					<clipitem id="clipitem-355" premiereChannelType="stereo">
						<masterclipid>masterclip-2</masterclipid>
						<name>out</name>
						<start>2801</start>
						<end>2828</end>
						<in>22958</in>
						<out>22985</out>
						<file id="file-2" />
						<sourcetrack>
							<mediatype>audio</mediatype>
							<trackindex>1</trackindex>
						</sourcetrack>
						<labels>
							<label2>Iris</label2>
						</labels>
						<outputchannelindex>1</outputchannelindex>
					</clipitem>
					<clipitem id="clipitem-356" premiereChannelType="stereo">
						<masterclipid>masterclip-2</masterclipid>
						<name>out</name>
						<start>2828</start>
						<end>2856</end>
						<in>23014</in>
						<out>23042</out>
						<file id="file-2" />
						<sourcetrack>
							<mediatype>audio</mediatype>
							<trackindex>1</trackindex>
						</sourcetrack>
						<labels>
							<label2>Iris</label2>
						</labels>
						<outputchannelindex>1</outputchannelindex>
					</clipitem>
					<clipitem id="clipitem-357" premiereChannelType="stereo">
						<masterclipid>masterclip-2</masterclipid>
						<name>out</name>
						<start>2856</start>
						<end>2883</end>
						<in>23062</in>
						<out>23089</out>
						<file id="file-2" />
						<sourcetrack>
							<mediatype>audio</mediatype>
							<trackindex>1</trackindex>
						</sourcetrack>
						<labels>
							<label2>Iris</label2>
						</labels>
						<outputchannelindex>1</outputchannelindex>
					</clipitem>
					<clipitem id="clipitem-358" premiereChannelType="stereo">
						<masterclipid>masterclip-2</masterclipid>
						<name>out</name>
						<start>2883</start>
						<end>2915</end>
						<in>23096</in>
						<out>23128</out>
						<file id="file-2" />
						<sourcetrack>
							<mediatype>audio</mediatype>
							<trackindex>1</trackindex>
						</sourcetrack>
						<labels>
							<label2>Iris</label2>
						</labels>
						<outputchannelindex>1</outputchannelindex>
					</clipitem>
					<clipitem id="clipitem-359" premiereChannelType="stereo">
						<masterclipid>masterclip-2</masterclipid>
						<name>out</name>
						<start>2915</start>
						<end>2943</end>
						<in>23137</in>
						<out>23165</out>
						<file id="file-2" />
						<sourcetrack>
							<mediatype>audio</mediatype>
							<trackindex>1</trackindex>
						</sourcetrack>
						<labels>
							<label2>Iris</label2>
						</labels>
						<outputchannelindex>1</outputchannelindex>
					</clipitem>
					<clipitem id="clipitem-360" premiereChannelType="stereo">
						<masterclipid>masterclip-2</masterclipid>
						<name>out</name>
						<start>2943</start>
						<end>2971</end>
						<in>23172</in>
						<out>23200</out>
						<file id="file-2" />
						<sourcetrack>
							<mediatype>audio</mediatype>
							<trackindex>1</trackindex>
						</sourcetrack>
						<labels>
							<label2>Iris</label2>
						</labels>
						<outputchannelindex>1</outputchannelindex>
					</clipitem>
					<clipitem id="clipitem-361" premiereChannelType="stereo">
						<masterclipid>masterclip-2</masterclipid>
						<name>out</name>
						<start>2971</start>
						<end>3054</end>
						<in>23203</in>
						<out>23286</out>
						<file id="file-2" />
						<sourcetrack>
							<mediatype>audio</mediatype>
							<trackindex>1</trackindex>
						</sourcetrack>
						<labels>
							<label2>Iris</label2>
						</labels>
						<outputchannelindex>1</outputchannelindex>
					</clipitem>
					<clipitem id="clipitem-362" premiereChannelType="stereo">
						<masterclipid>masterclip-2</masterclipid>
						<name>out</name>
						<start>3054</start>
						<end>3087</end>
						<in>23346</in>
						<out>23379</out>
						<file id="file-2" />
						<sourcetrack>
							<mediatype>audio</mediatype>
							<trackindex>1</trackindex>
						</sourcetrack>
						<labels>
							<label2>Iris</label2>
						</labels>
						<outputchannelindex>1</outputchannelindex>
					</clipitem>
					<clipitem id="clipitem-363" premiereChannelType="stereo">
						<masterclipid>masterclip-2</masterclipid>
						<name>out</name>
						<start>3087</start>
						<end>3114</end>
						<in>25416</in>
						<out>25443</out>
						<file id="file-2" />
						<sourcetrack>
							<mediatype>audio</mediatype>
							<trackindex>1</trackindex>
						</sourcetrack>
						<labels>
							<label2>Iris</label2>
						</labels>
						<outputchannelindex>1</outputchannelindex>
					</clipitem>
					<clipitem id="clipitem-364" premiereChannelType="stereo">
						<masterclipid>masterclip-2</masterclipid>
						<name>out</name>
						<start>3114</start>
						<end>3141</end>
						<in>25811</in>
						<out>25838</out>
						<file id="file-2" />
						<sourcetrack>
							<mediatype>audio</mediatype>
							<trackindex>1</trackindex>
						</sourcetrack>
						<labels>
							<label2>Iris</label2>
						</labels>
						<outputchannelindex>1</outputchannelindex>
					</clipitem>
					<clipitem id="clipitem-365" premiereChannelType="stereo">
						<masterclipid>masterclip-2</masterclipid>
						<name>out</name>
						<start>3141</start>
						<end>3169</end>
						<in>26555</in>
						<out>26583</out>
						<file id="file-2" />
						<sourcetrack>
							<mediatype>audio</mediatype>
							<trackindex>1</trackindex>
						</sourcetrack>
						<labels>
							<label2>Iris</label2>
						</labels>
						<outputchannelindex>1</outputchannelindex>
					</clipitem>
					<clipitem id="clipitem-366" premiereChannelType="stereo">
						<masterclipid>masterclip-2</masterclipid>
						<name>out</name>
						<start>3169</start>
						<end>3200</end>
						<in>26609</in>
						<out>26640</out>
						<file id="file-2" />
						<sourcetrack>
							<mediatype>audio</mediatype>
							<trackindex>1</trackindex>
						</sourcetrack>
						<labels>
							<label2>Iris</label2>
						</labels>
						<outputchannelindex>1</outputchannelindex>
					</clipitem>
					<clipitem id="clipitem-367" premiereChannelType="stereo">
						<masterclipid>masterclip-2</masterclipid>
						<name>out</name>
						<start>3200</start>
						<end>3228</end>
						<in>26661</in>
						<out>26689</out>
						<file id="file-2" />
						<sourcetrack>
							<mediatype>audio</mediatype>
							<trackindex>1</trackindex>
						</sourcetrack>
						<labels>
							<label2>Iris</label2>
						</labels>
						<outputchannelindex>1</outputchannelindex>
					</clipitem>
					<clipitem id="clipitem-368" premiereChannelType="stereo">
						<masterclipid>masterclip-2</masterclipid>
						<name>out</name>
						<start>3228</start>
						<end>3259</end>
						<in>26699</in>
						<out>26730</out>
						<file id="file-2" />
						<sourcetrack>
							<mediatype>audio</mediatype>
							<trackindex>1</trackindex>
						</sourcetrack>
						<labels>
							<label2>Iris</label2>
						</labels>
						<outputchannelindex>1</outputchannelindex>
					</clipitem>
					<clipitem id="clipitem-369" premiereChannelType="stereo">
						<masterclipid>masterclip-2</masterclipid>
						<name>out</name>
						<start>3259</start>
						<end>3286</end>
						<in>27067</in>
						<out>27094</out>
						<file id="file-2" />
						<sourcetrack>
							<mediatype>audio</mediatype>
							<trackindex>1</trackindex>
						</sourcetrack>
						<labels>
							<label2>Iris</label2>
						</labels>
						<outputchannelindex>1</outputchannelindex>
					</clipitem>
					<clipitem id="clipitem-370" premiereChannelType="stereo">
						<masterclipid>masterclip-2</masterclipid>
						<name>out</name>
						<start>3286</start>
						<end>3319</end>
						<in>27653</in>
						<out>27686</out>
						<file id="file-2" />
						<sourcetrack>
							<mediatype>audio</mediatype>
							<trackindex>1</trackindex>
						</sourcetrack>
						<labels>
							<label2>Iris</label2>
						</labels>
						<outputchannelindex>1</outputchannelindex>
					</clipitem>
					<clipitem id="clipitem-371" premiereChannelType="stereo">
						<masterclipid>masterclip-2</masterclipid>
						<name>out</name>
						<start>3319</start>
						<end>3347</end>
						<in>27748</in>
						<out>27776</out>
						<file id="file-2" />
						<sourcetrack>
							<mediatype>audio</mediatype>
							<trackindex>1</trackindex>
						</sourcetrack>
						<labels>
							<label2>Iris</label2>
						</labels>
						<outputchannelindex>1</outputchannelindex>
					</clipitem>
					<clipitem id="clipitem-372" premiereChannelType="stereo">
						<masterclipid>masterclip-2</masterclipid>
						<name>out</name>
						<start>3347</start>
						<end>3374</end>
						<in>28106</in>
						<out>28133</out>
						<file id="file-2" />
						<sourcetrack>
							<mediatype>audio</mediatype>
							<trackindex>1</trackindex>
						</sourcetrack>
						<labels>
							<label2>Iris</label2>
						</labels>
						<outputchannelindex>1</outputchannelindex>
					</clipitem>
					<clipitem id="clipitem-373" premiereChannelType="stereo">
						<masterclipid>masterclip-2</masterclipid>
						<name>out</name>
						<start>3374</start>
						<end>3401</end>
						<in>28168</in>
						<out>28195</out>
						<file id="file-2" />
						<sourcetrack>
							<mediatype>audio</mediatype>
							<trackindex>1</trackindex>
						</sourcetrack>
						<labels>
							<label2>Iris</label2>
						</labels>
						<outputchannelindex>1</outputchannelindex>
					</clipitem>
					<clipitem id="clipitem-374" premiereChannelType="stereo">
						<masterclipid>masterclip-2</masterclipid>
						<name>out</name>
						<start>3401</start>
						<end>3433</end>
						<in>28584</in>
						<out>28616</out>
						<file id="file-2" />
						<sourcetrack>
							<mediatype>audio</mediatype>
							<trackindex>1</trackindex>
						</sourcetrack>
						<labels>
							<label2>Iris</label2>
						</labels>
						<outputchannelindex>1</outputchannelindex>
					</clipitem>
					<clipitem id="clipitem-375" premiereChannelType="stereo">
						<masterclipid>masterclip-2</masterclipid>
						<name>out</name>
						<start>3433</start>
						<end>3462</end>
						<in>29176</in>
						<out>29205</out>
						<file id="file-2" />
						<sourcetrack>
							<mediatype>audio</mediatype>
							<trackindex>1</trackindex>
						</sourcetrack>
						<labels>
							<label2>Iris</label2>
						</labels>
						<outputchannelindex>1</outputchannelindex>
					</clipitem>
					<clipitem id="clipitem-376" premiereChannelType="stereo">
						<masterclipid>masterclip-2</masterclipid>
						<name>out</name>
						<start>3462</start>
						<end>3489</end>
						<in>29212</in>
						<out>29239</out>
						<file id="file-2" />
						<sourcetrack>
							<mediatype>audio</mediatype>
							<trackindex>1</trackindex>
						</sourcetrack>
						<labels>
							<label2>Iris</label2>
						</labels>
						<outputchannelindex>1</outputchannelindex>
					</clipitem>
					<clipitem id="clipitem-377" premiereChannelType="stereo">
						<masterclipid>masterclip-2</masterclipid>
						<name>out</name>
						<start>3489</start>
						<end>3516</end>
						<in>29271</in>
						<out>29298</out>
						<file id="file-2" />
						<sourcetrack>
							<mediatype>audio</mediatype>
							<trackindex>1</trackindex>
						</sourcetrack>
						<labels>
							<label2>Iris</label2>
						</labels>
						<outputchannelindex>1</outputchannelindex>
					</clipitem>
					<clipitem id="clipitem-378" premiereChannelType="stereo">
						<masterclipid>masterclip-2</masterclipid>
						<name>out</name>
						<start>3516</start>
						<end>3543</end>
						<in>29338</in>
						<out>29365</out>
						<file id="file-2" />
						<sourcetrack>
							<mediatype>audio</mediatype>
							<trackindex>1</trackindex>
						</sourcetrack>
						<labels>
							<label2>Iris</label2>
						</labels>
						<outputchannelindex>1</outputchannelindex>
					</clipitem>
					<clipitem id="clipitem-379" premiereChannelType="stereo">
						<masterclipid>masterclip-2</masterclipid>
						<name>out</name>
						<start>3543</start>
						<end>3570</end>
						<in>29433</in>
						<out>29460</out>
						<file id="file-2" />
						<sourcetrack>
							<mediatype>audio</mediatype>
							<trackindex>1</trackindex>
						</sourcetrack>
						<labels>
							<label2>Iris</label2>
						</labels>
						<outputchannelindex>1</outputchannelindex>
					</clipitem>
					<clipitem id="clipitem-380" premiereChannelType="stereo">
						<masterclipid>masterclip-2</masterclipid>
						<name>out</name>
						<start>3570</start>
						<end>3597</end>
						<in>29604</in>
						<out>29631</out>
						<file id="file-2" />
						<sourcetrack>
							<mediatype>audio</mediatype>
							<trackindex>1</trackindex>
						</sourcetrack>
						<labels>
							<label2>Iris</label2>
						</labels>
						<outputchannelindex>1</outputchannelindex>
					</clipitem>
					<clipitem id="clipitem-381" premiereChannelType="stereo">
						<masterclipid>masterclip-2</masterclipid>
						<name>out</name>
						<start>3597</start>
						<end>3624</end>
						<in>29809</in>
						<out>29836</out>
						<file id="file-2" />
						<sourcetrack>
							<mediatype>audio</mediatype>
							<trackindex>1</trackindex>
						</sourcetrack>
						<labels>
							<label2>Iris</label2>
						</labels>
						<outputchannelindex>1</outputchannelindex>
					</clipitem>
					<clipitem id="clipitem-382" premiereChannelType="stereo">
						<masterclipid>masterclip-2</masterclipid>
						<name>out</name>
						<start>3624</start>
						<end>3651</end>
						<in>30311</in>
						<out>30338</out>
						<file id="file-2" />
						<sourcetrack>
							<mediatype>audio</mediatype>
							<trackindex>1</trackindex>
						</sourcetrack>
						<labels>
							<label2>Iris</label2>
						</labels>
						<outputchannelindex>1</outputchannelindex>
					</clipitem>
					<clipitem id="clipitem-383" premiereChannelType="stereo">
						<masterclipid>masterclip-2</masterclipid>
						<name>out</name>
						<start>3651</start>
						<end>3678</end>
						<in>30393</in>
						<out>30420</out>
						<file id="file-2" />
						<sourcetrack>
							<mediatype>audio</mediatype>
							<trackindex>1</trackindex>
						</sourcetrack>
						<labels>
							<label2>Iris</label2>
						</labels>
						<outputchannelindex>1</outputchannelindex>
					</clipitem>
					<clipitem id="clipitem-384" premiereChannelType="stereo">
						<masterclipid>masterclip-2</masterclipid>
						<name>out</name>
						<start>3678</start>
						<end>3725</end>
						<in>30556</in>
						<out>30603</out>
						<file id="file-2" />
						<sourcetrack>
							<mediatype>audio</mediatype>
							<trackindex>1</trackindex>
						</sourcetrack>
						<labels>
							<label2>Iris</label2>
						</labels>
						<outputchannelindex>1</outputchannelindex>
					</clipitem>
					<clipitem id="clipitem-385" premiereChannelType="stereo">
						<masterclipid>masterclip-2</masterclipid>
						<name>out</name>
						<start>3725</start>
						<end>3752</end>
						<in>30869</in>
						<out>30896</out>
						<file id="file-2" />
						<sourcetrack>
							<mediatype>audio</mediatype>
							<trackindex>1</trackindex>
						</sourcetrack>
						<labels>
							<label2>Iris</label2>
						</labels>
						<outputchannelindex>1</outputchannelindex>
					</clipitem>
					<clipitem id="clipitem-386" premiereChannelType="stereo">
						<masterclipid>masterclip-2</masterclipid>
						<name>out</name>
						<start>3752</start>
						<end>3786</end>
						<in>31036</in>
						<out>31070</out>
						<file id="file-2" />
						<sourcetrack>
							<mediatype>audio</mediatype>
							<trackindex>1</trackindex>
						</sourcetrack>
						<labels>
							<label2>Iris</label2>
						</labels>
						<outputchannelindex>1</outputchannelindex>
					</clipitem>
					<clipitem id="clipitem-387" premiereChannelType="stereo">
						<masterclipid>masterclip-2</masterclipid>
						<name>out</name>
						<start>3786</start>
						<end>3813</end>
						<in>31167</in>
						<out>31194</out>
						<file id="file-2" />
						<sourcetrack>
							<mediatype>audio</mediatype>
							<trackindex>1</trackindex>
						</sourcetrack>
						<labels>
							<label2>Iris</label2>
						</labels>
						<outputchannelindex>1</outputchannelindex>
					</clipitem>
					<clipitem id="clipitem-388" premiereChannelType="stereo">
						<masterclipid>masterclip-2</masterclipid>
						<name>out</name>
						<start>3813</start>
						<end>3840</end>
						<in>31370</in>
						<out>31397</out>
						<file id="file-2" />
						<sourcetrack>
							<mediatype>audio</mediatype>
							<trackindex>1</trackindex>
						</sourcetrack>
						<labels>
							<label2>Iris</label2>
						</labels>
						<outputchannelindex>1</outputchannelindex>
					</clipitem>
					<clipitem id="clipitem-389" premiereChannelType="stereo">
						<masterclipid>masterclip-2</masterclipid>
						<name>out</name>
						<start>3840</start>
						<end>3867</end>
						<in>31458</in>
						<out>31485</out>
						<file id="file-2" />
						<sourcetrack>
							<mediatype>audio</mediatype>
							<trackindex>1</trackindex>
						</sourcetrack>
						<labels>
							<label2>Iris</label2>
						</labels>
						<outputchannelindex>1</outputchannelindex>
					</clipitem>
					<clipitem id="clipitem-390" premiereChannelType="stereo">
						<masterclipid>masterclip-2</masterclipid>
						<name>out</name>
						<start>3867</start>
						<end>3901</end>
						<in>31499</in>
						<out>31533</out>
						<file id="file-2" />
						<sourcetrack>
							<mediatype>audio</mediatype>
							<trackindex>1</trackindex>
						</sourcetrack>
						<labels>
							<label2>Iris</label2>
						</labels>
						<outputchannelindex>1</outputchannelindex>
					</clipitem>
					<clipitem id="clipitem-391" premiereChannelType="stereo">
						<masterclipid>masterclip-2</masterclipid>
						<name>out</name>
						<start>3901</start>
						<end>3934</end>
						<in>31547</in>
						<out>31580</out>
						<file id="file-2" />
						<sourcetrack>
							<mediatype>audio</mediatype>
							<trackindex>1</trackindex>
						</sourcetrack>
						<labels>
							<label2>Iris</label2>
						</labels>
						<outputchannelindex>1</outputchannelindex>
					</clipitem>
					<clipitem id="clipitem-392" premiereChannelType="stereo">
						<masterclipid>masterclip-2</masterclipid>
						<name>out</name>
						<start>3934</start>
						<end>3961</end>
						<in>31958</in>
						<out>31985</out>
						<file id="file-2" />
						<sourcetrack>
							<mediatype>audio</mediatype>
							<trackindex>1</trackindex>
						</sourcetrack>
						<labels>
							<label2>Iris</label2>
						</labels>
						<outputchannelindex>1</outputchannelindex>
					</clipitem>
					<clipitem id="clipitem-393" premiereChannelType="stereo">
						<masterclipid>masterclip-2</masterclipid>
						<name>out</name>
						<start>3961</start>
						<end>3989</end>
						<in>32212</in>
						<out>32240</out>
						<file id="file-2" />
						<sourcetrack>
							<mediatype>audio</mediatype>
							<trackindex>1</trackindex>
						</sourcetrack>
						<labels>
							<label2>Iris</label2>
						</labels>
						<outputchannelindex>1</outputchannelindex>
					</clipitem>
					<clipitem id="clipitem-394" premiereChannelType="stereo">
						<masterclipid>masterclip-2</masterclipid>
						<name>out</name>
						<start>3989</start>
						<end>4016</end>
						<in>32246</in>
						<out>32273</out>
						<file id="file-2" />
						<sourcetrack>
							<mediatype>audio</mediatype>
							<trackindex>1</trackindex>
						</sourcetrack>
						<labels>
							<label2>Iris</label2>
						</labels>
						<outputchannelindex>1</outputchannelindex>
					</clipitem>
					<clipitem id="clipitem-395" premiereChannelType="stereo">
						<masterclipid>masterclip-2</masterclipid>
						<name>out</name>
						<start>4016</start>
						<end>4052</end>
						<in>32379</in>
						<out>32415</out>
						<file id="file-2" />
						<sourcetrack>
							<mediatype>audio</mediatype>
							<trackindex>1</trackindex>
						</sourcetrack>
						<labels>
							<label2>Iris</label2>
						</labels>
						<outputchannelindex>1</outputchannelindex>
					</clipitem>
					<clipitem id="clipitem-396" premiereChannelType="stereo">
						<masterclipid>masterclip-2</masterclipid>
						<name>out</name>
						<start>4052</start>
						<end>4083</end>
						<in>32584</in>
						<out>32615</out>
						<file id="file-2" />
						<sourcetrack>
							<mediatype>audio</mediatype>
							<trackindex>1</trackindex>
						</sourcetrack>
						<labels>
							<label2>Iris</label2>
						</labels>
						<outputchannelindex>1</outputchannelindex>
					</clipitem>
					<clipitem id="clipitem-397" premiereChannelType="stereo">
						<masterclipid>masterclip-2</masterclipid>
						<name>out</name>
						<start>4083</start>
						<end>4110</end>
						<in>33076</in>
						<out>33103</out>
						<file id="file-2" />
						<sourcetrack>
							<mediatype>audio</mediatype>
							<trackindex>1</trackindex>
						</sourcetrack>
						<labels>
							<label2>Iris</label2>
						</labels>
						<outputchannelindex>1</outputchannelindex>
					</clipitem>
					<clipitem id="clipitem-398" premiereChannelType="stereo">
						<masterclipid>masterclip-2</masterclipid>
						<name>out</name>
						<start>4110</start>
						<end>4150</end>
						<in>33910</in>
						<out>33950</out>
						<file id="file-2" />
						<sourcetrack>
							<mediatype>audio</mediatype>
							<trackindex>1</trackindex>
						</sourcetrack>
						<labels>
							<label2>Iris</label2>
						</labels>
						<outputchannelindex>1</outputchannelindex>
					</clipitem>
					<clipitem id="clipitem-399" premiereChannelType="stereo">
						<masterclipid>masterclip-2</masterclipid>
						<name>out</name>
						<start>4150</start>
						<end>4224</end>
						<in>33969</in>
						<out>34043</out>
						<file id="file-2" />
						<sourcetrack>
							<mediatype>audio</mediatype>
							<trackindex>1</trackindex>
						</sourcetrack>
						<labels>
							<label2>Iris</label2>
						</labels>
						<outputchannelindex>1</outputchannelindex>
					</clipitem>
					<clipitem id="clipitem-400" premiereChannelType="stereo">
						<masterclipid>masterclip-2</masterclipid>
						<name>out</name>
						<start>4224</start>
						<end>4259</end>
						<in>34112</in>
						<out>34147</out>
						<file id="file-2" />
						<sourcetrack>
							<mediatype>audio</mediatype>
							<trackindex>1</trackindex>
						</sourcetrack>
						<labels>
							<label2>Iris</label2>
						</labels>
						<outputchannelindex>1</outputchannelindex>
					</clipitem>
					<clipitem id="clipitem-401" premiereChannelType="stereo">
						<masterclipid>masterclip-2</masterclipid>
						<name>out</name>
						<start>4259</start>
						<end>4308</end>
						<in>34150</in>
						<out>34199</out>
						<file id="file-2" />
						<sourcetrack>
							<mediatype>audio</mediatype>
							<trackindex>1</trackindex>
						</sourcetrack>
						<labels>
							<label2>Iris</label2>
						</labels>
						<outputchannelindex>1</outputchannelindex>
					</clipitem>
					<clipitem id="clipitem-402" premiereChannelType="stereo">
						<masterclipid>masterclip-2</masterclipid>
						<name>out</name>
						<start>4308</start>
						<end>4335</end>
						<in>35667</in>
						<out>35694</out>
						<file id="file-2" />
						<sourcetrack>
							<mediatype>audio</mediatype>
							<trackindex>1</trackindex>
						</sourcetrack>
						<labels>
							<label2>Iris</label2>
						</labels>
						<outputchannelindex>1</outputchannelindex>
					</clipitem>
					<clipitem id="clipitem-403" premiereChannelType="stereo">
						<masterclipid>masterclip-2</masterclipid>
						<name>out</name>
						<start>4335</start>
						<end>4368</end>
						<in>36082</in>
						<out>36115</out>
						<file id="file-2" />
						<sourcetrack>
							<mediatype>audio</mediatype>
							<trackindex>1</trackindex>
						</sourcetrack>
						<labels>
							<label2>Iris</label2>
						</labels>
						<outputchannelindex>1</outputchannelindex>
					</clipitem>
					<clipitem id="clipitem-404" premiereChannelType="stereo">
						<masterclipid>masterclip-2</masterclipid>
						<name>out</name>
						<start>4368</start>
						<end>4409</end>
						<in>36223</in>
						<out>36264</out>
						<file id="file-2" />
						<sourcetrack>
							<mediatype>audio</mediatype>
							<trackindex>1</trackindex>
						</sourcetrack>
						<labels>
							<label2>Iris</label2>
						</labels>
						<outputchannelindex>1</outputchannelindex>
					</clipitem>
					<clipitem id="clipitem-405" premiereChannelType="stereo">
						<masterclipid>masterclip-2</masterclipid>
						<name>out</name>
						<start>4409</start>
						<end>4425</end>
						<in>36282</in>
						<out>36298</out>
						<file id="file-2" />
						<sourcetrack>
							<mediatype>audio</mediatype>
							<trackindex>1</trackindex>
						</sourcetrack>
						<labels>
							<label2>Iris</label2>
						</labels>
						<outputchannelindex>1</outputchannelindex>
					</clipitem>
				</track>
			</audio>
		</media>
	</sequence>
</xmeml>