<svg width="512" height="512" fill="none" xmlns="http://www.w3.org/2000/svg"><g filter="url(#a)"><rect x="50" y="50" width="412" height="412" rx="92" fill="#fff"/></g><path d="m176.361 283.953 57.857-48.498 59.139 70.551-57.857 48.499-59.139-70.552z" fill="#64C2F8"/><path d="m234.959 333.104 106.091-47.696 19.871 44.2-106.09 47.696-19.872-44.2z" fill="#64C2F8"/><path fill-rule="evenodd" clip-rule="evenodd" d="M365.81 275.999a7.45 7.45 0 0 1 9.163-5.196l88.566 24.472a7.448 7.448 0 1 1-3.968 14.359l-88.565-24.472a7.449 7.449 0 0 1-5.196-9.163z" fill="#3B8EDA"/><path fill-rule="evenodd" clip-rule="evenodd" d="M282.113 346.326a7.448 7.448 0 0 1 1.401-10.44l82.968-63.336a7.448 7.448 0 1 1 9.039 11.841l-82.968 63.336a7.448 7.448 0 0 1-10.44-1.401z" fill="#3B8EDA"/><path fill-rule="evenodd" clip-rule="evenodd" d="M281.484 345.209a7.45 7.45 0 0 1 4.598-9.478l83.442-28.928a7.45 7.45 0 0 1 4.88 14.075l-83.442 28.929a7.45 7.45 0 0 1-9.478-4.598z" fill="#3B8EDA"/><path fill-rule="evenodd" clip-rule="evenodd" d="M370.11 307.619a7.45 7.45 0 0 1 10.283 2.285l48.882 76.814a7.45 7.45 0 0 1-12.568 7.998l-48.882-76.814a7.45 7.45 0 0 1 2.285-10.283zM120.83 299.597a7.449 7.449 0 0 1-6.167-8.54l13.176-81.646a7.448 7.448 0 0 1 8.54-6.166 7.448 7.448 0 0 1 6.167 8.54l-13.176 81.646a7.448 7.448 0 0 1-8.54 6.166z" fill="#3B8EDA"/><path fill-rule="evenodd" clip-rule="evenodd" d="M204.349 256.124a7.448 7.448 0 0 1-3.768 9.837l-74.423 33.204a7.449 7.449 0 0 1-6.069-13.604l74.423-33.204a7.448 7.448 0 0 1 9.837 3.767zM251.869 179.321a7.448 7.448 0 0 1-6.466 8.315l-64.809 8.112a7.449 7.449 0 1 1-1.85-14.782l64.809-8.111a7.449 7.449 0 0 1 8.316 6.466z" fill="#3B8EDA"/><path fill-rule="evenodd" clip-rule="evenodd" d="M247.111 175.724a7.447 7.447 0 0 1 2.928 10.118l-37.992 68.937a7.448 7.448 0 1 1-13.047-7.19l37.993-68.937a7.447 7.447 0 0 1 10.118-2.928z" fill="#3B8EDA"/><g filter="url(#b)"><circle cx="165.797" cy="213.651" r="39.853" transform="rotate(-13.575 165.797 213.651)" fill="#3B8EDA"/></g><path fill-rule="evenodd" clip-rule="evenodd" d="M186.751 240.357a7.449 7.449 0 0 1 10.534.085l94.707 96.242a7.448 7.448 0 0 1-10.618 10.448l-94.707-96.242a7.447 7.447 0 0 1 .084-10.533z" fill="#3B8EDA"/><path d="m76.068 172.885 14.296-5.267 1.774 4.815-21.792 8.028-1.454-3.946 6.98-23.064-13.379 4.928-1.792-4.865 21.023-7.744 1.408 3.822-7.064 23.293zM31.442 139.793l16.903-2.837.956 5.694-25.767 4.323-.783-4.666 12.532-24.039-15.818 2.654-.965-5.752L43.357 111l.758 4.519-12.673 24.274zM116.666 190.467l9.652-4.949 1.667 3.251-14.713 7.544-1.366-2.664 2.953-16.9-9.032 4.631-1.684-3.284 14.193-7.278 1.323 2.581-2.993 17.068z" fill="#3B8EDA"/><defs><filter id="a" x="39" y="44.5" width="434" height="434" filterUnits="userSpaceOnUse" color-interpolation-filters="sRGB"><feFlood flood-opacity="0" result="BackgroundImageFix"/><feColorMatrix in="SourceAlpha" values="0 0 0 0 0 0 0 0 0 0 0 0 0 0 0 0 0 0 127 0"/><feOffset dy="5.5"/><feGaussianBlur stdDeviation="5.5"/><feColorMatrix values="0 0 0 0 0 0 0 0 0 0 0 0 0 0 0 0 0 0 0.28 0"/><feBlend in2="BackgroundImageFix" result="effect1_dropShadow"/><feBlend in="SourceGraphic" in2="effect1_dropShadow" result="shape"/></filter><filter id="b" x="123.435" y="171.289" width="84.724" height="84.724" filterUnits="userSpaceOnUse" color-interpolation-filters="sRGB"><feFlood flood-opacity="0" result="BackgroundImageFix"/><feColorMatrix in="SourceAlpha" values="0 0 0 0 0 0 0 0 0 0 0 0 0 0 0 0 0 0 127 0"/><feOffset/><feGaussianBlur stdDeviation="1.25"/><feColorMatrix values="0 0 0 0 0 0 0 0 0 0 0 0 0 0 0 0 0 0 0.25 0"/><feBlend in2="BackgroundImageFix" result="effect1_dropShadow"/><feBlend in="SourceGraphic" in2="effect1_dropShadow" result="shape"/></filter></defs></svg>