<svg width="258" height="46" fill="none" xmlns="http://www.w3.org/2000/svg"><path d="M23.775 30.676H10.934L8.492 38H.704L13.936 2.453h6.788L34.029 38h-7.788l-2.466-7.324zm-10.864-5.933h8.887L17.33 11.438l-4.419 13.305zm39.502 10.572c-1.741 2.115-4.15 3.173-7.226 3.173-2.832 0-4.997-.813-6.495-2.441-1.48-1.628-2.238-4.012-2.27-7.153v-17.31h7.056v17.065c0 2.751 1.253 4.126 3.76 4.126 2.392 0 4.036-.83 4.93-2.49V11.584h7.081V38h-6.64l-.196-2.685zM73.02 5.09v6.494h4.516v5.176H73.02v13.183c0 .977.187 1.677.561 2.1.374.423 1.09.635 2.148.635.782 0 1.474-.057 2.076-.171v5.346a14.524 14.524 0 0 1-4.273.635c-4.948 0-7.47-2.498-7.568-7.495V16.76h-3.857v-5.176h3.857V5.09h7.056zm6.616 19.458c0-2.62.504-4.956 1.513-7.007 1.01-2.05 2.458-3.638 4.346-4.76 1.904-1.124 4.11-1.685 6.616-1.685 3.565 0 6.47 1.09 8.716 3.271 2.263 2.181 3.524 5.143 3.784 8.887l.049 1.806c0 4.053-1.131 7.308-3.393 9.766-2.263 2.442-5.298 3.662-9.107 3.662-3.808 0-6.852-1.22-9.13-3.662-2.263-2.441-3.394-5.762-3.394-9.96v-.318zm7.055.513c0 2.506.472 4.427 1.416 5.761.945 1.319 2.295 1.978 4.053 1.978 1.71 0 3.044-.651 4.004-1.953.96-1.319 1.44-3.418 1.44-6.3 0-2.457-.48-4.361-1.44-5.712s-2.311-2.026-4.053-2.026c-1.725 0-3.06.675-4.004 2.026-.944 1.335-1.416 3.41-1.416 6.226z" fill="#3B8EDA"/><path d="M122.726 25.622H108.98v-5.688h13.746v5.688zm27.514-3.027h-14.062v9.521h16.504V38h-23.828V2.453h23.779v5.933h-16.455v8.471h14.062v5.738zm4.688 2.002c0-4.118.919-7.398 2.759-9.84 1.855-2.44 4.386-3.661 7.592-3.661 2.572 0 4.696.96 6.372 2.88V.5h7.08V38h-6.372l-.341-2.808c-1.758 2.198-4.021 3.296-6.788 3.296-3.108 0-5.607-1.22-7.495-3.662-1.871-2.458-2.807-5.867-2.807-10.23zm7.055.512c0 2.474.432 4.37 1.294 5.689.863 1.318 2.116 1.977 3.76 1.977 2.181 0 3.719-.92 4.614-2.758V19.592c-.879-1.84-2.4-2.759-4.565-2.759-3.402 0-5.103 2.759-5.103 8.276zM191.646 38h-7.08V11.584h7.08V38zm-7.495-33.252c0-1.058.35-1.929 1.05-2.612.716-.684 1.685-1.026 2.905-1.026 1.205 0 2.165.342 2.881 1.026.716.683 1.075 1.554 1.075 2.612 0 1.074-.367 1.953-1.099 2.637-.716.683-1.668 1.025-2.857 1.025-1.188 0-2.148-.342-2.88-1.025-.717-.684-1.075-1.563-1.075-2.637zm21.778.342v6.494h4.516v5.176h-4.516v13.183c0 .977.187 1.677.561 2.1.375.423 1.091.635 2.149.635.781 0 1.473-.057 2.075-.171v5.346a14.53 14.53 0 0 1-4.273.635c-4.948 0-7.47-2.498-7.568-7.495V16.76h-3.857v-5.176h3.857V5.09h7.056zm6.616 19.458c0-2.62.504-4.956 1.514-7.007 1.009-2.05 2.457-3.638 4.345-4.76 1.905-1.124 4.11-1.685 6.617-1.685 3.564 0 6.469 1.09 8.715 3.271 2.263 2.181 3.524 5.143 3.785 8.887l.048 1.806c0 4.053-1.131 7.308-3.393 9.766-2.263 2.442-5.298 3.662-9.107 3.662-3.808 0-6.852-1.22-9.131-3.662-2.262-2.441-3.393-5.762-3.393-9.96v-.318zm7.056.513c0 2.506.472 4.427 1.416 5.761.944 1.319 2.295 1.978 4.052 1.978 1.709 0 3.044-.651 4.004-1.953.961-1.319 1.441-3.418 1.441-6.3 0-2.457-.48-4.361-1.441-5.712-.96-1.351-2.311-2.026-4.052-2.026-1.726 0-3.06.675-4.004 2.026-.944 1.335-1.416 3.41-1.416 6.226zm37.158-6.86a19.17 19.17 0 0 0-2.539-.196c-2.67 0-4.419.903-5.249 2.71V38h-7.056V11.584h6.665l.195 3.15c1.416-2.426 3.378-3.638 5.884-3.638a7.39 7.39 0 0 1 2.197.317l-.097 6.787z" fill="#64C2F8"/><path d="M.533 42.883h105.762v2.441H.533v-2.441z" fill="#3B8EDA"/><path d="M106.295 42.883h151.147v2.441H106.295v-2.441z" fill="#64C2F8"/></svg>