<svg width="647" height="238" viewBox="0 0 647 238" fill="none" xmlns="http://www.w3.org/2000/svg">
<path d="M121.574 146.572L164.297 110.76L207.965 162.856L165.243 198.668L121.574 146.572Z" fill="#64C2F8"/>
<path d="M164.844 182.866L243.182 147.646L257.855 180.284L179.517 215.503L164.844 182.866Z" fill="#64C2F8"/>
<path d="M273 165C273 161.686 275.686 159 279 159H528C531.314 159 534 161.686 534 165V238H273V165Z" fill="#64C2F8"/>
<rect x="420" y="99" width="34" height="60" fill="#CBCACA"/>
<path d="M387 90H440V159H387V90Z" fill="#DEDADA"/>
<path d="M440 90L454 99H440V90Z" fill="#D0CCCC"/>
<rect x="394" y="97" width="39" height="39" fill="#64C2F8"/>
<rect x="394" y="97" width="2" height="39" fill="#C2BEBE"/>
<rect x="433" y="97" width="2" height="39" transform="rotate(90 433 97)" fill="#C2BEBE"/>
<line x1="266.766" y1="142.163" x2="332.164" y2="160.234" stroke="#3B8EDA" stroke-width="11" stroke-linecap="round" stroke-linejoin="round"/>
<line x1="204.034" y1="189.291" x2="265.298" y2="142.524" stroke="#3B8EDA" stroke-width="11" stroke-linecap="round" stroke-linejoin="round"/>
<line x1="204.395" y1="190.002" x2="266.009" y2="168.641" stroke="#3B8EDA" stroke-width="11" stroke-linecap="round" stroke-linejoin="round"/>
<line x1="267.593" y1="168.687" x2="303.687" y2="225.407" stroke="#3B8EDA" stroke-width="11" stroke-linecap="round" stroke-linejoin="round"/>
<line x1="81.4465" y1="152.694" x2="91.1758" y2="92.4061" stroke="#3B8EDA" stroke-width="11" stroke-linecap="round" stroke-linejoin="round"/>
<line x1="137.218" y1="128.264" x2="82.2637" y2="152.782" stroke="#3B8EDA" stroke-width="11" stroke-linecap="round" stroke-linejoin="round"/>
<line x1="171.873" y1="69.9939" x2="124.017" y2="75.9834" stroke="#3B8EDA" stroke-width="11" stroke-linecap="round" stroke-linejoin="round"/>
<line x1="171.162" y1="71.4716" x2="143.109" y2="122.375" stroke="#3B8EDA" stroke-width="11" stroke-linecap="round" stroke-linejoin="round"/>
<g filter="url(#filter0_d_41_3)">
<circle cx="113.774" cy="94.6606" r="29.4275" transform="rotate(-13.5755 113.774 94.6606)" fill="#3B8EDA"/>
</g>
<line x1="133.105" y1="118.301" x2="203.037" y2="189.366" stroke="#3B8EDA" stroke-width="11" stroke-linecap="round" stroke-linejoin="round"/>
<path d="M393.775 40.6758H380.934L378.492 48H370.704L383.937 12.4531H390.724L404.029 48H396.241L393.775 40.6758ZM382.911 34.7432H391.798L387.33 21.4375L382.911 34.7432ZM422.413 45.3145C420.672 47.4303 418.263 48.4883 415.187 48.4883C412.354 48.4883 410.19 47.6745 408.692 46.0469C407.211 44.4193 406.454 42.0348 406.422 38.8936V21.584H413.478V38.6494C413.478 41.4001 414.731 42.7754 417.237 42.7754C419.63 42.7754 421.274 41.9453 422.169 40.2852V21.584H429.249V48H422.608L422.413 45.3145ZM443.019 15.0898V21.584H447.535V26.7598H443.019V39.9434C443.019 40.9199 443.206 41.6198 443.58 42.043C443.954 42.4661 444.671 42.6777 445.729 42.6777C446.51 42.6777 447.201 42.6208 447.804 42.5068V47.8535C446.42 48.2767 444.996 48.4883 443.531 48.4883C438.583 48.4883 436.061 45.9899 435.963 40.9932V26.7598H432.105V21.584H435.963V15.0898H443.019ZM449.635 34.5479C449.635 31.9274 450.139 29.5918 451.148 27.541C452.158 25.4902 453.606 23.9033 455.494 22.7803C457.398 21.6572 459.604 21.0957 462.11 21.0957C465.675 21.0957 468.58 22.1862 470.826 24.3672C473.089 26.5482 474.35 29.5104 474.61 33.2539L474.659 35.0605C474.659 39.1133 473.528 42.3685 471.266 44.8262C469.003 47.2676 465.968 48.4883 462.159 48.4883C458.351 48.4883 455.307 47.2676 453.028 44.8262C450.766 42.3848 449.635 39.0645 449.635 34.8652V34.5479ZM456.69 35.0605C456.69 37.5671 457.162 39.4876 458.106 40.8223C459.05 42.1406 460.401 42.7998 462.159 42.7998C463.868 42.7998 465.203 42.1488 466.163 40.8467C467.123 39.5283 467.604 37.4287 467.604 34.5479C467.604 32.0902 467.123 30.1859 466.163 28.835C465.203 27.484 463.852 26.8086 462.11 26.8086C460.385 26.8086 459.05 27.484 458.106 28.835C457.162 30.1696 456.69 32.2448 456.69 35.0605Z" fill="#3B8EDA"/>
<path d="M492.726 35.6221H478.98V29.9336H492.726V35.6221ZM520.24 32.5947H506.178V42.1162H522.682V48H498.854V12.4531H522.633V18.3857H506.178V26.8574H520.24V32.5947ZM524.928 34.5967C524.928 30.4788 525.847 27.1992 527.687 24.7578C529.542 22.3164 532.073 21.0957 535.279 21.0957C537.851 21.0957 539.975 22.056 541.651 23.9766V10.5H548.731V48H542.359L542.018 45.1924C540.26 47.3896 537.997 48.4883 535.23 48.4883C532.122 48.4883 529.623 47.2676 527.735 44.8262C525.864 42.3685 524.928 38.9587 524.928 34.5967ZM531.983 35.1094C531.983 37.5833 532.415 39.4795 533.277 40.7979C534.14 42.1162 535.393 42.7754 537.037 42.7754C539.218 42.7754 540.756 41.8558 541.651 40.0166V29.5918C540.772 27.7526 539.251 26.833 537.086 26.833C533.684 26.833 531.983 29.5918 531.983 35.1094ZM561.646 48H554.566V21.584H561.646V48ZM554.151 14.748C554.151 13.6901 554.501 12.8193 555.201 12.1357C555.917 11.4521 556.886 11.1104 558.106 11.1104C559.311 11.1104 560.271 11.4521 560.987 12.1357C561.703 12.8193 562.062 13.6901 562.062 14.748C562.062 15.8223 561.695 16.7012 560.963 17.3848C560.247 18.0684 559.295 18.4102 558.106 18.4102C556.918 18.4102 555.958 18.0684 555.226 17.3848C554.509 16.7012 554.151 15.8223 554.151 14.748ZM575.929 15.0898V21.584H580.445V26.7598H575.929V39.9434C575.929 40.9199 576.116 41.6198 576.49 42.043C576.865 42.4661 577.581 42.6777 578.639 42.6777C579.42 42.6777 580.112 42.6208 580.714 42.5068V47.8535C579.33 48.2767 577.906 48.4883 576.441 48.4883C571.493 48.4883 568.971 45.9899 568.873 40.9932V26.7598H565.016V21.584H568.873V15.0898H575.929ZM582.545 34.5479C582.545 31.9274 583.049 29.5918 584.059 27.541C585.068 25.4902 586.516 23.9033 588.404 22.7803C590.309 21.6572 592.514 21.0957 595.021 21.0957C598.585 21.0957 601.49 22.1862 603.736 24.3672C605.999 26.5482 607.26 29.5104 607.521 33.2539L607.569 35.0605C607.569 39.1133 606.438 42.3685 604.176 44.8262C601.913 47.2676 598.878 48.4883 595.069 48.4883C591.261 48.4883 588.217 47.2676 585.938 44.8262C583.676 42.3848 582.545 39.0645 582.545 34.8652V34.5479ZM589.601 35.0605C589.601 37.5671 590.073 39.4876 591.017 40.8223C591.961 42.1406 593.312 42.7998 595.069 42.7998C596.778 42.7998 598.113 42.1488 599.073 40.8467C600.034 39.5283 600.514 37.4287 600.514 34.5479C600.514 32.0902 600.034 30.1859 599.073 28.835C598.113 27.484 596.762 26.8086 595.021 26.8086C593.295 26.8086 591.961 27.484 591.017 28.835C590.073 30.1696 589.601 32.2448 589.601 35.0605ZM626.759 28.2002C625.799 28.07 624.952 28.0049 624.22 28.0049C621.55 28.0049 619.801 28.9082 618.971 30.7148V48H611.915V21.584H618.58L618.775 24.7334C620.191 22.3083 622.153 21.0957 624.659 21.0957C625.44 21.0957 626.173 21.2015 626.856 21.4131L626.759 28.2002Z" fill="#64C2F8"/>
<path d="M370.533 52.8828H476.295V55.3242H370.533V52.8828Z" fill="#3B8EDA"/>
<path d="M476.295 52.8828H627.442V55.3242H476.295V52.8828Z" fill="#64C2F8"/>
<path d="M47.5178 64.5586L58.0743 60.6698L59.3841 64.2253L43.2927 70.153L42.2193 67.239L47.3726 50.2085L37.4942 53.8476L36.171 50.2554L51.6941 44.537L52.7339 47.3594L47.5178 64.5586Z" fill="#3B8EDA"/>
<path d="M14.5655 40.1231L27.0473 38.0289L27.7526 42.2329L8.72654 45.4251L8.14845 41.9796L17.402 24.2296L5.72196 26.1893L5.00935 21.942L23.3636 18.8625L23.9236 22.1997L14.5655 40.1231Z" fill="#3B8EDA"/>
<path d="M77.4953 77.5416L84.6225 73.8872L85.8534 76.2877L74.9892 81.8581L73.9805 79.8907L76.1613 67.4119L69.4918 70.8316L68.2483 68.4063L78.7288 63.0326L79.7059 64.9382L77.4953 77.5416Z" fill="#3B8EDA"/>
<defs>
<filter id="filter0_d_41_3" x="79.3399" y="60.2263" width="68.8686" height="68.8686" filterUnits="userSpaceOnUse" color-interpolation-filters="sRGB">
<feFlood flood-opacity="0" result="BackgroundImageFix"/>
<feColorMatrix in="SourceAlpha" type="matrix" values="0 0 0 0 0 0 0 0 0 0 0 0 0 0 0 0 0 0 127 0" result="hardAlpha"/>
<feOffset/>
<feGaussianBlur stdDeviation="2.5"/>
<feColorMatrix type="matrix" values="0 0 0 0 0 0 0 0 0 0 0 0 0 0 0 0 0 0 0.25 0"/>
<feBlend mode="normal" in2="BackgroundImageFix" result="effect1_dropShadow_41_3"/>
<feBlend mode="normal" in="SourceGraphic" in2="effect1_dropShadow_41_3" result="shape"/>
</filter>
</defs>
</svg>
